SplineFontDB: 3.0
FontName: Vazir-Light
FullName: Vazir Light
FamilyName: Vazir
Weight: Light
Copyright: Copyright (c) 2003 by Bitstream, Inc. All Rights Reserved.\nDejaVu changes are in public domain\nChanges by Saber Rastikerdar are in public domain.\nNon-Arabic(Latin) glyphs and data are imported from Roboto font under the Apache License, Version 2.0.
Version: 8.0.0
ItalicAngle: 0
UnderlinePosition: -500
UnderlineWidth: 100
Ascent: 1638
Descent: 410
InvalidEm: 0
LayerCount: 2
Layer: 0 1 "Back" 1
Layer: 1 1 "Fore" 0
XUID: [1021 502 1027637223 5256233]
UniqueID: 4020585
UseUniqueID: 1
FSType: 0
OS2Version: 1
OS2_WeightWidthSlopeOnly: 0
OS2_UseTypoMetrics: 1
CreationTime: 1431850356
ModificationTime: 1488418526
PfmFamily: 33
TTFWeight: 300
TTFWidth: 5
LineGap: 0
VLineGap: 0
Panose: 2 11 6 3 3 8 4 2 2 4
OS2TypoAscent: 2350
OS2TypoAOffset: 0
OS2TypoDescent: -1100
OS2TypoDOffset: 0
OS2TypoLinegap: 0
OS2WinAscent: 2350
OS2WinAOffset: 0
OS2WinDescent: 1100
OS2WinDOffset: 0
HheadAscent: 2350
HheadAOffset: 0
HheadDescent: -1100
HheadDOffset: 0
OS2SubXSize: 1331
OS2SubYSize: 1433
OS2SubXOff: 0
OS2SubYOff: 286
OS2SupXSize: 1331
OS2SupYSize: 1433
OS2SupXOff: 0
OS2SupYOff: 983
OS2StrikeYSize: 102
OS2StrikeYPos: 530
OS2CapHeight: 1638
OS2XHeight: 1082
OS2Vendor: 'PfEd'
OS2CodePages: 00000041.20080000
OS2UnicodeRanges: 80002003.80000000.00000008.00000000
Lookup: 1 9 0 "'fina' Terminal Forms in Arabic lookup 9" { "'fina' Terminal Forms in Arabic lookup 9 subtable"  } ['fina' ('arab' <'KUR ' 'SND ' 'URD ' 'dflt' > ) ]
Lookup: 1 9 0 "'medi' Medial Forms in Arabic lookup 11" { "'medi' Medial Forms in Arabic lookup 11 subtable"  } ['medi' ('arab' <'KUR ' 'SND ' 'URD ' 'dflt' > ) ]
Lookup: 1 9 0 "'init' Initial Forms in Arabic lookup 13" { "'init' Initial Forms in Arabic lookup 13 subtable"  } ['init' ('arab' <'KUR ' 'SND ' 'URD ' 'dflt' > ) ]

StartChar: exclam
Encoding: 33 33 1
Width: 621
VWidth: 2504
GlyphClass: 2
Flags: W
LayerCount: 2
Fore
SplineSet
191.76953125 139.530273438 m 128,-1,1
 191.76953125 164.477916577 191.76953125 164.477916577 200.241114458 185.157881864 c 128,-1,2
 208.683588231 205.76678817 208.683588231 205.76678817 225.866339372 222.950383258 c 0,3,4
 234.555505846 231.639122767 234.555505846 231.639122767 244.071462251 238.091824237 c 128,-1,5
 253.587418656 244.544525708 253.587418656 244.544525708 264.095613423 248.924197757 c 0,6,7
 284.859383514 257.578253522 284.859383514 257.578253522 310.489151774 258.245797902 c 0,8,9
 323.981114256 257.894209601 323.981114256 257.894209601 335.108741571 255.625269244 c 128,-1,10
 346.236368887 253.356328886 346.236368887 253.356328886 356.880668374 248.920001498 c 0,11,12
 363.882896189 246.001894676 363.882896189 246.001894676 370.413322289 242.186548654 c 128,-1,13
 376.94374839 238.371202633 376.94374839 238.371202633 383.126579719 233.561687263 c 128,-1,14
 389.309411048 228.752171893 389.309411048 228.752171893 395.110869595 222.950713346 c 0,15,16
 429.208984375 188.852598565 429.208984375 188.852598565 429.208984375 139.530273438 c 128,-1,17
 429.208984375 90.2078112924 429.208984375 90.2078112924 395.110869595 56.1088569675 c 0,18,19
 383.569545384 44.5675327563 383.569545384 44.5675327563 370.411372815 36.8785906191 c 128,-1,20
 357.253200247 29.1896484819 357.253200247 29.1896484819 342.38116198 25.223094967 c 128,-1,21
 327.509123714 21.2565414521 327.509123714 21.2565414521 310.488752414 20.8158007643 c 0,22,23
 297.536697523 21.1518359063 297.536697523 21.1518359063 286.203303665 23.428574879 c 0,24,25
 274.619719916 25.7557432361 274.619719916 25.7557432361 264.095877499 30.1419358077 c 128,-1,26
 253.611626445 34.5104433797 253.611626445 34.5104433797 244.113232735 40.9503727244 c 128,-1,27
 234.523731171 47.4526462083 234.523731171 47.4526462083 225.866999376 56.1085270511 c 0,28,29
 208.682611599 73.2937588127 208.682611599 73.2937588127 200.240489551 93.9018065231 c 128,-1,0
 191.76953125 114.583125023 191.76953125 114.583125023 191.76953125 139.530273438 c 128,-1,1
229.917508727 1514.68652344 m 1,30,-1
 397.02967377 1514.68652344 l 1,31,-1
 375.455082128 489.165039062 l 1,32,-1
 252.571253703 489.165039062 l 1,33,-1
 229.917508727 1514.68652344 l 1,30,-1
EndSplineSet
EndChar

StartChar: period
Encoding: 46 46 2
Width: 621
VWidth: 2504
GlyphClass: 2
Flags: W
LayerCount: 2
Fore
SplineSet
191.76953125 139.530273438 m 128,-1,1
 191.76953125 164.477916577 191.76953125 164.477916577 200.241114458 185.157881864 c 128,-1,2
 208.683588231 205.76678817 208.683588231 205.76678817 225.866339372 222.950383258 c 0,3,4
 234.555505846 231.639122767 234.555505846 231.639122767 244.071462251 238.091824237 c 128,-1,5
 253.587418656 244.544525708 253.587418656 244.544525708 264.095613423 248.924197757 c 0,6,7
 284.859383514 257.578253522 284.859383514 257.578253522 310.489151774 258.245797902 c 0,8,9
 323.981114256 257.894209601 323.981114256 257.894209601 335.108741571 255.625269244 c 128,-1,10
 346.236368887 253.356328886 346.236368887 253.356328886 356.880668374 248.920001498 c 0,11,12
 363.882896189 246.001894676 363.882896189 246.001894676 370.413322289 242.186548654 c 128,-1,13
 376.94374839 238.371202633 376.94374839 238.371202633 383.126579719 233.561687263 c 128,-1,14
 389.309411048 228.752171893 389.309411048 228.752171893 395.110869595 222.950713346 c 0,15,16
 429.208984375 188.852598565 429.208984375 188.852598565 429.208984375 139.530273438 c 128,-1,17
 429.208984375 90.2078112924 429.208984375 90.2078112924 395.110869595 56.1088569675 c 0,18,19
 383.569545384 44.5675327563 383.569545384 44.5675327563 370.411372815 36.8785906191 c 128,-1,20
 357.253200247 29.1896484819 357.253200247 29.1896484819 342.38116198 25.223094967 c 128,-1,21
 327.509123714 21.2565414521 327.509123714 21.2565414521 310.488752414 20.8158007643 c 0,22,23
 297.536697523 21.1518359063 297.536697523 21.1518359063 286.203303665 23.428574879 c 0,24,25
 274.619719916 25.7557432361 274.619719916 25.7557432361 264.095877499 30.1419358077 c 128,-1,26
 253.611626445 34.5104433797 253.611626445 34.5104433797 244.113232735 40.9503727244 c 128,-1,27
 234.523731171 47.4526462083 234.523731171 47.4526462083 225.866999376 56.1085270511 c 0,28,29
 208.682611599 73.2937588127 208.682611599 73.2937588127 200.240489551 93.9018065231 c 128,-1,0
 191.76953125 114.583125023 191.76953125 114.583125023 191.76953125 139.530273438 c 128,-1,1
EndSplineSet
EndChar

StartChar: colon
Encoding: 58 58 3
Width: 620
VWidth: 2504
GlyphClass: 2
Flags: W
LayerCount: 2
Fore
SplineSet
191.76953125 927.778320312 m 0,0,1
 191.76953125 936.20484342 191.76953125 936.20484342 192.72334106 944.067002508 c 128,-1,2
 193.677150869 951.929161596 193.677150869 951.929161596 195.566672743 959.279028065 c 0,3,4
 199.306644785 973.826779786 199.306644785 973.826779786 206.789546282 986.685786718 c 128,-1,5
 214.353599107 999.68568986 214.353599107 999.68568986 225.866669467 1011.19876022 c 0,6,7
 234.530015846 1019.8621066 234.530015846 1019.8621066 244.064210959 1026.34001358 c 128,-1,8
 253.598406073 1032.81792057 253.598406073 1032.81792057 264.14111983 1037.18510881 c 128,-1,9
 274.683833587 1041.55229705 274.683833587 1041.55229705 286.207276181 1043.85772511 c 128,-1,10
 297.730718775 1046.16315318 297.730718775 1046.16315318 310.489257814 1046.49374823 c 0,11,12
 361.402930375 1044.38579265 361.402930375 1044.38579265 395.110869596 1011.19876022 c 0,13,14
 406.661168465 999.648461349 406.661168465 999.648461349 414.201134063 986.757367272 c 128,-1,15
 421.741099662 973.866273196 421.741099662 973.866273196 425.475042019 959.208757768 c 128,-1,16
 429.208984375 944.55124234 429.208984375 944.55124234 429.208984375 927.778320312 c 0,17,18
 429.208984375 878.455858167 429.208984375 878.455858167 395.110869595 844.356903843 c 128,-1,19
 361.129011377 810.375045624 361.129011377 810.375045624 310.488593736 809.062875191 c 0,20,21
 297.536867412 809.398902614 297.536867412 809.398902614 286.2040185 811.675697771 c 0,22,23
 274.619595915 814.002865317 274.619595915 814.002865317 264.097068482 818.388509822 c 0,24,25
 261.474239777 819.481581576 261.474239777 819.481581576 258.918351788 820.701191012 c 128,-1,26
 256.362463799 821.920800448 256.362463799 821.920800448 253.865751214 823.271003905 c 128,-1,27
 251.369038629 824.621207363 251.369038629 824.621207363 248.931776887 826.102556436 c 128,-1,28
 246.494515146 827.583905509 246.494515146 827.583905509 244.113232735 829.198419599 c 0,29,30
 234.523731171 835.700693083 234.523731171 835.700693083 225.866999376 844.356573926 c 0,31,32
 208.682611599 861.541805688 208.682611599 861.541805688 200.240489551 882.149853399 c 128,-1,33
 191.76953125 902.831171897 191.76953125 902.831171897 191.76953125 927.778320312 c 0,0,1
191.76953125 139.530273438 m 128,-1,35
 191.76953125 164.477916577 191.76953125 164.477916577 200.241114458 185.157881864 c 128,-1,36
 208.683588231 205.76678817 208.683588231 205.76678817 225.866339372 222.950383258 c 0,37,38
 234.555505846 231.639122767 234.555505846 231.639122767 244.071462251 238.091824237 c 128,-1,39
 253.587418656 244.544525708 253.587418656 244.544525708 264.095613423 248.924197757 c 0,40,41
 284.859383514 257.578253522 284.859383514 257.578253522 310.489151774 258.245797902 c 0,42,43
 323.981114256 257.894209601 323.981114256 257.894209601 335.108741571 255.625269244 c 128,-1,44
 346.236368887 253.356328886 346.236368887 253.356328886 356.880668374 248.920001498 c 0,45,46
 363.882896189 246.001894676 363.882896189 246.001894676 370.413322289 242.186548654 c 128,-1,47
 376.94374839 238.371202633 376.94374839 238.371202633 383.126579719 233.561687263 c 128,-1,48
 389.309411048 228.752171893 389.309411048 228.752171893 395.110869595 222.950713346 c 0,49,50
 429.208984375 188.852598565 429.208984375 188.852598565 429.208984375 139.530273438 c 128,-1,51
 429.208984375 90.2078112924 429.208984375 90.2078112924 395.110869595 56.1088569675 c 0,52,53
 383.569545384 44.5675327563 383.569545384 44.5675327563 370.411372815 36.8785906191 c 128,-1,54
 357.253200247 29.1896484819 357.253200247 29.1896484819 342.38116198 25.223094967 c 128,-1,55
 327.509123714 21.2565414521 327.509123714 21.2565414521 310.488752414 20.8158007643 c 0,56,57
 297.536697523 21.1518359063 297.536697523 21.1518359063 286.203303665 23.428574879 c 0,58,59
 274.619719916 25.7557432361 274.619719916 25.7557432361 264.095877499 30.1419358077 c 128,-1,60
 253.611626445 34.5104433797 253.611626445 34.5104433797 244.113232735 40.9503727244 c 128,-1,61
 234.523731171 47.4526462083 234.523731171 47.4526462083 225.866999376 56.1085270511 c 0,62,63
 208.682611599 73.2937588127 208.682611599 73.2937588127 200.240489551 93.9018065231 c 128,-1,34
 191.76953125 114.583125023 191.76953125 114.583125023 191.76953125 139.530273438 c 128,-1,35
EndSplineSet
EndChar

StartChar: afii57388
Encoding: 1548 1548 5
Width: 706
VWidth: 2511
GlyphClass: 2
Flags: W
LayerCount: 2
Fore
SplineSet
360.797313861 19.0183280576 m 0,0,1
 298.563664969 20.0306797584 298.563664969 20.0306797584 266.28327297 46.115010151 c 128,-1,2
 234.002880972 72.1993405437 234.002880972 72.1993405437 226.244506676 126.3555282 c 0,3,4
 216.8160384 192.170097996 216.8160384 192.170097996 236.829815545 282.286803366 c 0,5,6
 280.651192179 501.878403721 280.651192179 501.878403721 461.32244904 642.920697592 c 1,7,-1
 483.715289166 628.991997297 l 1,8,9
 338.344664153 489.453219395 338.344664153 489.453219395 324.162400956 286.716620109 c 2,10,-1
 322.416083697 261.717892057 l 1,11,-1
 347.467398655 262.11660202 l 2,12,13
 443.539034497 263.625888283 443.539034497 263.625888283 475.207602188 224.194890227 c 0,14,15
 483.402360378 214.191200687 483.402360378 214.191200687 489.105007108 202.447770697 c 128,-1,16
 494.807653838 190.704340708 494.807653838 190.704340708 498.213195586 176.662672304 c 0,17,18
 505.193946538 147.884288162 505.193946538 147.884288162 501.80311925 110.449483015 c 0,19,20
 496.989252367 63.3275414358 496.989252367 63.3275414358 463.613157277 40.6831206225 c 128,-1,21
 430.237062187 18.0386998092 430.237062187 18.0386998092 360.797313861 19.0183280576 c 0,0,1
EndSplineSet
EndChar

StartChar: uni0615
Encoding: 1557 1557 6
Width: -29
VWidth: 2574
GlyphClass: 4
Flags: W
AnchorPoint: "Anchor-10" 623.562 1540.87 mark 0
AnchorPoint: "Anchor-9" 623.562 1540.87 mark 0
AnchorPoint: "Anchor-1" 636.984 2320.94 basemark 0
AnchorPoint: "Anchor-1" 623.562 1540.87 mark 0
LayerCount: 2
Fore
SplineSet
517.086914062 1699.59765625 m 1,0,-1
 642.040039062 1699.59765625 l 2,1,2
 740.134765625 1699.59765625 740.134765625 1699.59765625 802.122070312 1736.67285156 c 0,3,4
 865.108398438 1774.34472656 865.108398438 1774.34472656 865.108398438 1818.671875 c 0,5,6
 865.108398438 1833.19726562 865.108398438 1833.19726562 861.831054688 1844.82324219 c 128,-1,7
 858.552734375 1856.45019531 858.552734375 1856.45019531 851.841796875 1865.19140625 c 128,-1,8
 845.130859375 1873.93359375 845.130859375 1873.93359375 835.088867188 1879.37304688 c 0,9,10
 734.706054688 1935.3984375 734.706054688 1935.3984375 523.282226562 1706.31054688 c 2,11,-1
 517.086914062 1699.59765625 l 1,0,-1
940.870117188 1829.19238281 m 0,12,13
 941.034179688 1726.328125 941.034179688 1726.328125 874.04296875 1675.10058594 c 128,-1,14
 807.052734375 1623.87304688 807.052734375 1623.87304688 671.106445312 1623.87304688 c 2,15,-1
 334.36328125 1623.87304688 l 1,16,-1
 334.36328125 1699.59765625 l 1,17,-1
 436.728515625 1699.59765625 l 1,18,-1
 436.728515625 2203.76464844 l 1,19,-1
 513.703125 2202.80078125 l 1,20,-1
 512.801757812 1772.73828125 l 1,21,-1
 519.82421875 1780.70214844 l 2,22,23
 715.239257812 2002.31835938 715.239257812 2002.31835938 854.611328125 1952.13574219 c 0,24,25
 941.189453125 1920.06933594 941.189453125 1920.06933594 940.870117188 1829.19238281 c 0,12,13
EndSplineSet
EndChar

StartChar: uni061B
Encoding: 1563 1563 7
Width: 706
VWidth: 2511
GlyphClass: 2
Flags: W
LayerCount: 2
Fore
SplineSet
245.029296875 139.530273438 m 128,-1,1
 245.029296875 188.852598567 245.029296875 188.852598567 279.127576912 222.950878605 c 128,-1,2
 313.109406454 256.933544149 313.109406454 256.933544149 363.749023438 258.245701355 c 0,3,4
 381.305499076 257.790783696 381.305499076 257.790783696 396.248526768 253.769414383 c 128,-1,5
 411.191554461 249.74804507 411.191554461 249.74804507 423.990793382 242.139823119 c 128,-1,6
 436.790032303 234.531601168 436.790032303 234.531601168 448.370800613 222.950547954 c 0,7,8
 482.469726562 188.852461549 482.469726562 188.852461549 482.469726562 139.530273438 c 128,-1,9
 482.469726562 90.2079483101 482.469726562 90.2079483101 448.370635219 56.1088569675 c 0,10,11
 442.592411634 50.3306333817 442.592411634 50.3306333817 436.433831642 45.5304729027 c 128,-1,12
 430.275251651 40.7303124236 430.275251651 40.7303124236 423.690756196 36.8817252743 c 128,-1,13
 417.106260742 33.0331381251 417.106260742 33.0331381251 410.107861384 30.1244776732 c 128,-1,14
 403.109462027 27.2158172214 403.109462027 27.2158172214 395.6165855 25.2199168947 c 128,-1,15
 388.123708973 23.224016568 388.123708973 23.224016568 380.185715326 22.1299516491 c 128,-1,16
 372.24772168 21.0358867303 372.24772168 21.0358867303 363.749023438 20.8158138516 c 0,17,18
 313.109140434 22.1271281861 313.109140434 22.1271281861 279.127577046 56.1086915736 c 128,-1,0
 245.029296875 90.2078112944 245.029296875 90.2078112944 245.029296875 139.530273438 c 128,-1,1
360.784619152 487.70695616 m 0,19,20
 318.986762442 488.339610692 318.986762442 488.339610692 290.905415073 500.254580479 c 128,-1,21
 262.824067704 512.169550266 262.824067704 512.169550266 247.098245422 535.472782313 c 128,-1,22
 231.372423139 558.77601436 231.372423139 558.77601436 226.263091964 594.905020137 c 0,23,24
 222.096641291 625.270957877 222.096641291 625.270957877 224.664615412 664.102262205 c 0,25,26
 225.96434666 683.749340576 225.96434666 683.749340576 229.016069403 705.554357485 c 128,-1,27
 232.067792145 727.359374394 232.067792145 727.359374394 236.859410179 751.126294409 c 0,28,29
 281.816756338 971.697642064 281.816756338 971.697642064 461.311048668 1111.615877 c 1,30,-1
 483.709451812 1097.68341453 l 1,31,32
 474.435527487 1088.77670108 474.435527487 1088.77670108 467.157324543 1081.23031241 c 128,-1,33
 459.879121598 1073.68392373 459.879121598 1073.68392373 452.116883038 1064.96635364 c 0,34,35
 428.972948452 1038.97513471 428.972948452 1038.97513471 409.984771398 1010.99581347 c 128,-1,36
 390.969678382 982.977846658 390.969678382 982.977846658 376.11409219 952.995427504 c 0,37,38
 373.141886829 946.997157753 373.141886829 946.997157753 370.334716614 940.916358485 c 128,-1,39
 367.5275464 934.835559217 367.5275464 934.835559217 364.886578821 928.674976451 c 128,-1,40
 362.245611243 922.514393685 362.245611243 922.514393685 359.770133496 916.272675116 c 128,-1,41
 357.294655749 910.030956547 357.294655749 910.030956547 354.985478885 903.710241331 c 128,-1,42
 352.676302021 897.389526115 352.676302021 897.389526115 350.533069672 890.989068809 c 0,43,44
 339.828872232 859.022511961 339.828872232 859.022511961 333.242085496 825.109831015 c 0,45,46
 329.954767686 808.184265453 329.954767686 808.184265453 327.685600722 790.757964964 c 128,-1,47
 325.416433757 773.331664476 325.416433757 773.331664476 324.162400956 755.405096672 c 2,48,-1
 322.416083697 730.40636862 l 1,49,-1
 347.46722262 730.805075818 l 2,50,51
 443.538966186 732.313473338 443.538966186 732.313473338 475.207558195 692.882445004 c 0,52,53
 491.598009956 672.87362222 491.598009956 672.87362222 498.394622473 644.708949199 c 128,-1,54
 505.19123499 616.544276179 505.19123499 616.544276179 501.803115904 579.137926827 c 0,55,56
 498.605435732 547.836500779 498.605435732 547.836500779 483.505810907 527.737576901 c 128,-1,57
 468.406186082 507.638653022 468.406186082 507.638653022 437.990651095 497.342758094 c 128,-1,58
 407.575116108 487.046863167 407.575116108 487.046863167 360.784619152 487.70695616 c 0,19,20
EndSplineSet
EndChar

StartChar: uni061F
Encoding: 1567 1567 8
Width: 1053
VWidth: 2504
GlyphClass: 2
Flags: W
LayerCount: 2
Fore
SplineSet
507.481445312 139.530273438 m 0,0,1
 507.481445312 156.304179938 507.481445312 156.304179938 511.216239268 170.96297244 c 128,-1,2
 514.951033225 185.621764942 514.951033225 185.621764942 522.490826176 198.511768662 c 128,-1,3
 530.030619126 211.401772381 530.030619126 211.401772381 541.57972535 222.950878605 c 0,4,5
 575.561554892 256.933544149 575.561554892 256.933544149 626.201171875 258.245701355 c 0,6,7
 676.840788867 256.933544148 676.840788867 256.933544148 710.822949051 222.950547954 c 0,8,9
 728.125307417 205.648615586 728.125307417 205.648615586 736.523591208 185.139886399 c 128,-1,10
 744.921875 164.631157211 744.921875 164.631157211 744.921875 139.530273438 c 0,11,12
 744.921875 90.2079482918 744.921875 90.2079482918 710.823278748 56.1093520397 c 0,13,14
 707.917778053 53.2040654727 707.917778053 53.2040654727 704.918183474 50.5492999214 c 128,-1,15
 701.918588895 47.8945343702 701.918588895 47.8945343702 698.831501964 45.4950680181 c 128,-1,16
 695.744415032 43.0956016661 695.744415032 43.0956016661 692.572719346 40.9453921438 c 128,-1,17
 689.401023659 38.7951826215 689.401023659 38.7951826215 686.119812889 36.8752405422 c 0,18,19
 679.567171902 33.0408344158 679.567171902 33.0408344158 672.588662761 30.1324940029 c 128,-1,20
 665.610153619 27.22415359 665.610153619 27.22415359 658.129193196 25.2154355947 c 0,21,22
 643.40761665 21.2631400807 643.40761665 21.2631400807 626.202218815 20.8157867412 c 0,23,24
 575.561288872 22.1271281861 575.561288872 22.1271281861 541.579725484 56.1086915737 c 128,-1,25
 507.481445312 90.2078112946 507.481445312 90.2078112946 507.481445312 139.530273438 c 0,0,1
550.158272158 486.462890625 m 1,26,27
 547.612290214 579.533496943 547.612290214 579.533496943 417.823577266 706.370875324 c 2,28,-1
 316.09828887 805.782848799 l 2,29,30
 147.690510124 968.63326619 147.690510124 968.63326619 148.780968205 1138.32718396 c 0,31,32
 149.702937155 1307.60756756 149.702937155 1307.60756756 273.164679601 1418.5221658 c 0,33,34
 299.264531479 1442.01286254 299.264531479 1442.01286254 330.378519178 1459.66975744 c 0,35,36
 340.777166044 1465.57089157 340.777166044 1465.57089157 351.743962268 1470.82512339 c 128,-1,37
 362.710758491 1476.07935521 362.710758491 1476.07935521 374.302084894 1480.70729719 c 128,-1,38
 385.893411296 1485.33523917 385.893411296 1485.33523917 398.070381664 1489.31537673 c 128,-1,39
 410.269639905 1493.30311067 410.269639905 1493.30311067 423.057651371 1496.63491152 c 128,-1,40
 435.845662837 1499.96671237 435.845662837 1499.96671237 449.289287165 1502.65347698 c 128,-1,41
 462.732911493 1505.34024159 462.732911493 1505.34024159 476.769434764 1507.36318463 c 0,42,43
 519.070792409 1513.45870756 519.070792409 1513.45870756 566.663100918 1513.51563502 c 0,44,45
 619.422377908 1513.46144214 619.422377908 1513.46144214 668.264136364 1502.91417306 c 128,-1,46
 717.105894821 1492.36690399 717.105894821 1492.36690399 761.983167114 1471.35216853 c 128,-1,47
 806.860439408 1450.33743307 806.860439408 1450.33743307 847.809363747 1418.95449729 c 128,-1,48
 888.758288087 1387.57156151 888.758288087 1387.57156151 925.895080642 1345.76232873 c 1,49,-1
 851.954954668 1248.54508851 l 1,50,51
 787.12351469 1310.68187756 787.12351469 1310.68187756 718.047395172 1341.11283655 c 128,-1,52
 648.971275655 1371.54379554 648.971275655 1371.54379554 574.829732451 1370.23668205 c 0,53,54
 521.458621168 1369.35777757 521.458621168 1369.35777757 474.764629558 1352.28970669 c 128,-1,55
 427.941066261 1335.17570267 427.941066261 1335.17570267 388.39084088 1301.97548048 c 0,56,57
 361.359923748 1279.2854914 361.359923748 1279.2854914 343.234370587 1250.11855091 c 128,-1,58
 325.108817427 1220.95161042 325.108817427 1220.95161042 316.174407293 1186.32992304 c 128,-1,59
 307.239997158 1151.70823566 307.239997158 1151.70823566 307.255860877 1111.70579804 c 0,60,61
 307.207637017 990.441658998 307.207637017 990.441658998 442.175049141 865.411863473 c 1,62,-1
 545.919027481 762.82106213 l 2,63,64
 626.31428727 686.086201495 626.31428727 686.086201495 665.911071904 615.798111275 c 0,65,66
 703.941956214 548.292158943 703.941956214 548.292158943 704.450373023 486.462890625 c 1,67,-1
 550.158272158 486.462890625 l 1,26,27
EndSplineSet
EndChar

StartChar: uni0621
Encoding: 1569 1569 9
Width: 925
VWidth: 2673
GlyphClass: 2
Flags: W
AnchorPoint: "Anchor-7" 345.665 -308.938 basechar 0
AnchorPoint: "Anchor-10" 426.889 1241.52 basechar 0
LayerCount: 2
Fore
SplineSet
158.88671875 39.7336394328 m 1,0,-1
 158.88671875 186.295149581 l 1,1,2
 268.571150122 255.695520947 268.571150122 255.695520947 355.439700599 282.631718154 c 2,3,-1
 399.486857043 296.289858942 l 1,4,-1
 358.602203333 317.62391368 l 2,5,6
 326.504023649 334.37309119 326.504023649 334.37309119 299.881674855 352.34361407 c 128,-1,7
 273.259326061 370.314136951 273.259326061 370.314136951 252.264124728 389.389311714 c 128,-1,8
 231.268923396 408.464486476 231.268923396 408.464486476 215.528643612 428.662277039 c 128,-1,9
 199.788363829 448.860067602 199.788363829 448.860067602 189.301629559 470.306284877 c 128,-1,10
 178.814895289 491.752502151 178.814895289 491.752502151 173.372352735 514.206438696 c 128,-1,11
 167.929810181 536.660375241 167.929810181 536.660375241 167.3773907 560.490346368 c 0,12,13
 165.122980542 638.045380627 165.122980542 638.045380627 195.087835789 702.201292909 c 0,14,15
 271.763654544 868.315423497 271.763654544 868.315423497 461.26082368 871.930214014 c 0,16,17
 510.379896652 872.867230422 510.379896652 872.867230422 554.408656999 864.084795922 c 128,-1,18
 598.437417346 855.302361422 598.437417346 855.302361422 637.338370569 836.988434268 c 128,-1,19
 676.239323793 818.674507114 676.239323793 818.674507114 710.86037899 790.651491717 c 1,20,-1
 670.368078708 699.170068891 l 1,21,22
 626.612152125 721.370098718 626.612152125 721.370098718 585.626351395 732.145741718 c 128,-1,23
 544.640550666 742.921384717 544.640550666 742.921384717 503.896682499 742.847482391 c 0,24,25
 414.329561874 741.943752581 414.329561874 741.943752581 369.979588509 713.416922714 c 0,26,27
 330.968228743 687.994383692 330.968228743 687.994383692 309.667983111 653.132187725 c 128,-1,28
 288.367737479 618.269991758 288.367737479 618.269991758 286.26610757 575.527198918 c 0,29,30
 280.372746641 455.714918766 280.372746641 455.714918766 499.546363108 362.240837291 c 2,31,-1
 504.987920078 359.920099295 l 1,32,-1
 749.378765182 409.602657877 l 1,33,-1
 770.214226483 265.357865419 l 1,34,35
 508.296503813 231.274789009 508.296503813 231.274789009 158.88671875 39.7336394328 c 1,0,-1
EndSplineSet
EndChar

StartChar: uni0627
Encoding: 1575 1575 15
Width: 496
VWidth: 2673
GlyphClass: 2
Flags: W
AnchorPoint: "Anchor-10" 250.837 1705.81 basechar 0
AnchorPoint: "Anchor-7" 254.522 -304.576 basechar 0
LayerCount: 2
Fore
SplineSet
193.603515625 1489.34863281 m 1,0,-1
 330.724609375 1489.34863281 l 1,1,-1
 330.724609375 19.6796875 l 1,2,-1
 193.603515625 19.6796875 l 1,3,-1
 193.603515625 1489.34863281 l 1,0,-1
EndSplineSet
Substitution2: "'fina' Terminal Forms in Arabic lookup 9 subtable" uniFE8E
EndChar

StartChar: uni062D
Encoding: 1581 1581 21
Width: 1419
VWidth: 2673
GlyphClass: 2
Flags: W
AnchorPoint: "Anchor-10" 524.446 1400.68 basechar 0
AnchorPoint: "Anchor-7" 407.163 -840.013 basechar 0
LayerCount: 2
Fore
SplineSet
891.159689176 -686.036132674 m 0,0,1
 710.150411028 -686.018319265 710.150411028 -686.018319265 575.540624253 -652.193231491 c 128,-1,2
 440.930837479 -618.368143717 440.930837479 -618.368143717 352.835937953 -551.7562892 c 0,3,4
 178.03631334 -419.574328067 178.03631334 -419.574328067 179.063360443 -151.96584078 c 0,5,6
 180.005135749 117.408017672 180.005135749 117.408017672 359.38983124 291.529025606 c 128,-1,7
 538.77452673 465.65003354 538.77452673 465.65003354 902.398521002 546.063455805 c 2,8,-1
 971.666699081 561.381727815 l 1,9,-1
 916.643506497 584.552688606 l 2,10,11
 875.82169821 601.743267248 875.82169821 601.743267248 741.992247601 648.369949473 c 0,12,13
 696.7975041 663.909239519 696.7975041 663.909239519 657.890203513 674.137389845 c 128,-1,14
 618.982902927 684.365540172 618.982902927 684.365540172 584.999057978 689.480293001 c 128,-1,15
 551.015213028 694.595045831 551.015213028 694.595045831 522.539851533 694.332358705 c 0,16,17
 393.924432064 691.946209861 393.924432064 691.946209861 250.497984425 540.076522781 c 1,18,-1
 147.677346442 614.821215509 l 1,19,-1
 156.500808503 626.685203496 l 2,20,21
 314.481165723 838.917072544 314.481165723 838.917072544 535.143759452 837.003515576 c 0,22,23
 596.30644508 836.523182797 596.30644508 836.523182797 683.399075107 814.05709484 c 128,-1,24
 770.491705133 791.591006882 770.491705133 791.591006882 881.783084776 747.1243127 c 0,25,26
 1141.39458734 643.373981042 1141.39458734 643.373981042 1291.73082243 611.463168855 c 1,27,-1
 1285.72795572 457.950961129 l 1,28,29
 1222.40118304 453.053486965 1222.40118304 453.053486965 1174.43411334 447.963020133 c 128,-1,30
 1126.46704364 442.872553301 1126.46704364 442.872553301 1092.88315273 437.459037153 c 0,31,32
 704.768290537 372.916530319 704.768290537 372.916530319 506.800911438 225.828848798 c 128,-1,33
 308.833532338 78.7411672777 308.833532338 78.7411672777 308.652371937 -152.248522513 c 0,34,35
 308.30978037 -351.140364 308.30978037 -351.140364 457.437436757 -450.33291649 c 128,-1,36
 606.565093143 -549.525468981 606.565093143 -549.525468981 895.424945018 -549.035156002 c 0,37,38
 999.071917207 -549.018408735 999.071917207 -549.018408735 1094.68930329 -535.410965423 c 128,-1,39
 1190.30668938 -521.803522111 1190.30668938 -521.803522111 1275.86636259 -494.999175332 c 1,40,-1
 1302.75752006 -628.364553968 l 1,41,42
 1212.67501117 -657.173813105 1212.67501117 -657.173813105 1109.87411904 -671.596419784 c 128,-1,43
 1007.07322691 -686.019026463 1007.07322691 -686.019026463 891.159689176 -686.036132674 c 0,0,1
EndSplineSet
Substitution2: "'fina' Terminal Forms in Arabic lookup 9 subtable" uniFEA2
Substitution2: "'medi' Medial Forms in Arabic lookup 11 subtable" uniFEA4
Substitution2: "'init' Initial Forms in Arabic lookup 13 subtable" uniFEA3
EndChar

StartChar: uni062F
Encoding: 1583 1583 23
Width: 1038
VWidth: 2673
GlyphClass: 2
Flags: W
AnchorPoint: "Anchor-10" 298.082 1358.53 basechar 0
AnchorPoint: "Anchor-7" 383.259 -318.766 basechar 0
LayerCount: 2
Fore
SplineSet
124.361328125 192.339120391 m 1,0,1
 194.1532944 182.122787404 194.1532944 182.122787404 256.876843369 176.977045858 c 128,-1,2
 319.600392339 171.831304313 319.600392339 171.831304313 376.374464943 171.680670855 c 0,3,4
 569.380207941 171.843877635 569.380207941 171.843877635 671.020445147 215.791343557 c 128,-1,5
 772.660682354 259.738809478 772.660682354 259.738809478 772.196261504 353.784313645 c 0,6,7
 772.088927521 416.803779767 772.088927521 416.803779767 731.953321137 485.498938154 c 128,-1,8
 691.817714754 554.194096542 691.817714754 554.194096542 613.177974552 629.816195909 c 0,9,10
 509.821237653 732.477363542 509.821237653 732.477363542 352.705430802 846.208071901 c 1,11,-1
 436.318228474 969.139135634 l 1,12,13
 985.848008354 588.916309411 985.848008354 588.916309411 898.442481959 261.080821406 c 0,14,15
 894.205000547 246.59894562 894.205000547 246.59894562 888.511841328 232.576741118 c 128,-1,16
 882.818682109 218.554536617 882.818682109 218.554536617 875.736398042 205.167748188 c 128,-1,17
 868.654113975 191.780959758 868.654113975 191.780959758 860.30026502 179.271385912 c 0,18,19
 752.930782179 21.0011858657 752.930782179 21.0011858657 390.248884047 21.0439446487 c 0,20,21
 236.652780823 21.003345129 236.652780823 21.003345129 124.361328125 40.1766661612 c 1,22,-1
 124.361328125 192.339120391 l 1,0,1
EndSplineSet
Substitution2: "'fina' Terminal Forms in Arabic lookup 9 subtable" uniFEAA
EndChar

StartChar: uni0631
Encoding: 1585 1585 25
Width: 862
VWidth: 2673
GlyphClass: 2
Flags: W
AnchorPoint: "Anchor-10" 492.563 1126.99 basechar 0
AnchorPoint: "Anchor-7" 283.748 -792.335 basechar 0
LayerCount: 2
Fore
SplineSet
513.339223537 462.34661706 m 1,0,-1
 648.243728642 526.987209743 l 1,1,2
 744.867088929 345.502808266 744.867088929 345.502808266 742.877704476 127.216821295 c 0,3,4
 741.05157599 -78.116220105 741.05157599 -78.116220105 645.151749333 -220.333151896 c 0,5,6
 612.651288684 -268.930082569 612.651288684 -268.930082569 569.320010262 -309.610339802 c 128,-1,7
 525.988731841 -350.290597035 525.988731841 -350.290597035 471.454722355 -383.219415755 c 128,-1,8
 416.920712868 -416.148234475 416.920712868 -416.148234475 351.42880115 -441.045773771 c 128,-1,9
 285.936889432 -465.943313068 285.936889432 -465.943313068 208.980643124 -482.884555096 c 128,-1,10
 132.024396815 -499.825797125 132.024396815 -499.825797125 43.983163815 -508.621153747 c 1,11,-1
 19.6915384516 -373.827047634 l 1,12,13
 396.49309919 -334.437937525 396.49309919 -334.437937525 539.316871881 -129.028035533 c 0,14,15
 608.03361806 -30.9454486085 608.03361806 -30.9454486085 607.23338363 111.080362071 c 0,16,17
 607.176538096 156.611493907 607.176538096 156.611493907 601.196240322 201.565899885 c 128,-1,18
 595.215942547 246.520305862 595.215942547 246.520305862 583.409160793 290.486456961 c 128,-1,19
 571.602379038 334.452608061 571.602379038 334.452608061 554.074566216 377.443105508 c 128,-1,20
 536.546753394 420.433602956 536.546753394 420.433602956 513.339223537 462.34661706 c 1,0,-1
EndSplineSet
PairPos2: "'kern' Horizontal Kerning lookup 15-2" uniFBFE dx=53 dy=0 dh=53 dv=0 dx=0 dy=0 dh=0 dv=0
PairPos2: "'kern' Horizontal Kerning lookup 15-1" uniFEE7 dx=-160 dy=0 dh=-160 dv=0 dx=0 dy=0 dh=0 dv=0
PairPos2: "'kern' Horizontal Kerning lookup 15-2" uniFB90 dx=-202 dy=0 dh=-202 dv=0 dx=0 dy=0 dh=0 dv=0
PairPos2: "'kern' Horizontal Kerning lookup 15-2" uniFB8E dx=-202 dy=0 dh=-202 dv=0 dx=0 dy=0 dh=0 dv=0
PairPos2: "'kern' Horizontal Kerning lookup 15-2" uni06A9 dx=-202 dy=0 dh=-202 dv=0 dx=0 dy=0 dh=0 dv=0
PairPos2: "'kern' Horizontal Kerning lookup 15-2" uni064A dx=-53 dy=0 dh=-53 dv=0 dx=0 dy=0 dh=0 dv=0
PairPos2: "'kern' Horizontal Kerning lookup 15-2" afii57414 dx=-53 dy=0 dh=-53 dv=0 dx=0 dy=0 dh=0 dv=0
PairPos2: "'kern' Horizontal Kerning lookup 15-2" uni0649 dx=-53 dy=0 dh=-53 dv=0 dx=0 dy=0 dh=0 dv=0
PairPos2: "'kern' Horizontal Kerning lookup 15-2" uniFEEB dx=-160 dy=0 dh=-160 dv=0 dx=0 dy=0 dh=0 dv=0
PairPos2: "'kern' Horizontal Kerning lookup 15-2" uni0647 dx=-160 dy=0 dh=-160 dv=0 dx=0 dy=0 dh=0 dv=0
PairPos2: "'kern' Horizontal Kerning lookup 15-2" uni0646 dx=-53 dy=0 dh=-53 dv=0 dx=0 dy=0 dh=0 dv=0
PairPos2: "'kern' Horizontal Kerning lookup 15-2" uniFEE3 dx=-160 dy=0 dh=-160 dv=0 dx=0 dy=0 dh=0 dv=0
PairPos2: "'kern' Horizontal Kerning lookup 15-2" uni0645 dx=-160 dy=0 dh=-160 dv=0 dx=0 dy=0 dh=0 dv=0
PairPos2: "'kern' Horizontal Kerning lookup 15-2" uniFEFB dx=-128 dy=0 dh=-128 dv=0 dx=0 dy=0 dh=0 dv=0
PairPos2: "'kern' Horizontal Kerning lookup 15-2" uniFEDF dx=-128 dy=0 dh=-128 dv=0 dx=0 dy=0 dh=0 dv=0
PairPos2: "'kern' Horizontal Kerning lookup 15-2" uni0644 dx=-53 dy=0 dh=-53 dv=0 dx=0 dy=0 dh=0 dv=0
PairPos2: "'kern' Horizontal Kerning lookup 15-2" uniFEDB dx=-202 dy=0 dh=-202 dv=0 dx=0 dy=0 dh=0 dv=0
PairPos2: "'kern' Horizontal Kerning lookup 15-2" uni0643 dx=-128 dy=0 dh=-128 dv=0 dx=0 dy=0 dh=0 dv=0
PairPos2: "'kern' Horizontal Kerning lookup 15-2" uniFED7 dx=-160 dy=0 dh=-160 dv=0 dx=0 dy=0 dh=0 dv=0
PairPos2: "'kern' Horizontal Kerning lookup 15-2" uni0642 dx=-53 dy=0 dh=-53 dv=0 dx=0 dy=0 dh=0 dv=0
PairPos2: "'kern' Horizontal Kerning lookup 15-2" uniFED3 dx=-160 dy=0 dh=-160 dv=0 dx=0 dy=0 dh=0 dv=0
PairPos2: "'kern' Horizontal Kerning lookup 15-2" uni0641 dx=-160 dy=0 dh=-160 dv=0 dx=0 dy=0 dh=0 dv=0
PairPos2: "'kern' Horizontal Kerning lookup 15-2" uniFECF dx=-160 dy=0 dh=-160 dv=0 dx=0 dy=0 dh=0 dv=0
PairPos2: "'kern' Horizontal Kerning lookup 15-2" uniFECB dx=-160 dy=0 dh=-160 dv=0 dx=0 dy=0 dh=0 dv=0
PairPos2: "'kern' Horizontal Kerning lookup 15-2" uniFEC7 dx=-160 dy=0 dh=-160 dv=0 dx=0 dy=0 dh=0 dv=0
PairPos2: "'kern' Horizontal Kerning lookup 15-2" uni0638 dx=-160 dy=0 dh=-160 dv=0 dx=0 dy=0 dh=0 dv=0
PairPos2: "'kern' Horizontal Kerning lookup 15-2" uniFEC3 dx=-160 dy=0 dh=-160 dv=0 dx=0 dy=0 dh=0 dv=0
PairPos2: "'kern' Horizontal Kerning lookup 15-2" uni0637 dx=-160 dy=0 dh=-160 dv=0 dx=0 dy=0 dh=0 dv=0
PairPos2: "'kern' Horizontal Kerning lookup 15-2" uniFEBF dx=-160 dy=0 dh=-160 dv=0 dx=0 dy=0 dh=0 dv=0
PairPos2: "'kern' Horizontal Kerning lookup 15-2" uni0636 dx=-160 dy=0 dh=-160 dv=0 dx=0 dy=0 dh=0 dv=0
PairPos2: "'kern' Horizontal Kerning lookup 15-2" uniFEBB dx=-160 dy=0 dh=-160 dv=0 dx=0 dy=0 dh=0 dv=0
PairPos2: "'kern' Horizontal Kerning lookup 15-2" uni0635 dx=-160 dy=0 dh=-160 dv=0 dx=0 dy=0 dh=0 dv=0
PairPos2: "'kern' Horizontal Kerning lookup 15-2" uniFEB7 dx=-160 dy=0 dh=-160 dv=0 dx=0 dy=0 dh=0 dv=0
PairPos2: "'kern' Horizontal Kerning lookup 15-2" uni0634 dx=-160 dy=0 dh=-160 dv=0 dx=0 dy=0 dh=0 dv=0
PairPos2: "'kern' Horizontal Kerning lookup 15-2" uniFEB3 dx=-160 dy=0 dh=-160 dv=0 dx=0 dy=0 dh=0 dv=0
PairPos2: "'kern' Horizontal Kerning lookup 15-2" uni0633 dx=-160 dy=0 dh=-160 dv=0 dx=0 dy=0 dh=0 dv=0
PairPos2: "'kern' Horizontal Kerning lookup 15-2" uni0630 dx=-160 dy=0 dh=-160 dv=0 dx=0 dy=0 dh=0 dv=0
PairPos2: "'kern' Horizontal Kerning lookup 15-2" uni062F dx=-160 dy=0 dh=-160 dv=0 dx=0 dy=0 dh=0 dv=0
PairPos2: "'kern' Horizontal Kerning lookup 15-2" uniFEA7 dx=-160 dy=0 dh=-160 dv=0 dx=0 dy=0 dh=0 dv=0
PairPos2: "'kern' Horizontal Kerning lookup 15-2" uniFEA3 dx=-160 dy=0 dh=-160 dv=0 dx=0 dy=0 dh=0 dv=0
PairPos2: "'kern' Horizontal Kerning lookup 15-2" uniFE9F dx=-160 dy=0 dh=-160 dv=0 dx=0 dy=0 dh=0 dv=0
PairPos2: "'kern' Horizontal Kerning lookup 15-2" uniFE9B dx=-160 dy=0 dh=-160 dv=0 dx=0 dy=0 dh=0 dv=0
PairPos2: "'kern' Horizontal Kerning lookup 15-2" uni062B dx=-160 dy=0 dh=-160 dv=0 dx=0 dy=0 dh=0 dv=0
PairPos2: "'kern' Horizontal Kerning lookup 15-2" uniFE97 dx=-160 dy=0 dh=-160 dv=0 dx=0 dy=0 dh=0 dv=0
PairPos2: "'kern' Horizontal Kerning lookup 15-2" uni062A dx=-160 dy=0 dh=-160 dv=0 dx=0 dy=0 dh=0 dv=0
PairPos2: "'kern' Horizontal Kerning lookup 15-2" uni0629 dx=-160 dy=0 dh=-160 dv=0 dx=0 dy=0 dh=0 dv=0
PairPos2: "'kern' Horizontal Kerning lookup 15-2" uniFE91 dx=-53 dy=0 dh=-53 dv=0 dx=0 dy=0 dh=0 dv=0
PairPos2: "'kern' Horizontal Kerning lookup 15-2" uni0628 dx=-160 dy=0 dh=-160 dv=0 dx=0 dy=0 dh=0 dv=0
PairPos2: "'kern' Horizontal Kerning lookup 15-2" uni0627 dx=-128 dy=0 dh=-128 dv=0 dx=0 dy=0 dh=0 dv=0
PairPos2: "'kern' Horizontal Kerning lookup 15-2" uni0623 dx=-128 dy=0 dh=-128 dv=0 dx=0 dy=0 dh=0 dv=0
PairPos2: "'kern' Horizontal Kerning lookup 15-2" uni0622 dx=-128 dy=0 dh=-128 dv=0 dx=0 dy=0 dh=0 dv=0
PairPos2: "'kern' Horizontal Kerning lookup 15-2" uni0621 dx=-160 dy=0 dh=-160 dv=0 dx=0 dy=0 dh=0 dv=0
PairPos2: "'kern' Horizontal Kerning lookup 15-2" uniFB94 dx=-202 dy=0 dh=-202 dv=0 dx=0 dy=0 dh=0 dv=0
PairPos2: "'kern' Horizontal Kerning lookup 15-2" uniFB92 dx=-202 dy=0 dh=-202 dv=0 dx=0 dy=0 dh=0 dv=0
PairPos2: "'kern' Horizontal Kerning lookup 15-2" uni06AF dx=-202 dy=0 dh=-202 dv=0 dx=0 dy=0 dh=0 dv=0
PairPos2: "'kern' Horizontal Kerning lookup 15-2" afii57506 dx=-160 dy=0 dh=-160 dv=0 dx=0 dy=0 dh=0 dv=0
PairPos2: "'kern' Horizontal Kerning lookup 15-2" afii57440 dx=-160 dy=0 dh=-160 dv=0 dx=0 dy=0 dh=0 dv=0
PairPos2: "'kern' Horizontal Kerning lookup 15-2" uniFE8B dx=-160 dy=0 dh=-160 dv=0 dx=0 dy=0 dh=0 dv=0
Substitution2: "'fina' Terminal Forms in Arabic lookup 9 subtable" uniFEAE
EndChar

StartChar: uni0633
Encoding: 1587 1587 27
Width: 2513
VWidth: 2673
GlyphClass: 2
Flags: W
AnchorPoint: "Anchor-10" 609.451 1031.79 basechar 0
AnchorPoint: "Anchor-7" 356.423 -828.19 basechar 0
LayerCount: 2
Fore
SplineSet
713.215151943 -338.681596561 m 0,0,1
 719.827981856 -338.700642405 719.827981856 -338.700642405 726.359658722 -338.633914908 c 0,2,3
 954.954905862 -336.29858987 954.954905862 -336.29858987 1071.39099401 -226.660726953 c 128,-1,4
 1187.82708215 -117.022864036 1187.82708215 -117.022864036 1185.56467746 95.252076111 c 0,5,6
 1184.80000554 181.182977895 1184.80000554 181.182977895 1166.02055023 277.901898267 c 128,-1,7
 1147.24109493 374.620818639 1147.24109493 374.620818639 1110.97643746 480.760297579 c 1,8,-1
 1239.51357062 525.668378308 l 1,9,-1
 1297.90176949 338.302255998 l 2,10,11
 1314.91961414 283.672164315 1314.91961414 283.672164315 1345.94147223 246.040198597 c 128,-1,12
 1376.96333032 208.40823288 1376.96333032 208.40823288 1421.25002269 188.69916352 c 128,-1,13
 1465.53671505 168.99009416 1465.53671505 168.99009416 1521.91399116 167.876158001 c 0,14,15
 1578.86346347 166.845439538 1578.86346347 166.845439538 1620.31221081 185.712721378 c 128,-1,16
 1661.76095814 204.580003219 1661.76095814 204.580003219 1686.00706597 242.598370873 c 128,-1,17
 1710.25317379 280.616738527 1710.25317379 280.616738527 1715.97338218 336.18933298 c 2,18,-1
 1738.70522305 557.032226562 l 1,19,-1
 1832.7598372 557.032226562 l 1,20,-1
 1855.29665669 345.309127872 l 2,21,22
 1864.36038915 258.327527939 1864.36038915 258.327527939 1915.38399883 212.966353007 c 128,-1,23
 1966.4076085 167.605178075 1966.4076085 167.605178075 2054.29698937 168.311239428 c 0,24,25
 2058.08441865 168.343578026 2058.08441865 168.343578026 2061.79834972 168.48807526 c 128,-1,26
 2065.5122808 168.632572494 2065.5122808 168.632572494 2069.17648039 168.891364468 c 128,-1,27
 2072.84067999 169.150156442 2072.84067999 169.150156442 2076.4314834 169.522804319 c 0,28,29
 2271.03052734 189.717984148 2271.03052734 189.717984148 2235.57368737 523.751258177 c 0,30,31
 2226.95250129 605.025419868 2226.95250129 605.025419868 2206.08481523 674.550488338 c 1,32,-1
 2347.17102798 706.13140227 l 1,33,34
 2383.93776051 579.647569465 2383.93776051 579.647569465 2383.25691205 444.099676183 c 0,35,36
 2382.64355394 227.397444503 2382.64355394 227.397444503 2301.07644654 123.198722251 c 128,-1,37
 2219.50933915 19 2219.50933915 19 2054.734375 19 c 0,38,39
 1994.04917124 19 1994.04917124 19 1946.20625295 33.2354284964 c 128,-1,40
 1898.36333466 47.4708569927 1898.36333466 47.4708569927 1863.13508861 75.5410223377 c 128,-1,41
 1827.90684255 103.611187683 1827.90684255 103.611187683 1803.7688408 146.033928147 c 2,42,-1
 1787.09470344 175.338864361 l 1,43,-1
 1770.66371222 145.896910099 l 2,44,45
 1698.71865005 19.5229651976 1698.71865005 19.5229651976 1536.41023678 18.9550768661 c 0,46,47
 1420.91949925 18.9971183644 1420.91949925 18.9971183644 1354.05261764 86.4256035365 c 2,48,-1
 1321.72272757 119.027026855 l 1,49,-1
 1321.56164038 73.1135359685 l 2,50,51
 1321.01510948 -82.6601269709 1321.01510948 -82.6601269709 1260.55059076 -209.119987657 c 0,52,53
 1131.97112857 -480.993587153 1131.97112857 -480.993587153 704.742461913 -480.765626495 c 0,54,55
 239.922428159 -480.95003986 239.922428159 -480.95003986 151.966804779 -138.673727223 c 0,56,57
 131.163751039 -56.6331224053 131.163751039 -56.6331224053 130.609295644 44.214093516 c 0,58,59
 130.034498098 243.091280818 130.034498098 243.091280818 228.234413932 457.563374399 c 1,60,-1
 349.369396596 408.863111965 l 1,61,62
 268.015749104 199.213461803 268.015749104 199.213461803 268.868478728 51.3027603257 c 0,63,64
 269.977787888 -141.442628061 269.977787888 -141.442628061 382.833427933 -239.886953564 c 128,-1,65
 495.689067978 -338.331279068 495.689067978 -338.331279068 713.215151943 -338.681596561 c 0,0,1
EndSplineSet
Substitution2: "'fina' Terminal Forms in Arabic lookup 9 subtable" uniFEB2
Substitution2: "'medi' Medial Forms in Arabic lookup 11 subtable" uniFEB4
Substitution2: "'init' Initial Forms in Arabic lookup 13 subtable" uniFEB3
EndChar

StartChar: uni0635
Encoding: 1589 1589 29
Width: 2610
VWidth: 2673
GlyphClass: 2
Flags: W
AnchorPoint: "Anchor-7" 435.981 -783.72 basechar 0
AnchorPoint: "Anchor-10" 571.394 1031.79 basechar 0
LayerCount: 2
Fore
SplineSet
713.215388967 -338.681596943 m 0,0,1
 724.841936838 -338.714792888 724.841936838 -338.714792888 736.192603654 -338.487683509 c 0,2,3
 961.908298624 -333.971459732 961.908298624 -333.971459732 1075.8644359 -224.302607868 c 128,-1,4
 1189.82057317 -114.633756003 1189.82057317 -114.633756003 1185.56179849 95.4544541529 c 0,5,6
 1184.98837604 124.780208908 1184.98837604 124.780208908 1183.0482297 155.742248062 c 0,7,8
 1181.97879048 171.357860558 1181.97879048 171.357860558 1180.21785708 187.369412877 c 128,-1,9
 1178.45692369 203.380965196 1178.45692369 203.380965196 1176.0547501 219.405803611 c 0,10,11
 1174.63445721 230.207685649 1174.63445721 230.207685649 1172.88104978 241.249379675 c 128,-1,12
 1171.12764235 252.291073702 1171.12764235 252.291073702 1169.0580832 263.455206834 c 128,-1,13
 1166.98852406 274.619339965 1166.98852406 274.619339965 1164.6401291 285.690769295 c 0,14,15
 1162.85843953 294.08984584 1162.85843953 294.08984584 1160.99377691 302.543244873 c 128,-1,16
 1159.1291143 310.996643906 1159.1291143 310.996643906 1157.17598724 319.528666504 c 128,-1,17
 1155.22286017 328.060689103 1155.22286017 328.060689103 1153.18116147 336.671403988 c 128,-1,18
 1151.13946277 345.282118873 1151.13946277 345.282118873 1149.00451103 353.991664518 c 0,19,20
 1140.30262369 389.133710982 1140.30262369 389.133710982 1128.95072171 425.294077537 c 0,21,22
 1120.78069041 452.015641818 1120.78069041 452.015641818 1110.97021798 480.758124628 c 1,23,-1
 1239.51355495 525.668372834 l 1,24,-1
 1297.87657698 338.383014564 l 2,25,26
 1315.00682389 282.614334438 1315.00682389 282.614334438 1341.40554969 251.97741498 c 0,27,28
 1355.13331395 235.776278804 1355.13331395 235.776278804 1372.53961392 226.702743316 c 128,-1,29
 1389.94591388 217.629207827 1389.94591388 217.629207827 1409.67436663 216.906297615 c 2,30,-1
 1423.92211938 216.384216836 l 1,31,-1
 1430.7296073 228.915162924 l 2,32,33
 1753.21313255 822.833372596 1753.21313255 822.833372596 2150.23005803 817.006081843 c 0,34,35
 2245.59469128 815.562798276 2245.59469128 815.562798276 2315.09986302 781.255790724 c 128,-1,36
 2384.60503476 746.948783171 2384.60503476 746.948783171 2430.72213329 679.217633109 c 0,37,38
 2482.97676764 603.137322474 2482.97676764 603.137322474 2482.55185535 495.250335742 c 0,39,40
 2482.02200966 329.899090019 2482.02200966 329.899090019 2388.87918533 217.995038154 c 0,41,42
 2303.07488859 114.587795525 2303.07488859 114.587795525 2125.72953527 62.311843313 c 0,43,44
 2053.70664065 40.8719930698 2053.70664065 40.8719930698 1942.6539803 29.9359965349 c 128,-1,45
 1831.60131995 19 1831.60131995 19 1683.04199219 19 c 2,46,-1
 1609.11230469 19 l 2,47,48
 1437.72176489 19 1437.72176489 19 1359.1157366 81.1193207348 c 2,49,-1
 1321.72185897 110.89529861 l 1,50,-1
 1321.51964467 63.4240484772 l 2,51,52
 1321.01488169 -82.6602406558 1321.01488169 -82.6602406558 1260.58191766 -209.053851372 c 0,53,54
 1131.0095241 -480.99359305 1131.0095241 -480.99359305 704.742461913 -480.765626495 c 0,55,56
 239.922428159 -480.95003986 239.922428159 -480.95003986 151.966804779 -138.673727223 c 0,57,58
 131.163751039 -56.6331224053 131.163751039 -56.6331224053 130.609295644 44.214093516 c 0,59,60
 130.034498098 243.091280818 130.034498098 243.091280818 228.234413932 457.563374399 c 1,61,-1
 349.369396596 408.863111965 l 1,62,63
 268.015749104 199.213461803 268.015749104 199.213461803 268.868478728 51.3027603257 c 0,64,65
 269.423135741 -45.0703566098 269.423135741 -45.0703566098 298.265993211 -118.272637081 c 128,-1,66
 327.108850682 -191.474917551 327.108850682 -191.474917551 383.17642716 -240.236174986 c 128,-1,67
 439.244003637 -288.997432421 439.244003637 -288.997432421 522.021125278 -313.752213838 c 128,-1,68
 604.798246918 -338.506995255 604.798246918 -338.506995255 713.215388967 -338.681596943 c 0,0,1
1542.14475508 170.379882812 m 1,69,-1
 1707.44034702 170.379893969 l 2,70,71
 2063.20352579 169.994349728 2063.20352579 169.994349728 2202.15513148 252.45503482 c 0,72,73
 2248.95587256 279.989657484 2248.95587256 279.989657484 2281.27493014 314.172537676 c 0,74,75
 2313.23542162 348.559313291 2313.23542162 348.559313291 2330.2252425 389.415030068 c 0,76,77
 2338.60335363 409.809691475 2338.60335363 409.809691475 2342.78657264 431.817536326 c 128,-1,78
 2346.96979166 453.825381177 2346.96979166 453.825381177 2346.93453882 477.02595642 c 0,79,80
 2347.00729028 516.98713524 2347.00729028 516.98713524 2332.357601 550.204734791 c 0,81,82
 2325.04986852 566.800661284 2325.04986852 566.800661284 2314.3100939 581.772212106 c 128,-1,83
 2303.57031928 596.743762929 2303.57031928 596.743762929 2289.23053844 610.402201305 c 0,84,85
 2231.29234622 663.045741102 2231.29234622 663.045741102 2129.80409016 662.413297306 c 0,86,87
 1850.48643334 659.906405363 1850.48643334 659.906405363 1564.35305958 205.638022852 c 2,88,-1
 1542.14475508 170.379882812 l 1,69,-1
EndSplineSet
Substitution2: "'fina' Terminal Forms in Arabic lookup 9 subtable" uniFEBA
Substitution2: "'medi' Medial Forms in Arabic lookup 11 subtable" uniFEBC
Substitution2: "'init' Initial Forms in Arabic lookup 13 subtable" uniFEBB
EndChar

StartChar: uni0637
Encoding: 1591 1591 31
Width: 1523
VWidth: 2673
GlyphClass: 2
Flags: W
AnchorPoint: "Anchor-10" 419.04 1663.92 basechar 0
AnchorPoint: "Anchor-7" 712.505 -364.215 basechar 0
LayerCount: 2
Fore
SplineSet
453.071512914 170.379882812 m 1,0,-1
 618.365713249 170.379894423 l 2,1,2
 964.429075282 169.997302916 964.429075282 169.997302916 1123.01293885 262.41523269 c 0,3,4
 1258.01210548 341.088706907 1258.01210548 341.088706907 1257.86031475 477.023144342 c 0,5,6
 1258.01622424 556.222987322 1258.01622424 556.222987322 1200.10224874 610.452084023 c 0,7,8
 1142.30002324 663.04575258 1142.30002324 663.04575258 1040.73080153 662.413296889 c 0,9,10
 761.412758395 659.905718661 761.412758395 659.905718661 475.27981739 205.638022846 c 2,11,-1
 453.071512914 170.379882812 l 1,0,-1
593.96875 19 m 2,12,-1
 124.447265625 19 l 1,13,-1
 124.447265625 168.214106325 l 1,14,-1
 309.59065454 168.349710307 l 1,15,-1
 316.276811101 179.592571774 l 2,16,17
 351.976997354 239.693299691 351.976997354 239.693299691 376.692648336 273.481784579 c 2,18,-1
 381.12890625 279.546542233 l 1,19,-1
 381.12890625 1490.00292969 l 1,20,-1
 518.249023438 1490.00292969 l 1,21,-1
 518.249023438 490.142573293 l 1,22,-1
 571.411317358 551.547197822 l 2,23,24
 801.671106385 817.000126157 801.671106385 817.000126157 1061.50743285 817.003906254 c 0,25,26
 1124.09136673 817.002655726 1124.09136673 817.002655726 1175.80118493 801.700142142 c 128,-1,27
 1227.51100313 786.397628559 1227.51100313 786.397628559 1268.73315477 755.876216326 c 128,-1,28
 1309.95530641 725.354804093 1309.95530641 725.354804093 1341.66333712 679.196262647 c 0,29,30
 1367.76997351 641.236376349 1367.76997351 641.236376349 1380.74876873 595.407687096 c 128,-1,31
 1393.72756394 549.578997842 1393.72756394 549.578997842 1393.47899797 495.324588199 c 0,32,33
 1393.01591787 453.541531544 1393.01591787 453.541531544 1387.21875704 415.433224454 c 0,34,35
 1384.35071158 396.524090654 1384.35071158 396.524090654 1379.82394158 378.389630329 c 128,-1,36
 1375.29717157 360.255170005 1375.29717157 360.255170005 1369.11570292 342.885331408 c 128,-1,37
 1362.87895924 325.38874961 1362.87895924 325.38874961 1355.32706569 308.701751847 c 128,-1,38
 1347.77517214 292.014754084 1347.77517214 292.014754084 1338.95517254 276.226912866 c 0,39,40
 1333.0817889 265.786546703 1333.0817889 265.786546703 1326.47119617 255.627066295 c 128,-1,41
 1319.86060344 245.467585887 1319.86060344 245.467585887 1312.48159051 235.548545273 c 128,-1,42
 1305.10257758 225.62950466 1305.10257758 225.62950466 1296.9682739 215.975081945 c 0,43,44
 1131.1583247 19 1131.1583247 19 593.96875 19 c 2,12,-1
EndSplineSet
Substitution2: "'fina' Terminal Forms in Arabic lookup 9 subtable" uniFEC2
Substitution2: "'medi' Medial Forms in Arabic lookup 11 subtable" uniFEC4
Substitution2: "'init' Initial Forms in Arabic lookup 13 subtable" uniFEC3
EndChar

StartChar: uni0639
Encoding: 1593 1593 33
Width: 1345
VWidth: 2673
GlyphClass: 2
Flags: W
AnchorPoint: "Anchor-10" 512.941 1514.83 basechar 0
AnchorPoint: "Anchor-7" 398.943 -932.565 basechar 0
LayerCount: 2
Fore
SplineSet
1020.36684471 798.636398762 m 1,0,1
 857.951673883 892.005879633 857.951673883 892.005879633 731.779438282 892.363354341 c 0,2,3
 586.871884995 891.969851141 586.871884995 891.969851141 526.652883089 784.932217825 c 0,4,5
 467.01600904 678.648318346 467.01600904 678.648318346 535.190247726 565.769014256 c 0,6,7
 565.843056818 515.016307403 565.843056818 515.016307403 594.950570369 479.232096361 c 128,-1,8
 624.05808392 443.447885318 624.05808392 443.447885318 652.666912208 421.981261751 c 2,9,-1
 659.187649492 417.088428978 l 1,10,-1
 667.226662504 418.442717379 l 2,11,12
 930.681695172 462.825540784 930.681695172 462.825540784 1152.17934482 439.109551062 c 1,13,-1
 1135.30427771 299.325432924 l 1,14,15
 866.273015606 308.634652951 866.273015606 308.634652951 697.901830442 265.548600574 c 0,16,17
 484.69002293 209.826440818 484.69002293 209.826440818 375.355711767 99.6932208067 c 128,-1,18
 266.021400604 -10.4399992044 266.021400604 -10.4399992044 266.044922025 -173.594291586 c 0,19,20
 266.0212116 -362.237009114 266.0212116 -362.237009114 415.231989426 -455.881089661 c 128,-1,21
 564.442767252 -549.525170209 564.442767252 -549.525170209 852.817753299 -549.035155769 c 0,22,23
 877.922241766 -549.029504963 877.922241766 -549.029504963 903.803532248 -547.764573389 c 128,-1,24
 929.68482273 -546.499641815 929.68482273 -546.499641815 956.237987858 -543.984012617 c 128,-1,25
 982.791152986 -541.468383419 982.791152986 -541.468383419 1010.05425412 -537.716529694 c 128,-1,26
 1037.31735526 -533.964675969 1037.31735526 -533.964675969 1065.27024207 -528.974608087 c 128,-1,27
 1093.22312888 -523.984540205 1093.22312888 -523.984540205 1121.81343389 -517.782008889 c 128,-1,28
 1150.40373891 -511.579477574 1150.40373891 -511.579477574 1179.69608882 -504.151920421 c 1,29,-1
 1206.73113797 -638.231057491 l 1,30,31
 1120.36644291 -662.340296441 1120.36644291 -662.340296441 1031.52328158 -674.179688395 c 128,-1,32
 942.68012025 -686.019080348 942.68012025 -686.019080348 848.55269626 -686.036132835 c 0,33,34
 487.794267066 -686.018314251 487.794267066 -686.018314251 312.014698705 -558.122474437 c 128,-1,35
 136.235130345 -430.226634623 136.235130345 -430.226634623 136.455057088 -173.216750265 c 0,36,37
 136.98185146 180.790011456 136.98185146 180.790011456 507.274426781 350.192917102 c 2,38,-1
 530.465998918 360.802688857 l 1,39,-1
 477.305932993 421.503610726 l 2,40,41
 370.988111671 543.146523411 370.988111671 543.146523411 370.753687797 684.875290456 c 0,42,43
 370.036548618 834.423890556 370.036548618 834.423890556 471.349304371 940.524676747 c 0,44,45
 501.516186704 972.557132946 501.516186704 972.557132946 539.762766393 993.631207969 c 128,-1,46
 578.009346081 1014.70528299 578.009346081 1014.70528299 625.491832701 1025.03654198 c 128,-1,47
 672.974319321 1035.36780096 672.974319321 1035.36780096 729.51823037 1034.59292135 c 0,48,49
 892.024025354 1032.17601433 892.024025354 1032.17601433 1070.01615174 913.180009541 c 1,50,-1
 1020.36684471 798.636398762 l 1,0,1
EndSplineSet
Substitution2: "'fina' Terminal Forms in Arabic lookup 9 subtable" uniFECA
Substitution2: "'medi' Medial Forms in Arabic lookup 11 subtable" uniFECC
Substitution2: "'init' Initial Forms in Arabic lookup 13 subtable" uniFECB
EndChar

StartChar: afii57440
Encoding: 1600 1600 35
Width: 260
VWidth: 2673
GlyphClass: 2
Flags: W
AnchorPoint: "Anchor-10" 121.789 1436.09 basechar 0
AnchorPoint: "Anchor-7" 115.397 -189.445 basechar 0
LayerCount: 2
Fore
SplineSet
-6.26953125 19 m 2,0,1
 -36.2602889049 19 -36.2602889049 19 -49.2380546087 33.6136763487 c 128,-1,2
 -62.2158203125 48.2273526974 -62.2158203125 48.2273526974 -62.2158203125 84.4111328125 c 2,3,-1
 -62.2158203125 101.455078125 l 2,4,5
 -62.2158203125 138.840549777 -62.2158203125 138.840549777 -49.1264825585 153.918810045 c 128,-1,6
 -36.0371448046 168.997070312 -36.0371448046 168.997070312 -6.26953125 168.997070312 c 2,7,-1
 262.397527421 168.997070312 l 1,8,9
 270.051757812 152.675290193 270.051757812 152.675290193 270.051757812 101.455078125 c 2,10,-1
 270.051775816 84.4431481266 l 2,11,12
 270.028749419 67.7165025778 270.028749419 67.7165025778 268.780999416 53.3774180029 c 128,-1,13
 267.533249413 39.0383334279 267.533249413 39.0383334279 265.891224496 30.8774190728 c 128,-1,14
 264.24919958 22.7165047177 264.24919958 22.7165047177 262.472437009 19 c 2,15,-1
 -6.26953125 19 l 2,0,1
EndSplineSet
EndChar

StartChar: uni0643
Encoding: 1603 1603 38
Width: 1944
VWidth: 2673
GlyphClass: 2
Flags: W
AnchorPoint: "Anchor-10" 608.784 1516.53 basechar 0
AnchorPoint: "Anchor-7" 615.407 -312.01 basechar 0
LayerCount: 2
Fore
SplineSet
910.864994598 167.931640228 m 0,0,1
 969.505486224 167.95452866 969.505486224 167.95452866 1021.14924274 169.02948736 c 0,2,3
 1072.79299926 170.10444606 1072.79299926 170.10444606 1117.74595998 172.245914627 c 0,4,5
 1162.6989207 174.387383195 1162.6989207 174.387383195 1200.86833225 177.599469725 c 0,6,7
 1421.34324062 196.733454687 1421.34324062 196.733454687 1534.30608633 284.65753976 c 0,8,9
 1647.26893204 372.581624832 1647.26893204 372.581624832 1644.19433594 528.383743636 c 2,10,-1
 1644.19433594 1490.50656716 l 1,11,-1
 1781.63476562 1490.51269531 l 1,12,-1
 1781.63477721 491.653818968 l 2,13,14
 1781.81087951 332.214849982 1781.81087951 332.214849982 1699.9979296 227.833281535 c 0,15,16
 1618.1849797 123.451713088 1618.1849797 123.451713088 1450.8748874 70.8606251547 c 0,17,18
 1398.06529911 54.1579154815 1398.06529911 54.1579154815 1320.17256396 42.7977806591 c 0,19,20
 1242.27982881 31.4376458368 1242.27982881 31.4376458368 1138.49195493 25.5086931802 c 0,21,22
 1034.70408106 19.5797405235 1034.70408106 19.5797405235 907.058479914 19.3720427888 c 0,23,24
 899.594943162 19.3593388887 899.594943162 19.3593388887 892.202914819 19.3925574102 c 0,25,26
 501.318139948 21.1489467791 501.318139948 21.1489467791 311.315339153 148.584807423 c 0,27,28
 121.312538358 276.020668068 121.312538358 276.020668068 122.511580077 529.126627049 c 0,29,30
 122.729862096 586.258889553 122.729862096 586.258889553 130.734351476 640.524123865 c 0,31,32
 138.738840856 694.789358177 138.738840856 694.789358177 153.914520211 743.56673337 c 1,33,-1
 269.033112092 713.33601702 l 1,34,35
 266.520299778 700.304924654 266.520299778 700.304924654 264.434683576 688.39622505 c 0,36,37
 262.349067374 676.487525446 262.349067374 676.487525446 260.616490799 665.24818585 c 0,38,39
 258.883914224 654.008846253 258.883914224 654.008846253 257.495290681 643.432493981 c 0,40,41
 256.106667137 632.856141709 256.106667137 632.856141709 254.976520423 622.358644214 c 0,42,43
 248.975281969 572.946044712 248.975281969 572.946044712 249.885256041 530.60305874 c 0,44,45
 254.226069595 168.002011883 254.226069595 168.002011883 910.864994598 167.931640228 c 0,0,1
686.41796875 770.228192377 m 1,46,47
 910.00472685 744.636459834 910.00472685 744.636459834 1004.37155991 777.277142408 c 0,48,49
 1049.62680587 793.017490362 1049.62680587 793.017490362 1082.64791946 826.038603968 c 0,50,51
 1118.54943836 861.940122855 1118.54943836 861.940122855 1119.03102491 897.65026775 c 0,52,53
 1118.78949841 938.826110957 1118.78949841 938.826110957 1086.36803002 963.132985913 c 0,54,55
 1053.94656163 987.439860868 1053.94656163 987.439860868 996.847700316 996.063964614 c 0,56,57
 934.314289059 1005.49361089 934.314289059 1005.49361089 894.545541945 1029.18957986 c 0,58,59
 854.776794832 1052.88554884 854.776794832 1052.88554884 836.361064162 1091.06635756 c 0,60,61
 817.945333492 1129.24716629 817.945333492 1129.24716629 819.177885994 1183.67884665 c 0,62,63
 824.120881366 1385.29319672 824.120881366 1385.29319672 1197.17871094 1413.42100347 c 1,64,-1
 1197.17871094 1325.90370762 l 1,65,66
 1143.98914926 1320.86460871 1143.98914926 1320.86460871 1100.47897592 1312.02275821 c 0,67,68
 1074.89989599 1306.82474626 1074.89989599 1306.82474626 1052.33880816 1300.22546684 c 0,69,70
 1029.77772034 1293.62618743 1029.77772034 1293.62618743 1010.15274313 1285.5615219 c 0,71,72
 996.938905337 1280.13193005 996.938905337 1280.13193005 985.130084981 1274.0519811 c 0,73,74
 973.321264626 1267.97203216 973.321264626 1267.97203216 962.695730062 1261.07940362 c 0,75,76
 952.070195498 1254.18677507 952.070195498 1254.18677507 942.879822937 1246.59064716 c 0,77,78
 935.012030316 1240.10183717 935.012030316 1240.10183717 928.968488812 1232.26247051 c 0,79,80
 922.924947308 1224.42310385 922.924947308 1224.42310385 918.904133263 1215.59517189 c 0,81,82
 914.883319217 1206.76723993 914.883319217 1206.76723993 912.825448671 1196.99045739 c 0,83,84
 910.767578125 1187.21367486 910.767578125 1187.21367486 910.767578125 1176.77441406 c 0,85,86
 910.767578125 1087.22594459 910.767578125 1087.22594459 1048.38774597 1066.37869401 c 0,87,88
 1132.61296865 1053.40516855 1132.61296865 1053.40516855 1171.35880528 1019.05482737 c 0,89,90
 1210.10464191 984.704486192 1210.10464191 984.704486192 1210.11621124 927.578573841 c 0,91,92
 1210.10766817 879.53446124 1210.10766817 879.53446124 1195.67015002 839.810295975 c 0,93,94
 1181.23263187 800.086130709 1181.23263187 800.086130709 1151.81476638 767.734931039 c 0,95,96
 1122.39690089 735.383731369 1122.39690089 735.383731369 1077.48035808 710.024793891 c 0,97,98
 945.190572824 635.338349632 945.190572824 635.338349632 686.41796875 673.78248129 c 1,99,-1
 686.41796875 770.228192377 l 1,46,47
EndSplineSet
Substitution2: "'fina' Terminal Forms in Arabic lookup 9 subtable" uniFEDA
Substitution2: "'medi' Medial Forms in Arabic lookup 11 subtable" uniFEDC
Substitution2: "'init' Initial Forms in Arabic lookup 13 subtable" uniFEDB
EndChar

StartChar: uni0644
Encoding: 1604 1604 39
Width: 1427
VWidth: 2673
GlyphClass: 2
Flags: W
AnchorPoint: "Anchor-10" 497.479 1274.4 basechar 0
AnchorPoint: "Anchor-7" 458.345 -642.577 basechar 0
LayerCount: 2
Fore
SplineSet
713.490698094 -339.680214213 m 0,0,1
 916.307594215 -337.256385862 916.307594215 -337.256385862 1020.44166437 -227.137770156 c 128,-1,2
 1124.57573453 -117.01915445 1124.57573453 -117.01915445 1125.18843359 94.764279193 c 2,3,-1
 1128.15201738 1488.23925781 l 1,4,-1
 1264.08005307 1488.23925781 l 1,5,-1
 1263.45519439 275.149476381 l 2,6,7
 1262.94981255 130.687269582 1262.94981255 130.687269582 1255.07291442 31.5042014574 c 0,8,9
 1235.59685036 -213.731391984 1235.59685036 -213.731391984 1123.29223712 -330.643763457 c 0,10,11
 980.825180046 -479.078644489 980.825180046 -479.078644489 704.549498046 -481.766682951 c 0,12,13
 242.856167068 -486.639081361 242.856167068 -486.639081361 153.139956177 -146.09240646 c 0,14,15
 131.178604218 -61.6393611953 131.178604218 -61.6393611953 130.609295644 43.214093516 c 0,16,17
 130.034498098 242.091280818 130.034498098 242.091280818 228.234413932 456.563374399 c 1,18,-1
 349.369396596 407.863111965 l 1,19,20
 268.015749199 198.21346205 268.015749199 198.21346205 268.868468777 50.3045032906 c 0,21,22
 269.976856646 -145.400338931 269.976856646 -145.400338931 382.906045958 -243.907729147 c 128,-1,23
 495.835235271 -342.415119363 495.835235271 -342.415119363 713.490698094 -339.680214213 c 0,0,1
EndSplineSet
Substitution2: "'fina' Terminal Forms in Arabic lookup 9 subtable" uniFEDE
Substitution2: "'medi' Medial Forms in Arabic lookup 11 subtable" uniFEE0
Substitution2: "'init' Initial Forms in Arabic lookup 13 subtable" uniFEDF
EndChar

StartChar: uni0645
Encoding: 1605 1605 40
Width: 1216
VWidth: 2375
GlyphClass: 2
Flags: W
AnchorPoint: "Anchor-10" 629.793 1160.83 basechar 0
AnchorPoint: "Anchor-7" 187.896 -859.477 basechar 0
LayerCount: 2
Fore
SplineSet
388.542862093 305.739841701 m 2,0,1
 460.568876388 479.355110149 460.568876388 479.355110149 539.283809035 580.547845208 c 0,2,3
 584.744997748 639.342986736 584.744997748 639.342986736 641.860044616 668.145724009 c 128,-1,4
 698.975091484 696.948461282 698.975091484 696.948461282 769.619925656 696.902347864 c 0,5,6
 908.006976105 696.993419538 908.006976105 696.993419538 994.844173283 570.617115657 c 0,7,8
 1081.99219428 443.137665587 1081.99219428 443.137665587 1081.80275301 301.84448756 c 0,9,10
 1081.86586267 256.776689919 1081.86586267 256.776689919 1073.74017263 217.212117913 c 128,-1,11
 1065.61448259 177.647545908 1065.61448259 177.647545908 1049.53265115 143.807958645 c 128,-1,12
 1033.4508197 109.968371383 1033.4508197 109.968371383 1009.3043568 81.1514541109 c 0,13,14
 937.238753085 -3.01885536993 937.238753085 -3.01885536993 824.420346515 -3.26222486119 c 0,15,16
 711.061515002 -2.32923036314 711.061515002 -2.32923036314 583.436124449 70.6969495642 c 0,17,18
 519.533528295 107.261480058 519.533528295 107.261480058 502.837765419 114.838544599 c 0,19,20
 444.755395073 142.236286518 444.755395073 142.236286518 410.760176397 140.35929852 c 0,21,22
 261.553710938 134.215352023 261.553710938 134.215352023 261.553710938 -170.137695312 c 2,23,-1
 261.553710938 -655.337890625 l 1,24,-1
 124.447265625 -655.337890625 l 1,25,-1
 124.447256371 -181.155075845 l 2,26,27
 124.227815986 41.1840307125 124.227815986 41.1840307125 187.108403774 158.159551399 c 128,-1,28
 249.988991562 275.135072086 249.988991562 275.135072086 373.889042085 294.242491663 c 2,29,-1
 384.448657725 295.870957558 l 1,30,-1
 388.542862093 305.739841701 l 2,0,1
537.760385122 271.25981386 m 2,31,32
 639.270285823 182.981196729 639.270285823 182.981196729 728.920781483 154.082797606 c 0,33,34
 779.21239619 137.709343878 779.21239619 137.709343878 818.352671603 140.003240058 c 0,35,36
 854.807582961 142.139435072 854.807582961 142.139435072 883.132428993 154.182910793 c 128,-1,37
 911.457275024 166.226386514 911.457275024 166.226386514 930.336313468 188.663047193 c 0,38,39
 966.264294763 231.509737634 966.264294763 231.509737634 962.007951699 295.951836818 c 0,40,41
 955.356604414 381.337105443 955.356604414 381.337105443 904.311627504 457.091067977 c 0,42,43
 844.958111106 544.762159336 844.958111106 544.762159336 771.451351457 545.558652974 c 0,44,45
 624.514979199 547.002589227 624.514979199 547.002589227 532.360024196 292.055550647 c 2,46,-1
 527.93247189 279.806710108 l 1,47,-1
 537.760385122 271.25981386 l 2,31,32
EndSplineSet
Substitution2: "'init' Initial Forms in Arabic lookup 13 subtable" uniFEE3
Substitution2: "'medi' Medial Forms in Arabic lookup 11 subtable" uniFEE4
Substitution2: "'fina' Terminal Forms in Arabic lookup 9 subtable" uniFEE2
EndChar

StartChar: uni0647
Encoding: 1607 1607 42
Width: 970
VWidth: 2673
GlyphClass: 2
Flags: W
AnchorPoint: "Anchor-10" 420.486 1275.72 basechar 0
AnchorPoint: "Anchor-7" 316.179 -344.301 basechar 0
LayerCount: 2
Fore
SplineSet
462.776663878 660.015296398 m 2,0,1
 252.945359003 474.429718104 252.945359003 474.429718104 253.804298182 341.002961959 c 0,2,3
 254.472768669 255.982246995 254.472768669 255.982246995 314.938620634 212.893436033 c 128,-1,4
 375.404472598 169.804625071 375.404472598 169.804625071 486.802343624 169.58987923 c 0,5,6
 560.175856793 169.73167815 560.175856793 169.73167815 611.640543411 188.073647912 c 128,-1,7
 663.105230029 206.415617673 663.105230029 206.415617673 691.394713281 244.413686985 c 128,-1,8
 719.684196532 282.411756297 719.684196532 282.411756297 720.694886918 338.569475879 c 0,9,10
 720.867132229 349.453712606 720.867132229 349.453712606 719.552297138 360.341509147 c 128,-1,11
 718.237462047 371.229305688 718.237462047 371.229305688 715.430952552 382.250581617 c 0,12,13
 712.675929813 392.921685213 712.675929813 392.921685213 709.105173874 403.428295781 c 128,-1,14
 705.534417935 413.93490635 705.534417935 413.93490635 700.729456847 425.487812341 c 0,15,16
 690.783325485 446.972871903 690.783325485 446.972871903 676.693155766 470.038476651 c 0,17,18
 669.396039767 481.340650574 669.396039767 481.340650574 661.32031411 492.514080027 c 128,-1,19
 653.244588452 503.687509479 653.244588452 503.687509479 643.760061886 515.629507111 c 0,20,21
 634.490286595 527.131624496 634.490286595 527.131624496 624.022609367 538.885915526 c 128,-1,22
 613.55493214 550.640206557 613.55493214 550.640206557 602.034839383 562.501429719 c 0,23,24
 596.398140838 568.473675406 596.398140838 568.473675406 590.33686754 574.565923957 c 128,-1,25
 584.275594241 580.658172508 584.275594241 580.658172508 577.920458458 586.743100481 c 128,-1,26
 571.565322675 592.828028453 571.565322675 592.828028453 564.919728638 598.904423776 c 128,-1,27
 558.274134602 604.980819099 558.274134602 604.980819099 551.456210785 610.937771408 c 0,28,29
 526.405008032 633.590251068 526.405008032 633.590251068 492.36379029 660.762505142 c 2,30,-1
 477.256133508 672.821682683 l 1,31,-1
 462.776663878 660.015296398 l 2,0,1
399.993309423 929.139481256 m 1,32,33
 838.390224749 606.46525464 838.390224749 606.46525464 845.747029493 337.329665349 c 0,34,35
 850.690386139 164.549852965 850.690386139 164.549852965 704.262854983 76.3565232638 c 0,36,37
 615.959000528 24.2443719577 615.959000528 24.2443719577 488.444865319 24.0244107677 c 0,38,39
 448.323530665 24.0007827409 448.323530665 24.0007827409 411.769843252 29.1399765506 c 0,40,41
 393.111679912 31.4293596982 393.111679912 31.4293596982 376.013261108 35.0659264107 c 128,-1,42
 358.914842304 38.7024931231 358.914842304 38.7024931231 342.398724774 43.8821486809 c 0,43,44
 308.944112525 53.7605454746 308.944112525 53.7605454746 279.6497964 68.2155761864 c 0,45,46
 128.038627684 143.742715272 128.038627684 143.742715272 128.640596872 327.115743874 c 0,47,48
 128.986628202 528.212603305 128.986628202 528.212603305 368.971437562 762.114335581 c 2,49,-1
 387.13663382 779.81908483 l 1,50,-1
 326.588907473 830.867097457 l 1,51,-1
 399.993309423 929.139481256 l 1,32,33
EndSplineSet
Substitution2: "'fina' Terminal Forms in Arabic lookup 9 subtable" uniFEEA
Substitution2: "'medi' Medial Forms in Arabic lookup 11 subtable" uniFEEC
Substitution2: "'init' Initial Forms in Arabic lookup 13 subtable" uniFEEB
EndChar

StartChar: uni0648
Encoding: 1608 1608 43
Width: 919
VWidth: 2673
GlyphClass: 2
Flags: W
AnchorPoint: "Anchor-10" 387.514 1259.86 basechar 0
AnchorPoint: "Anchor-7" 344.159 -741.82 basechar 0
LayerCount: 2
Fore
SplineSet
799.353685566 172.728905242 m 0,0,1
 799.677641711 102.524380545 799.677641711 102.524380545 791.88160124 40.0249210024 c 128,-1,2
 784.085560769 -22.4745385406 784.085560769 -22.4745385406 768.302852957 -77.0203565306 c 128,-1,3
 752.520145145 -131.566174521 752.520145145 -131.566174521 728.690727424 -178.649117623 c 128,-1,4
 704.861309702 -225.732060726 704.861309702 -225.732060726 673.25269582 -265.140835081 c 128,-1,5
 641.644081938 -304.549609437 641.644081938 -304.549609437 602.062044853 -336.737699172 c 0,6,7
 431.10974838 -475.855721405 431.10974838 -475.855721405 110.113508827 -510.760783622 c 1,8,-1
 85.4120057677 -374.884177501 l 1,9,10
 570.835321656 -327.8805188 570.835321656 -327.8805188 662.450593037 -2.59422001707 c 2,11,-1
 671.832509078 30.7169157634 l 1,12,-1
 589.808814734 20.5690069576 l 2,13,14
 388.798758647 -4.22482110627 388.798758647 -4.22482110627 279.859753614 46.7468126616 c 128,-1,15
 170.920748581 97.7184464294 170.920748581 97.7184464294 145.793598248 222.865226003 c 0,16,17
 115.925739464 374.167872165 115.925739464 374.167872165 204.344798436 545.138946934 c 0,18,19
 293.576403314 714.439249671 293.576403314 714.439249671 465.821021947 715.913229856 c 0,20,21
 597.504506634 716.425771054 597.504506634 716.425771054 676.887087426 627.692354675 c 128,-1,22
 756.269668217 538.958938296 756.269668217 538.958938296 784.857739586 354.244659136 c 0,23,24
 788.396316067 331.299845043 788.396316067 331.299845043 791.071444254 308.480261734 c 128,-1,25
 793.746572441 285.660678424 793.746572441 285.660678424 795.557846046 262.971713962 c 128,-1,26
 797.369119651 240.2827495 797.369119651 240.2827495 798.317912576 217.724213578 c 128,-1,27
 799.2667055 195.165677656 799.2667055 195.165677656 799.353685566 172.728905242 c 0,0,1
577.074981522 166.205940641 m 2,28,-1
 665.686120012 178.952794968 l 1,29,-1
 664.890923141 196.179815423 l 2,30,31
 648.141829998 559.029545848 648.141829998 559.029545848 460.152286922 558.721598315 c 0,32,33
 350.96695385 559.041152017 350.96695385 559.041152017 298.50363289 430.356483127 c 0,34,35
 263.48434125 344.459405567 263.48434125 344.459405567 272.853375434 276.195226595 c 0,36,37
 294.951252028 125.486793014 294.951252028 125.486793014 577.074981522 166.205940641 c 2,28,-1
EndSplineSet
Substitution2: "'fina' Terminal Forms in Arabic lookup 9 subtable" uniFEEE
EndChar

StartChar: uni0649
Encoding: 1609 1609 44
Width: 1488
VWidth: 2673
GlyphClass: 2
Flags: W
AnchorPoint: "Anchor-10" 465.708 1174.57 basechar 0
AnchorPoint: "Anchor-7" 440.774 -759.421 basechar 0
LayerCount: 2
Fore
SplineSet
713.543680711 -338.679490096 m 0,0,1
 962.635423784 -334.90154655 962.635423784 -334.90154655 1122.6004046 -210.737196082 c 0,2,3
 1237.59926745 -122.68911201 1237.59926745 -122.68911201 1241.17292204 -39.9018144971 c 0,4,5
 1243.55827181 10.2976068597 1243.55827181 10.2976068597 1195.87740706 34.8598615102 c 0,6,7
 1170.09017914 47.6892025159 1170.09017914 47.6892025159 1132.50025643 48.8301212379 c 2,8,-1
 984.740680054 53.31495847 l 2,9,10
 894.619689549 55.9770245997 894.619689549 55.9770245997 853.025151851 94.5416830989 c 0,11,12
 811.430614153 133.106341598 811.430614153 133.106341598 811.793510523 211.59997844 c 0,13,14
 812.951061614 382.701963505 812.951061614 382.701963505 932.169990282 516.342536771 c 0,15,16
 1080.1124746 681.963682738 1080.1124746 681.963682738 1365.53758116 689.617334653 c 1,17,-1
 1354.51525432 539.650451179 l 1,18,19
 1229.98547555 536.561090172 1229.98547555 536.561090172 1142.63164344 499.724701511 c 0,20,21
 1055.27781134 462.88831285 1055.27781134 462.88831285 1006.1911052 392.001374035 c 0,22,23
 957.104399066 321.114435219 957.104399066 321.114435219 948.285119251 217.399878291 c 2,24,-1
 946.592320564 197.492599068 l 1,25,-1
 1154.62849348 190.291189576 l 2,26,27
 1245.97944076 187.19324985 1245.97944076 187.19324985 1296.02898913 153.990263336 c 0,28,29
 1367.00064962 106.814521313 1367.00064962 106.814521313 1367.00683595 9.8111515139 c 0,30,31
 1367.00029259 -195.805568188 1367.00029259 -195.805568188 1195.19124806 -331.758885477 c 0,32,33
 1013.25268322 -476.099841329 1013.25268322 -476.099841329 704.485187595 -480.7674705 c 0,34,35
 698.698027514 -480.84813685 698.698027514 -480.84813685 692.970860555 -480.8741827 c 0,36,37
 409.790992654 -482.162434767 409.790992654 -482.162434767 270.776478002 -352.089249126 c 0,38,39
 131.76196335 -222.016063486 131.76196335 -222.016063486 130.609297128 44.2135775118 c 0,40,41
 130.033341072 245.381921273 130.033341072 245.381921273 238.234871821 480.124390627 c 1,42,-1
 359.395564247 431.41379202 l 1,43,44
 268.010963434 197.08042259 268.010963434 197.08042259 268.868467165 51.3047883971 c 0,45,46
 269.976700893 -144.892687037 269.976700893 -144.892687037 382.920982109 -243.410831723 c 0,47,48
 495.865263324 -341.92897641 495.865263324 -341.92897641 713.543680711 -338.679490096 c 0,0,1
EndSplineSet
Substitution2: "'fina' Terminal Forms in Arabic lookup 9 subtable" uniFEF0
Substitution2: "'medi' Medial Forms in Arabic lookup 11 subtable" uniFBE9
Substitution2: "'init' Initial Forms in Arabic lookup 13 subtable" uniFBE8
EndChar

StartChar: uni064B
Encoding: 1611 1611 46
Width: -29
VWidth: 2574
GlyphClass: 4
Flags: W
AnchorPoint: "Anchor-10" 681.723 1237.39 mark 0
AnchorPoint: "Anchor-9" 681.723 1237.39 mark 0
AnchorPoint: "Anchor-1" 636.984 1851.39 basemark 0
AnchorPoint: "Anchor-1" 681.723 1237.39 mark 0
LayerCount: 2
Fore
SplineSet
343.922851562 1186.34277344 m 1,0,-1
 343.922851562 1301.42871094 l 1,1,-1
 894.990234375 1526.76367188 l 1,2,-1
 894.990234375 1411.67773438 l 1,3,-1
 343.922851562 1186.34277344 l 1,0,-1
343.922851562 1492.24707031 m 1,4,-1
 343.922851562 1607.33203125 l 1,5,-1
 894.990234375 1832.66699219 l 1,6,-1
 894.990234375 1717.58007812 l 1,7,-1
 343.922851562 1492.24707031 l 1,4,-1
EndSplineSet
EndChar

StartChar: uni064C
Encoding: 1612 1612 47
Width: -29
VWidth: 2574
GlyphClass: 4
Flags: W
AnchorPoint: "Anchor-10" 756.562 1354.08 mark 0
AnchorPoint: "Anchor-9" 756.562 1354.08 mark 0
AnchorPoint: "Anchor-1" 635.266 2128.29 basemark 0
AnchorPoint: "Anchor-1" 756.562 1354.08 mark 0
LayerCount: 2
Fore
SplineSet
729.96875 1938.13964844 m 0,0,1
 630.79296875 1938.13964844 630.79296875 1938.13964844 630.79296875 1848.9921875 c 0,2,3
 630.79296875 1784.66113281 630.79296875 1784.66113281 703.98046875 1755.38378906 c 0,4,5
 730.125 1744.92773438 730.125 1744.92773438 782.985351562 1728.64941406 c 2,6,-1
 786.421875 1727.59179688 l 1,7,-1
 803.198242188 1766.73339844 l 2,8,9
 809.958007812 1782.50585938 809.958007812 1782.50585938 813.313476562 1801.58984375 c 128,-1,10
 816.668945312 1820.67382812 816.668945312 1820.67382812 816.668945312 1843.07617188 c 0,11,12
 816.668945312 1865.88085938 816.668945312 1865.88085938 809.151367188 1883.65722656 c 128,-1,13
 801.633789062 1901.43457031 801.633789062 1901.43457031 786.594726562 1913.81738281 c 0,14,15
 776.850585938 1921.84082031 776.850585938 1921.84082031 767.379882812 1927.22265625 c 128,-1,16
 757.909179688 1932.60449219 757.909179688 1932.60449219 748.504882812 1935.37207031 c 128,-1,17
 739.100585938 1938.13964844 739.100585938 1938.13964844 729.96875 1938.13964844 c 0,0,1
354.217773438 1682.75488281 m 1,18,19
 358.578125 1431.15625 358.578125 1431.15625 502.819335938 1432.52832031 c 0,20,21
 581.858398438 1432.79785156 581.858398438 1432.79785156 667.229492188 1515.66796875 c 0,22,23
 716.48046875 1562.86035156 716.48046875 1562.86035156 745.6875 1621.28417969 c 2,24,-1
 760.69921875 1651.31542969 l 1,25,-1
 727.822265625 1658.29199219 l 2,26,27
 615.352539062 1681.55859375 615.352539062 1681.55859375 575.893554688 1735.61230469 c 128,-1,28
 536.313476562 1789.83398438 536.313476562 1789.83398438 536.846679688 1828.31347656 c 0,29,30
 538.022460938 1913.203125 538.022460938 1913.203125 571.094726562 1961.1953125 c 128,-1,31
 604.166015625 2009.18652344 604.166015625 2009.18652344 669.393554688 2021.52050781 c 0,32,33
 679.442382812 2023.42089844 679.442382812 2023.42089844 690.173828125 2024.34960938 c 128,-1,34
 700.905273438 2025.27832031 700.905273438 2025.27832031 712.416015625 2025.23730469 c 0,35,36
 756.076171875 2025.40039062 756.076171875 2025.40039062 790.73046875 2012.77832031 c 128,-1,37
 825.384765625 2000.15527344 825.384765625 2000.15527344 851.32421875 1974.75585938 c 0,38,39
 903.1953125 1923.96679688 903.1953125 1923.96679688 903.767578125 1833.75488281 c 0,40,41
 904.282226562 1790.15136719 904.282226562 1790.15136719 889.806640625 1744.33007812 c 2,42,-1
 879.706054688 1712.35449219 l 1,43,-1
 913.185546875 1710.59667969 l 2,44,45
 926.118164062 1709.89160156 926.118164062 1709.89160156 942.592773438 1709.32714844 c 128,-1,46
 959.06640625 1708.76269531 959.06640625 1708.76269531 978.330078125 1708.35546875 c 1,47,-1
 978.330078125 1621.12109375 l 1,48,49
 937.127929688 1621.89648438 937.127929688 1621.89648438 922.100585938 1623.34082031 c 2,50,-1
 837.465820312 1631.47851562 l 1,51,-1
 836.3203125 1628.77734375 l 2,52,53
 789.852539062 1519.18945312 789.852539062 1519.18945312 690.935546875 1432.17773438 c 0,54,55
 592.465820312 1345.56152344 592.465820312 1345.56152344 515.200195312 1345.515625 c 0,56,57
 298.265625 1345.38769531 298.265625 1345.38769531 292.385742188 1682.75488281 c 1,58,-1
 354.217773438 1682.75488281 l 1,18,19
EndSplineSet
EndChar

StartChar: uni064D
Encoding: 1613 1613 48
Width: -29
VWidth: 2574
GlyphClass: 4
Flags: W
AnchorPoint: "Anchor-7" 618.087 78.5674 mark 0
AnchorPoint: "Anchor-6" 618.087 78.5674 mark 0
AnchorPoint: "Anchor-0" 710.803 -529.695 basemark 0
AnchorPoint: "Anchor-0" 618.087 78.5674 mark 0
LayerCount: 2
Fore
SplineSet
349.829101562 -573.487304688 m 1,0,-1
 349.829101562 -458.400390625 l 1,1,-1
 900.895507812 -233.06640625 l 1,2,-1
 900.895507812 -348.151367188 l 1,3,-1
 349.829101562 -573.487304688 l 1,0,-1
349.829101562 -267.583007812 m 1,4,-1
 349.829101562 -152.497070312 l 1,5,-1
 900.895507812 72.8369140625 l 1,6,-1
 900.895507812 -42.2490234375 l 1,7,-1
 349.829101562 -267.583007812 l 1,4,-1
EndSplineSet
EndChar

StartChar: uni064E
Encoding: 1614 1614 49
Width: -29
VWidth: 2574
GlyphClass: 4
Flags: W
AnchorPoint: "Anchor-10" 646.289 1516.26 mark 0
AnchorPoint: "Anchor-9" 646.289 1516.26 mark 0
AnchorPoint: "Anchor-1" 601.551 1879.74 basemark 0
AnchorPoint: "Anchor-1" 646.289 1516.26 mark 0
LayerCount: 2
Fore
SplineSet
309.670898438 1491.06542969 m 1,0,-1
 309.670898438 1606.15136719 l 1,1,-1
 860.73828125 1831.48632812 l 1,2,-1
 860.73828125 1716.39941406 l 1,3,-1
 309.670898438 1491.06542969 l 1,0,-1
EndSplineSet
EndChar

StartChar: uni064F
Encoding: 1615 1615 50
Width: -29
VWidth: 2574
GlyphClass: 4
Flags: W
AnchorPoint: "Anchor-10" 688.55 1426.63 mark 0
AnchorPoint: "Anchor-9" 688.55 1426.63 mark 0
AnchorPoint: "Anchor-1" 611.26 2144.89 basemark 0
AnchorPoint: "Anchor-1" 688.55 1426.63 mark 0
LayerCount: 2
Fore
SplineSet
914.057617188 1637.78027344 m 1,0,1
 883.02734375 1638.40429688 883.02734375 1638.40429688 847.732421875 1640.84863281 c 128,-1,2
 812.436523438 1643.29296875 812.436523438 1643.29296875 771.97265625 1647.61132812 c 2,3,-1
 769.647460938 1647.859375 l 1,4,-1
 768.291015625 1645.95605469 l 2,5,6
 667.869140625 1505.07617188 667.869140625 1505.07617188 492.578125 1449.90234375 c 0,7,8
 425.666992188 1428.84082031 425.666992188 1428.84082031 353.971679688 1425.19042969 c 1,9,-1
 353.971679688 1512.13964844 l 1,10,11
 530.431640625 1519.97167969 530.431640625 1519.97167969 641.672851562 1641.76171875 c 2,12,-1
 673.229492188 1675.00097656 l 1,13,-1
 628.393554688 1684.95410156 l 2,14,15
 621.69140625 1686.34082031 621.69140625 1686.34082031 579.48046875 1708.26855469 c 0,16,17
 528.036132812 1734.99316406 528.036132812 1734.99316406 502.55859375 1773.26855469 c 128,-1,18
 477.08203125 1811.54394531 477.08203125 1811.54394531 477.055664062 1861.83691406 c 0,19,20
 477.001953125 1962.65917969 477.001953125 1962.65917969 553.735351562 2020.515625 c 0,21,22
 582.532226562 2042.34277344 582.532226562 2042.34277344 658.856445312 2042.17773438 c 0,23,24
 696.977539062 2042.09570312 696.977539062 2042.09570312 728.987304688 2029.27636719 c 128,-1,25
 760.998046875 2016.45703125 760.998046875 2016.45703125 787.18359375 1990.81152344 c 128,-1,26
 813.291992188 1965.24121094 813.291992188 1965.24121094 826.376953125 1930.22070312 c 128,-1,27
 839.4609375 1895.19921875 839.4609375 1895.19921875 839.495117188 1850.4453125 c 0,28,29
 839.4609375 1832.15820312 839.4609375 1832.15820312 835.334960938 1809.72753906 c 128,-1,30
 831.208984375 1787.296875 831.208984375 1787.296875 822.973632812 1760.83300781 c 2,31,-1
 813.119140625 1729.1640625 l 1,32,-1
 846.240234375 1727.20605469 l 2,33,34
 884.455078125 1724.97363281 884.455078125 1724.97363281 914.057617188 1724.7578125 c 1,35,-1
 914.057617188 1637.78027344 l 1,0,1
722.1484375 1744.20019531 m 1,36,-1
 738.92578125 1783.33984375 l 2,37,38
 752.397460938 1814.77832031 752.397460938 1814.77832031 752.397460938 1859.68554688 c 0,39,40
 752.397460938 1905.66015625 752.397460938 1905.66015625 722.318359375 1930.42382812 c 0,41,42
 692.776367188 1954.74609375 692.776367188 1954.74609375 665.490234375 1954.74609375 c 0,43,44
 591.060546875 1954.74609375 591.060546875 1954.74609375 573.215820312 1904.06835938 c 0,45,46
 566.520507812 1885.05761719 566.520507812 1885.05761719 566.520507812 1857.80761719 c 0,47,48
 566.520507812 1801.26660156 566.520507812 1801.26660156 639.708984375 1771.98925781 c 0,49,50
 665.818359375 1761.546875 665.818359375 1761.546875 718.7109375 1745.2578125 c 2,51,-1
 722.1484375 1744.20019531 l 1,36,-1
EndSplineSet
EndChar

StartChar: uni0650
Encoding: 1616 1616 51
Width: -29
VWidth: 2574
GlyphClass: 4
Flags: W
AnchorPoint: "Anchor-7" 634.604 -24.249 mark 0
AnchorPoint: "Anchor-6" 634.604 -24.249 mark 0
AnchorPoint: "Anchor-0" 687.879 -371.804 basemark 0
AnchorPoint: "Anchor-0" 634.604 -24.249 mark 0
LayerCount: 2
Fore
SplineSet
361.639648438 -391.59765625 m 1,0,-1
 361.639648438 -276.51171875 l 1,1,-1
 912.706054688 -51.177734375 l 1,2,-1
 912.706054688 -166.264648438 l 1,3,-1
 361.639648438 -391.59765625 l 1,0,-1
EndSplineSet
EndChar

StartChar: uni0651
Encoding: 1617 1617 52
Width: -29
VWidth: 2574
GlyphClass: 4
Flags: W
AnchorPoint: "Anchor-10" 653.551 1573.89 mark 0
AnchorPoint: "Anchor-9" 653.551 1573.89 mark 0
AnchorPoint: "Anchor-1" 622.676 2027 basemark 0
AnchorPoint: "Anchor-1" 653.551 1573.89 mark 0
LayerCount: 2
Fore
SplineSet
654.219726562 1940.2890625 m 1,0,1
 656 1896 656 1896 656.5859375 1851.51367188 c 0,2,3
 656 1714 656 1714 766.334960938 1714.25488281 c 0,4,5
 851 1715 851 1715 852.2890625 1842.12304688 c 0,6,7
 853 1903 853 1903 834.510742188 1988.08105469 c 1,8,-1
 929.216796875 2003.08105469 l 1,9,10
 948 1936 948 1936 947.881835938 1852.73730469 c 0,11,12
 948 1616 948 1616 771.397460938 1614.69921875 c 0,13,14
 662 1614 662 1614 631.69921875 1682.98046875 c 1,15,16
 596 1546 596 1546 445.146484375 1546.12304688 c 0,17,18
 274 1546 274 1546 298.465820312 1791.98339844 c 0,19,20
 302 1827 302 1827 310.837890625 1883.59863281 c 1,21,-1
 395.046875 1869.59863281 l 5,22,23
 385 1824 385 1824 384.4921875 1760.90234375 c 0,24,25
 385 1651 385 1651 457.69921875 1651.51269531 c 0,26,27
 565 1651 565 1651 569.840820312 1792.7109375 c 0,28,29
 572 1851 572 1851 571.072265625 1940.2890625 c 1,30,-1
 654.219726562 1940.2890625 l 1,0,1
EndSplineSet
EndChar

StartChar: uni0652
Encoding: 1618 1618 53
Width: -29
VWidth: 2574
GlyphClass: 4
Flags: W
AnchorPoint: "Anchor-10" 658.243 1322.26 mark 0
AnchorPoint: "Anchor-9" 658.243 1322.26 mark 0
AnchorPoint: "Anchor-1" 641.708 1999.62 basemark 0
AnchorPoint: "Anchor-1" 658.243 1322.26 mark 0
LayerCount: 2
Fore
SplineSet
757.393554688 1525.95410156 m 0,0,1
 770.645507812 1539.20605469 770.645507812 1539.20605469 779.514648438 1554.47558594 c 128,-1,2
 788.3828125 1569.74511719 788.3828125 1569.74511719 792.825195312 1586.94335938 c 128,-1,3
 797.267578125 1604.14257812 797.267578125 1604.14257812 797.267578125 1623.19628906 c 0,4,5
 797.267578125 1680.56738281 797.267578125 1680.56738281 757.393554688 1720.43945312 c 128,-1,6
 717.524414062 1760.31347656 717.524414062 1760.31347656 659.375 1760.31347656 c 128,-1,7
 601.2265625 1760.31347656 601.2265625 1760.31347656 561.745117188 1720.83007812 c 128,-1,8
 522.260742188 1681.34863281 522.260742188 1681.34863281 522.260742188 1623.19726562 c 0,9,10
 522.260742188 1603.89257812 522.260742188 1603.89257812 526.655273438 1586.5703125 c 128,-1,11
 531.048828125 1569.24902344 531.048828125 1569.24902344 539.83203125 1553.97070312 c 128,-1,12
 548.615234375 1538.69238281 548.615234375 1538.69238281 561.745117188 1525.56445312 c 0,13,14
 581.440429688 1505.86816406 581.440429688 1505.86816406 605.922851562 1495.97363281 c 128,-1,15
 630.405273438 1486.08007812 630.405273438 1486.08007812 659.376953125 1486.08007812 c 128,-1,16
 688.353515625 1486.08007812 688.353515625 1486.08007812 712.930664062 1496.07324219 c 128,-1,17
 737.508789062 1506.06640625 737.508789062 1506.06640625 757.393554688 1525.95410156 c 0,0,1
806.0078125 1477.32421875 m 128,-1,19
 746.453125 1417.39453125 746.453125 1417.39453125 647.838867188 1417.39453125 c 0,20,21
 615.075195312 1417.39453125 615.075195312 1417.39453125 586.494140625 1427.5078125 c 128,-1,22
 557.9140625 1437.62109375 557.9140625 1437.62109375 533.319335938 1457.98242188 c 128,-1,23
 508.724609375 1478.34375 508.724609375 1478.34375 488.098632812 1509.02929688 c 0,24,25
 471.397460938 1533.87792969 471.397460938 1533.87792969 463.018554688 1565.25683594 c 128,-1,26
 454.640625 1596.63574219 454.640625 1596.63574219 454.640625 1634.65429688 c 0,27,28
 454.640625 1710.06347656 454.640625 1710.06347656 514.203125 1769.63769531 c 0,29,30
 544.037109375 1799.47070312 544.037109375 1799.47070312 580.444335938 1814.33496094 c 128,-1,31
 616.852539062 1829.19921875 616.852539062 1829.19921875 660.129882812 1829.19921875 c 0,32,33
 677.29296875 1829.19921875 677.29296875 1829.19921875 693.1796875 1827.12109375 c 128,-1,34
 709.06640625 1825.04394531 709.06640625 1825.04394531 723.705078125 1820.88476562 c 128,-1,35
 738.342773438 1816.72460938 738.342773438 1816.72460938 751.729492188 1810.47460938 c 128,-1,36
 765.116210938 1804.22363281 765.116210938 1804.22363281 777.267578125 1795.88574219 c 128,-1,37
 789.418945312 1787.546875 789.418945312 1787.546875 800.344726562 1777.10351562 c 128,-1,38
 811.26953125 1766.66015625 811.26953125 1766.66015625 820.973632812 1754.12304688 c 128,-1,39
 830.676757812 1741.58691406 830.676757812 1741.58691406 839.178710938 1726.93164062 c 0,40,41
 852.356445312 1704.21679688 852.356445312 1704.21679688 858.986328125 1674.75292969 c 128,-1,42
 865.6171875 1645.2890625 865.6171875 1645.2890625 865.6171875 1609.05078125 c 0,43,18
 865.6171875 1537.31542969 865.6171875 1537.31542969 806.0078125 1477.32421875 c 128,-1,19
EndSplineSet
EndChar

StartChar: uni0653
Encoding: 1619 1619 54
Width: -30
VWidth: 2673
GlyphClass: 4
Flags: W
AnchorPoint: "Anchor-10" 461.017 1539.11 mark 0
AnchorPoint: "Anchor-9" 461.017 1539.11 mark 0
AnchorPoint: "Anchor-1" 461.017 1965.25 basemark 0
AnchorPoint: "Anchor-1" 461.017 1539.11 mark 0
LayerCount: 2
Fore
SplineSet
380.348632812 1636.8046875 m 2,0,1
 266.486328125 1649.00292969 266.486328125 1649.00292969 177.061523438 1542.6328125 c 1,2,-1
 75.6953125 1639.29980469 l 1,3,4
 190.033203125 1804.20703125 190.033203125 1804.20703125 363.756835938 1782.15820312 c 2,5,-1
 552.506835938 1758.20019531 l 2,6,7
 655.104492188 1745.41992188 655.104492188 1745.41992188 772.004882812 1803.74121094 c 1,8,-1
 837.659179688 1677.28320312 l 1,9,10
 714.418945312 1601.01660156 714.418945312 1601.01660156 560.869140625 1617.46582031 c 2,11,-1
 380.348632812 1636.8046875 l 2,0,1
EndSplineSet
EndChar

StartChar: uni0657
Encoding: 1623 1623 57
Width: -29
VWidth: 2574
GlyphClass: 4
Flags: W
AnchorPoint: "Anchor-10" 636.984 1500.61 mark 0
AnchorPoint: "Anchor-9" 636.984 1500.61 mark 0
AnchorPoint: "Anchor-1" 636.984 2322.06 basemark 0
AnchorPoint: "Anchor-1" 636.984 1500.61 mark 0
LayerCount: 2
Fore
SplineSet
312.921875 1985.60175045 m 1,0,1
 367.001986008 1983.5194726 367.001986008 1983.5194726 434.028269126 1976.46539712 c 2,2,-1
 447.483079709 1975.04466797 l 1,3,-1
 455.262636258 1986.11579159 l 2,4,5
 511.768672127 2066.54659771 511.768672127 2066.54659771 590.931674379 2114.35927904 c 0,6,7
 760.587064872 2218.12021512 760.587064872 2218.12021512 852.860351562 2236.52489924 c 1,8,-1
 852.860351562 2188.93665281 l 1,9,10
 841.913586822 2187.4135121 841.913586822 2187.4135121 831.321254222 2185.09737215 c 0,11,12
 811.4114347 2180.74281347 811.4114347 2180.74281347 790.550224998 2173.2666852 c 0,13,14
 780.204148026 2169.55840102 780.204148026 2169.55840102 769.646779462 2165.10658516 c 128,-1,15
 759.089410898 2160.6547693 759.089410898 2160.6547693 748.314514357 2155.46209096 c 0,16,17
 744.730704649 2153.73513716 744.730704649 2153.73513716 741.116958947 2151.92308647 c 128,-1,18
 737.503213245 2150.11103578 737.503213245 2150.11103578 733.864800248 2148.21659441 c 128,-1,19
 730.226387251 2146.32215304 730.226387251 2146.32215304 726.560518319 2144.34442241 c 128,-1,20
 722.894649388 2142.36669178 722.894649388 2142.36669178 719.200411282 2140.3050252 c 128,-1,21
 715.506173176 2138.24335861 715.506173176 2138.24335861 711.787371323 2136.10043393 c 128,-1,22
 708.06856947 2133.95750925 708.06856947 2133.95750925 704.318108692 2131.72932686 c 0,23,24
 681.899817691 2118.41082579 681.899817691 2118.41082579 658.492238309 2102.19319572 c 128,-1,25
 635.184793061 2086.045632 635.184793061 2086.045632 610.647893982 2066.88042347 c 0,26,27
 600.179518228 2058.77901367 600.179518228 2058.77901367 590.233478505 2050.23630955 c 0,28,29
 585.258079359 2045.96342114 585.258079359 2045.96342114 580.412928398 2041.5795945 c 128,-1,30
 575.567777437 2037.19576787 575.567777437 2037.19576787 570.856012702 2032.70373326 c 128,-1,31
 566.169903276 2028.23663863 566.169903276 2028.23663863 561.563957366 2023.60933506 c 128,-1,32
 556.958011455 2018.98203148 556.958011455 2018.98203148 552.571647098 2014.33614266 c 2,33,-1
 497.859718652 1956.735649 l 1,34,-1
 576.022722818 1939.3423079 l 2,35,36
 588.337727131 1937.24353503 588.337727131 1937.24353503 602.093379304 1930.49446376 c 0,37,38
 609.283725817 1926.96637271 609.283725817 1926.96637271 617.063006418 1922.07010736 c 128,-1,39
 624.84228702 1917.17384201 624.84228702 1917.17384201 633.115795236 1910.92476532 c 0,40,41
 711.86651682 1851.44250537 711.86651682 1851.44250537 712.084966466 1787.64925897 c 0,42,43
 712.051099978 1743.25212485 712.051099978 1743.25212485 701.869833506 1711.52354151 c 128,-1,44
 691.688567033 1679.79495817 691.688567033 1679.79495817 672.241846421 1659.85885323 c 0,45,46
 632.736085836 1619.35891473 632.736085836 1619.35891473 549.410280279 1620.12557732 c 0,47,48
 514.831353242 1620.34974612 514.831353242 1620.34974612 486.280298464 1631.73902202 c 128,-1,49
 457.729243686 1643.12829792 457.729243686 1643.12829792 434.023167836 1666.0190936 c 0,50,51
 387.508362467 1711.25717533 387.508362467 1711.25717533 387.484369695 1792.51802778 c 0,52,53
 387.509561214 1826.2278791 387.509561214 1826.2278791 403.147006393 1876.49195551 c 2,54,-1
 420.212632933 1931.34043946 l 1,55,-1
 362.863464272 1934.72963833 l 2,56,57
 337.112135921 1936.2506646 337.112135921 1936.2506646 312.921875 1936.87009397 c 1,58,-1
 312.921875 1985.60175045 l 1,0,1
537.047851562 1669.22460938 m 0,59,60
 595.040049088 1669.22460938 595.040049088 1669.22460938 627.749516732 1697.13737518 c 128,-1,61
 660.458984375 1725.05014097 660.458984375 1725.05014097 660.458984375 1777.37109375 c 0,62,63
 660.458984375 1816.04129684 660.458984375 1816.04129684 637.909956401 1844.72284084 c 0,64,65
 616.274578009 1872.24080205 616.274578009 1872.24080205 575.333392387 1888.61815952 c 0,66,67
 548.543654014 1899.34027758 548.543654014 1899.34027758 494.857273686 1915.87333359 c 2,68,-1
 475.09753338 1921.9545495 l 1,69,-1
 451.591072243 1867.11663 l 2,70,71
 436.58203125 1832.09734756 436.58203125 1832.09734756 436.58203125 1783.29394531 c 0,72,73
 436.58203125 1776.77380396 436.58203125 1776.77380396 437.127852103 1770.54406664 c 128,-1,74
 437.673672956 1764.31432931 437.673672956 1764.31432931 438.780006008 1758.29912136 c 128,-1,75
 439.886339059 1752.2839134 439.886339059 1752.2839134 441.596332773 1746.51208735 c 128,-1,76
 443.306326487 1740.7402613 443.306326487 1740.7402613 445.600103997 1735.31630287 c 0,77,78
 454.935328149 1713.24185688 454.935328149 1713.24185688 473.576116815 1697.88762846 c 0,79,80
 481.715454106 1691.18397532 481.715454106 1691.18397532 489.484225095 1686.02893681 c 128,-1,81
 497.252996084 1680.87389831 497.252996084 1680.87389831 504.875698842 1677.21789221 c 0,82,83
 521.542815054 1669.22460938 521.542815054 1669.22460938 537.047851562 1669.22460938 c 0,59,60
EndSplineSet
EndChar

StartChar: uni065A
Encoding: 1626 1626 58
Width: 1262
VWidth: 2574
GlyphClass: 4
Flags: W
AnchorPoint: "Anchor-10" 636.984 1500.61 mark 0
AnchorPoint: "Anchor-9" 636.984 1500.61 mark 0
AnchorPoint: "Anchor-1" 634.457 2069.31 basemark 0
AnchorPoint: "Anchor-1" 636.984 1500.61 mark 0
LayerCount: 2
Fore
SplineSet
568.960156753 1623.91699219 m 1,0,-1
 376.309380857 1945.98925781 l 1,1,-1
 448.634088397 1945.98925781 l 1,2,-1
 636.983355115 1663.45761553 l 1,3,-1
 825.333654127 1945.98925781 l 1,4,-1
 897.659135194 1945.98925781 l 1,5,-1
 705.005738794 1623.91699219 l 1,6,-1
 568.960156753 1623.91699219 l 1,0,-1
EndSplineSet
EndChar

StartChar: afii57392
Encoding: 1632 1632 59
Width: 1069
VWidth: 2673
GlyphClass: 2
Flags: W
LayerCount: 2
Fore
SplineSet
440.705596157 698.934052283 m 128,-1,1
 419.90688896 678.135899466 419.90688896 678.135899466 409.204909324 652.471655565 c 128,-1,2
 398.502929688 626.807411664 398.502929688 626.807411664 398.502929688 597.639648438 c 0,3,4
 398.502929688 583.09630049 398.502929688 583.09630049 401.165554373 569.316728438 c 128,-1,5
 403.828179058 555.537156386 403.828179058 555.537156386 409.158611645 542.757030828 c 0,6,7
 419.795539623 517.255301139 419.795539623 517.255301139 440.705238143 496.34560262 c 0,8,9
 482.95214582 454.096443274 482.95214582 454.096443274 541.976812653 454.368939303 c 0,10,11
 556.483616236 454.302348513 556.483616236 454.302348513 570.193829313 456.902309394 c 128,-1,12
 584.029263825 459.527151195 584.029263825 459.527151195 596.836116793 464.835479169 c 0,13,14
 603.236011288 467.487943655 603.236011288 467.487943655 609.366152729 470.805973893 c 128,-1,15
 615.49629417 474.124004131 615.49629417 474.124004131 621.326440272 478.085839303 c 0,16,17
 632.899582893 485.950287756 632.899582893 485.950287756 643.293248229 496.345065547 c 0,18,19
 657.135034765 510.186483146 657.135034765 510.186483146 666.541590976 526.247695083 c 128,-1,20
 675.948147186 542.30890702 675.948147186 542.30890702 680.722608749 560.263411322 c 128,-1,21
 685.497070312 578.217915623 685.497070312 578.217915623 685.497070312 597.638671875 c 128,-1,22
 685.497070312 617.059711783 685.497070312 617.059711783 680.72263658 635.014496253 c 128,-1,23
 675.948202848 652.969280722 675.948202848 652.969280722 666.541687345 669.030794219 c 128,-1,24
 657.135171843 685.092307717 657.135171843 685.092307717 643.29342728 698.934052281 c 0,25,26
 622.494427661 719.733051899 622.494427661 719.733051899 596.830425924 730.435373606 c 128,-1,27
 571.166424187 741.137695312 571.166424187 741.137695312 542 741.137695312 c 128,-1,28
 512.832617869 741.137695312 512.832617869 741.137695312 487.168392051 730.435436023 c 128,-1,0
 461.504166232 719.733176735 461.504166232 719.733176735 440.705596157 698.934052283 c 128,-1,1
345.478974156 789.978057096 m 0,29,30
 425.354369078 869.852539062 425.354369078 869.852539062 536.861328125 869.852539062 c 128,-1,31
 648.368223565 869.852539062 648.368223565 869.852539062 728.242628754 789.978133875 c 0,32,33
 768.482614997 749.737687698 768.482614997 749.737687698 788.30038953 702.230144998 c 128,-1,34
 808.118164062 654.722602299 808.118164062 654.722602299 808.118164062 598.594726562 c 0,35,36
 808.118164062 561.150947912 808.118164062 561.150947912 799.32806137 527.631547534 c 128,-1,37
 790.537958677 494.112147155 790.537958677 494.112147155 772.816055118 464.088471168 c 128,-1,38
 755.094151558 434.06479518 755.094151558 434.06479518 728.242628745 407.213272367 c 0,39,40
 648.413025057 327.382756143 648.413025057 327.382756143 536.83298681 327.893754029 c 0,41,42
 425.310462855 327.382772991 425.310462855 327.382772991 345.479050937 407.213272372 c 0,43,44
 305.241122432 447.451660807 305.241122432 447.451660807 285.424272154 494.958934198 c 128,-1,45
 265.607421875 542.466207589 265.607421875 542.466207589 265.607421875 598.595703125 c 128,-1,46
 265.607421875 654.726205569 265.607421875 654.726205569 285.424439511 702.233142865 c 128,-1,47
 305.241457148 749.740080162 305.241457148 749.740080162 345.478974156 789.978057096 c 0,29,30
EndSplineSet
EndChar

StartChar: afii57393
Encoding: 1633 1633 60
Width: 770
VWidth: 2673
GlyphClass: 2
Flags: W
LayerCount: 2
Fore
SplineSet
280.63244775 1438.52279118 m 1,0,1
 534.990722691 810.52114864 534.990722691 810.52114864 554.189882593 29.4404296875 c 1,2,-1
 426.134037068 29.4404296875 l 1,3,4
 409.675078098 742.946642773 409.675078098 742.946642773 154.132571514 1395.24611711 c 1,5,-1
 280.63244775 1438.52279118 l 1,0,1
EndSplineSet
EndChar

StartChar: afii57394
Encoding: 1634 1634 61
Width: 1233
VWidth: 2673
GlyphClass: 2
Flags: W
LayerCount: 2
Fore
SplineSet
367.382264611 1195.06079249 m 0,0,1
 442.60719523 983.981913702 442.60719523 983.981913702 706.814839964 984.339864284 c 0,2,3
 831.370535384 984.156744442 831.370535384 984.156744442 895.259696178 1072.45035754 c 128,-1,4
 959.148856972 1160.74397063 959.148856972 1160.74397063 961.432942991 1328.5521137 c 0,5,6
 962.002378944 1372.05741386 962.002378944 1372.05741386 961.411585306 1402.93524337 c 0,7,8
 961.197067619 1418.67244297 961.197067619 1418.67244297 961.061850679 1431.76441936 c 1,9,-1
 1089.92063069 1431.35618231 l 1,10,11
 1090.1140013 1416.44991318 1090.1140013 1416.44991318 1090.27826504 1402.85463959 c 0,12,13
 1090.20961255 1260.28967992 1090.20961255 1260.28967992 1065.29418549 1154.85882167 c 128,-1,14
 1040.37875842 1049.42796343 1040.37875842 1049.42796343 990.437976349 980.517008152 c 128,-1,15
 940.497194275 911.606052878 940.497194275 911.606052878 866.545826277 877.817151642 c 128,-1,16
 792.594458279 844.028250406 792.594458279 844.028250406 693.387086545 844.037108581 c 0,17,18
 570.768945931 844.001668195 570.768945931 844.001668195 486.169348865 900.621961311 c 2,19,-1
 447.20599868 926.699110433 l 1,20,-1
 457.022712285 880.853799899 l 2,21,22
 543.147249251 478.641175537 543.147249251 478.641175537 554.18830506 29.4404296875 c 1,23,-1
 426.134037068 29.4404296875 l 1,24,25
 409.675078098 742.946642773 409.675078098 742.946642773 154.132559115 1395.24614876 c 1,26,-1
 279.689405817 1438.20044378 l 1,27,28
 291.633941211 1404.91280477 291.633941211 1404.91280477 313.405493024 1344.54889969 c 128,-1,29
 335.177044838 1284.18499461 335.177044838 1284.18499461 367.382264611 1195.06079249 c 0,0,1
EndSplineSet
EndChar

StartChar: afii57395
Encoding: 1635 1635 62
Width: 1415
VWidth: 2673
GlyphClass: 2
Flags: W
LayerCount: 2
Fore
SplineSet
460.498810818 874.080583296 m 2,0,1
 544.1808514 484.452695889 544.1808514 484.452695889 554.234681218 29.4404296875 c 1,2,-1
 426.134037068 29.4404296875 l 1,3,4
 409.675078098 742.946642773 409.675078098 742.946642773 154.132577677 1395.24610138 c 1,5,-1
 279.929713704 1438.28224293 l 1,6,7
 285.938968102 1422.08512303 285.938968102 1422.08512303 294.814428993 1397.73107353 c 128,-1,8
 303.689889884 1373.37702403 303.689889884 1373.37702403 315.475932518 1340.74368991 c 128,-1,9
 327.261975153 1308.1103558 327.261975153 1308.1103558 341.933020772 1267.27046042 c 128,-1,10
 356.604066392 1226.43056504 356.604066392 1226.43056504 374.258192744 1177.11203023 c 0,11,12
 383.002287572 1152.5206785 383.002287572 1152.5206785 393.538675731 1131.17028789 c 128,-1,13
 404.07506389 1109.81989728 404.07506389 1109.81989728 416.478178315 1091.68616555 c 128,-1,14
 428.881292739 1073.55243383 428.881292739 1073.55243383 442.999333336 1058.86273042 c 128,-1,15
 457.117373932 1044.17302702 457.117373932 1044.17302702 473.120258035 1032.93664417 c 128,-1,16
 489.123142138 1021.70026133 489.123142138 1021.70026133 506.757219629 1014.10873438 c 128,-1,17
 524.391297119 1006.51720742 524.391297119 1006.51720742 543.928335356 1002.6156627 c 128,-1,18
 563.465373593 998.714117984 563.465373593 998.714117984 584.55623806 998.660496359 c 0,19,20
 646.576578292 998.289399773 646.576578292 998.289399773 681.477492111 1033.01778155 c 128,-1,21
 716.378405929 1067.74616332 716.378405929 1067.74616332 719.360701329 1131.92966436 c 0,22,23
 722.428204791 1200.14417193 722.428204791 1200.14417193 724.325706165 1264.35463536 c 128,-1,24
 726.22320754 1328.56509879 726.22320754 1328.56509879 726.954918637 1388.62109375 c 1,25,-1
 840.840613274 1388.62109375 l 1,26,-1
 842.875871594 1263.45667686 l 2,27,28
 844.016405042 1181.69140853 844.016405042 1181.69140853 851.771497317 1119.34602372 c 0,29,30
 859.294146252 1057.64535497 859.294146252 1057.64535497 900.172551372 1025.22467321 c 128,-1,31
 941.050956492 992.803991458 941.050956492 992.803991458 1009.30083402 992.569601913 c 0,32,33
 1029.34970262 992.463517466 1029.34970262 992.463517466 1047.07157209 996.175689816 c 128,-1,34
 1064.79344155 999.887862166 1064.79344155 999.887862166 1079.72913131 1007.21420277 c 128,-1,35
 1094.66482106 1014.54054337 1094.66482106 1014.54054337 1107.00686289 1025.43931518 c 128,-1,36
 1119.34890471 1036.33808698 1119.34890471 1036.33808698 1128.76288323 1050.53984391 c 128,-1,37
 1138.17686175 1064.74160083 1138.17686175 1064.74160083 1144.72222587 1082.27432054 c 128,-1,38
 1151.26759 1099.80704025 1151.26759 1099.80704025 1154.73468954 1120.3359191 c 0,39,40
 1164.00772065 1175.24202435 1164.00772065 1175.24202435 1167.6591543 1257.14848759 c 128,-1,41
 1171.31058795 1339.05495084 1171.31058795 1339.05495084 1169.45296789 1446.81444917 c 1,42,-1
 1295.10594667 1446.93483221 l 1,43,-1
 1294.64654485 1343.28035947 l 2,44,45
 1294.43628333 1259.94374662 1294.43628333 1259.94374662 1287.26061135 1189.71703843 c 128,-1,46
 1280.08493937 1119.49033025 1280.08493937 1119.49033025 1266.33035394 1063.77860879 c 128,-1,47
 1252.57576852 1008.06688732 1252.57576852 1008.06688732 1232.30095079 965.958443002 c 0,48,49
 1174.10785681 845.098137869 1174.10785681 845.098137869 1015.09117588 846.403078132 c 0,50,51
 883.34168295 847.895405516 883.34168295 847.895405516 809.446627779 942.359870347 c 2,52,-1
 794.858141234 961.009204474 l 1,53,-1
 779.811367099 942.727623821 l 2,54,55
 688.737238895 832.074070763 688.737238895 832.074070763 559.018438493 860.86235785 c 0,56,57
 539.075973061 865.262389575 539.075973061 865.262389575 522.18532643 873.225889191 c 128,-1,58
 505.294679799 881.189388808 505.294679799 881.189388808 491.09290656 892.786786818 c 2,59,-1
 449.119575462 927.062888711 l 1,60,-1
 460.498810818 874.080583296 l 2,0,1
EndSplineSet
EndChar

StartChar: afii57396
Encoding: 1636 1636 63
Width: 1099
VWidth: 2673
GlyphClass: 2
Flags: W
LayerCount: 2
Fore
SplineSet
144.792882887 315.251678829 m 0,0,1
 137.336732704 574.562190714 137.336732704 574.562190714 520.668273856 771.092574757 c 2,2,-1
 567.309791303 795.00523091 l 1,3,-1
 516.179379065 806.534637591 l 2,4,5
 368.192143709 839.904308308 368.192143709 839.904308308 297.948418517 917.339294423 c 128,-1,6
 227.704693325 994.774280537 227.704693325 994.774280537 230.144966354 1119.24718285 c 0,7,8
 233.334940469 1286.10747228 233.334940469 1286.10747228 356.801963135 1369.50769712 c 128,-1,9
 480.268985801 1452.90792196 480.268985801 1452.90792196 732.680664062 1453.46916572 c 1,10,-1
 732.680664062 1309.13812329 l 1,11,12
 558.451085447 1300.19530615 558.451085447 1300.19530615 466.802595803 1252.53765108 c 128,-1,13
 375.154106159 1204.87999602 375.154106159 1204.87999602 375.348657165 1113.77944385 c 0,14,15
 375.16138352 996.812102384 375.16138352 996.812102384 476.589447698 937.457780885 c 128,-1,16
 578.017511876 878.103459387 578.017511876 878.103459387 769.830503652 873.845015659 c 1,17,-1
 771.528565718 752.57159389 l 1,18,19
 518.900041426 650.008614421 518.900041426 650.008614421 393.476156391 543.267511114 c 128,-1,20
 268.052271356 436.526407807 268.052271356 436.526407807 273.978432441 320.415180169 c 0,21,22
 281.948505019 166.150758492 281.948505019 166.150758492 641.018990402 167.37706393 c 2,23,-1
 953.576356751 168.444516738 l 1,24,-1
 955.25571282 19.0308532083 l 1,25,-1
 596.99640442 19.4238132835 l 2,26,27
 371.22147157 19.7060104261 371.22147157 19.7060104261 260.408395826 93.6239551217 c 128,-1,28
 149.595320083 167.541899817 149.595320083 167.541899817 144.792882887 315.251678829 c 0,0,1
EndSplineSet
EndChar

StartChar: afii57397
Encoding: 1637 1637 64
Width: 1307
VWidth: 2673
GlyphClass: 2
Flags: W
LayerCount: 2
Fore
SplineSet
618.85254898 1138.54336737 m 2,0,1
 289.001352125 819.109894856 289.001352125 819.109894856 288.954101754 535.572491848 c 0,2,3
 288.978132878 366.681245648 288.978132878 366.681245648 387.917880067 280.554998765 c 128,-1,4
 486.857627256 194.428751881 486.857627256 194.428751881 677.515905795 194.885842708 c 0,5,6
 854.919111793 195.462912552 854.919111793 195.462912552 946.843902862 279.459211051 c 128,-1,7
 1038.76869393 363.455509549 1038.76869393 363.455509549 1038.51462183 526.506406121 c 0,8,9
 1037.98460748 843.213611188 1037.98460748 843.213611188 648.809217593 1140.30360369 c 2,10,-1
 633.073968306 1152.31563014 l 1,11,-1
 618.85254898 1138.54336737 l 2,0,1
470.674142355 1282.84770177 m 1,12,-1
 549.034701291 1401.57530845 l 1,13,14
 1162.98596696 1004.17946976 1162.98596696 1004.17946976 1162.58108941 521.12090585 c 0,15,16
 1162.98053787 312.162803594 1162.98053787 312.162803594 1064.65670593 208.43978521 c 0,17,18
 927.845813428 64.0196901273 927.845813428 64.0196901273 670.843761613 64.6385959245 c 0,19,20
 608.203775237 64.8157113632 608.203775237 64.8157113632 552.881609495 72.2296892203 c 128,-1,21
 497.559443753 79.6436670774 497.559443753 79.6436670774 449.55810005 94.2089386012 c 0,22,23
 354.418919165 123.000565469 354.418919165 123.000565469 287.830514608 181.172247998 c 0,24,25
 265.765417463 200.311419964 265.765417463 200.311419964 246.646099856 222.697377761 c 128,-1,26
 227.526782249 245.083335558 227.526782249 245.083335558 211.243387725 270.900516228 c 128,-1,27
 194.9599932 296.717696898 194.9599932 296.717696898 181.583952841 325.915540718 c 0,28,29
 144.041196005 408.046559454 144.041196005 408.046559454 145.059922163 510.371317011 c 0,30,31
 147.937626557 865.231466882 147.937626557 865.231466882 511.062867029 1224.42465278 c 2,32,-1
 531.809722434 1244.94685352 l 1,33,-1
 470.674142355 1282.84770177 l 1,12,-1
EndSplineSet
EndChar

StartChar: afii57398
Encoding: 1638 1638 65
Width: 1332
VWidth: 2673
GlyphClass: 2
Flags: W
LayerCount: 2
Fore
SplineSet
828.767111138 1255.79175044 m 2,0,1
 747.966523951 1232.00029331 747.966523951 1232.00029331 478.612113351 1232.02636707 c 0,2,3
 257.139797806 1232.0013703 257.139797806 1232.0013703 92.486328125 1275.69265245 c 1,4,-1
 92.486328125 1437.06194976 l 1,5,6
 307.651297422 1385.01341086 307.651297422 1385.01341086 525.222960402 1385.31552098 c 0,7,8
 737.995140342 1385.97509441 737.995140342 1385.97509441 984.111812803 1439.03448523 c 1,9,10
 989.025744381 945.945517804 989.025744381 945.945517804 1086.10573816 395.087137033 c 2,11,-1
 1086.2267713 394.400361966 l 1,12,13
 1132.51607464 211.450858758 1132.51607464 211.450858758 1179.36200308 29.4404296875 c 1,14,-1
 1033.75490249 29.4404296875 l 1,15,16
 973.515516599 266.38030978 973.515516599 266.38030978 938.333716988 438.450323863 c 128,-1,17
 903.151917377 610.520337947 903.151917377 610.520337947 892.912244808 717.763600747 c 0,18,19
 876.679538054 887.99084178 876.679538054 887.99084178 868.014030868 1017.18507126 c 128,-1,20
 859.348523682 1146.37930073 859.348523682 1146.37930073 858.262212282 1234.01382488 c 2,21,-1
 857.885972578 1264.36569976 l 1,22,-1
 828.767111138 1255.79175044 l 2,0,1
EndSplineSet
EndChar

StartChar: afii57399
Encoding: 1639 1639 66
Width: 1300
VWidth: 2673
GlyphClass: 2
Flags: W
LayerCount: 2
Fore
SplineSet
668.171164794 319.618330145 m 2,0,1
 781.244101025 877.496846649 781.244101025 877.496846649 1050.43205837 1436.36656688 c 1,2,-1
 1167.77279703 1373.02619686 l 1,3,4
 883.255701835 800.590514097 883.255701835 800.590514097 713.73028937 29.4404296875 c 1,5,-1
 585.367453264 29.4404296875 l 1,6,7
 415.7464323 800.590284823 415.7464323 800.590284823 131.324628154 1373.02501784 c 1,8,-1
 248.665103992 1436.36524598 l 1,9,10
 517.757982628 877.496684718 517.757982628 877.496684718 630.929078796 319.615202414 c 2,11,-1
 649.557834257 227.784001145 l 1,12,-1
 668.171164794 319.618330145 l 2,0,1
EndSplineSet
EndChar

StartChar: afii57400
Encoding: 1640 1640 67
Width: 1300
VWidth: 2673
GlyphClass: 2
Flags: W
LayerCount: 2
Fore
SplineSet
630.929131798 1153.34404322 m 2,0,1
 517.757989141 595.50250305 517.757989141 595.50250305 248.664618793 36.5940003041 c 1,2,-1
 131.324181319 99.9342077403 l 1,3,4
 415.746442618 672.408904012 415.746442618 672.408904012 585.367284195 1443.51855469 c 1,5,-1
 713.726342327 1443.51855469 l 1,6,7
 883.255944442 671.428437673 883.255944442 671.428437673 1167.76232892 99.9271368444 c 1,8,-1
 1050.43254361 36.592679429 l 1,9,10
 915.373689274 317.012210106 915.373689274 317.012210106 820.096774422 595.440014165 c 128,-1,11
 724.81985957 873.867818225 724.81985957 873.867818225 668.171111878 1153.34091529 c 2,12,-1
 649.557834234 1245.16837065 l 1,13,-1
 630.929131798 1153.34404322 l 2,0,1
EndSplineSet
EndChar

StartChar: afii57401
Encoding: 1641 1641 68
Width: 1264
VWidth: 2673
GlyphClass: 2
Flags: W
LayerCount: 2
Fore
SplineSet
830.878501789 714.020456786 m 2,0,1
 685.443930704 690.000396366 685.443930704 690.000396366 575.997914396 690.028320198 c 0,2,3
 491.797055998 690.019077583 491.797055998 690.019077583 424.509656069 702.525738524 c 128,-1,4
 357.22225614 715.032399464 357.22225614 715.032399464 308.387134836 739.003403854 c 128,-1,5
 259.552013531 762.974408244 259.552013531 762.974408244 227.088582803 798.431651775 c 0,6,7
 186.639883784 842.791912683 186.639883784 842.791912683 166.21529625 902.570730351 c 128,-1,8
 145.790708716 962.349548019 145.790708716 962.349548019 145.596576845 1038.71388132 c 0,9,10
 145.025925699 1212.15166935 145.025925699 1212.15166935 268.273781567 1335.30701013 c 0,11,12
 415.407827861 1484.44160611 415.407827861 1484.44160611 635.011517107 1442.69403949 c 0,13,14
 777.369864186 1415.33295191 777.369864186 1415.33295191 855.17578714 1308.10138385 c 128,-1,15
 932.981710094 1200.86981579 932.981710094 1200.86981579 947.224980525 1008.41901427 c 0,16,17
 982.364810742 543.683290279 982.364810742 543.683290279 1111.01148668 29.4404296875 c 1,18,-1
 966.94462076 29.4404296875 l 1,19,20
 887.060430675 416.860241372 887.060430675 416.860241372 852.834944742 697.573924848 c 2,21,-1
 850.43590699 717.250569483 l 1,22,-1
 830.878501789 714.020456786 l 2,0,1
838.153818351 857.375005137 m 1,23,-1
 828.564643654 946.718501141 l 2,24,25
 816.090222188 1064.17592092 816.090222188 1064.17592092 781.128112814 1144.58934648 c 128,-1,26
 746.166003441 1225.00277205 746.166003441 1225.00277205 686.921495396 1267.71337744 c 128,-1,27
 627.676987352 1310.42398283 627.676987352 1310.42398283 545.682311627 1311.22693074 c 0,28,29
 493.795095616 1311.64214606 493.795095616 1311.64214606 447.73887377 1292.6815146 c 128,-1,30
 401.682651925 1273.72088313 401.682651925 1273.72088313 362.643266532 1236.02290151 c 0,31,32
 318.541339365 1193.2446402 318.541339365 1193.2446402 296.278265661 1138.9621017 c 128,-1,33
 274.015191957 1084.6795632 274.015191957 1084.6795632 274.032226894 1020.4000361 c 0,34,35
 274.014236377 924.15948935 274.014236377 924.15948935 350.782177755 876.594399628 c 128,-1,36
 427.550119133 829.029309907 427.550119133 829.029309907 570.988938554 829.060550095 c 0,37,38
 676.650969728 828.999035616 676.650969728 828.999035616 820.654137482 854.300319983 c 2,39,-1
 838.153818351 857.375005137 l 1,23,-1
EndSplineSet
EndChar

StartChar: afii57381
Encoding: 1642 1642 69
Width: 1229
VWidth: 3655
GlyphClass: 2
Flags: W
LayerCount: 2
Fore
SplineSet
762.099609375 315.208984375 m 0,0,1
 762.099609375 373.587632353 762.099609375 373.587632353 802.78922301 415.245473566 c 0,2,3
 845.576341898 457.059570312 845.576341898 457.059570312 903.950195312 457.059570312 c 0,4,5
 917.065387372 457.059570312 917.065387372 457.059570312 929.156769649 454.935433794 c 128,-1,6
 941.248151926 452.811297276 941.248151926 452.811297276 952.53406184 448.532108912 c 128,-1,7
 963.819971754 444.252920549 963.819971754 444.252920549 974.583302914 437.729470336 c 0,8,9
 978.123306207 435.647223422 978.123306207 435.647223422 981.265598123 433.589842286 c 128,-1,10
 984.40789004 431.532461149 984.40789004 431.532461149 987.513269454 429.270698726 c 2,11,-1
 999.004228377 419.971127924 l 2,12,13
 1001.71420043 417.534426758 1001.71420043 417.534426758 1004.27428598 414.974562672 c 128,-1,14
 1006.83437153 412.414698586 1006.83437153 412.414698586 1009.24522811 409.731689936 c 0,15,16
 1014.07376187 404.35722504 1014.07376187 404.35722504 1018.32706061 398.474109554 c 128,-1,17
 1022.59438582 392.570402772 1022.59438582 392.570402772 1026.41495694 385.934533897 c 0,18,19
 1036.19565392 369.795951493 1036.19565392 369.795951493 1040.98488157 352.316377989 c 128,-1,20
 1045.79980469 334.742165538 1045.79980469 334.742165538 1045.79980469 315.208984375 c 128,-1,21
 1045.79980469 295.578416116 1045.79980469 295.578416116 1041.1657009 277.882685956 c 0,22,23
 1039.63001645 272.018540735 1039.63001645 272.018540735 1037.58892547 266.365221336 c 128,-1,24
 1035.54783448 260.711901938 1035.54783448 260.711901938 1032.987552 255.236704426 c 128,-1,25
 1030.42726951 249.761506914 1030.42726951 249.761506914 1027.34083965 244.452893383 c 0,26,27
 1018.00320748 228.391680824 1018.00320748 228.391680824 1003.98571443 214.048018479 c 0,28,29
 962.328846008 173.359375 962.328846008 173.359375 903.950195312 173.359375 c 0,30,31
 884.311351979 173.359375 884.311351979 173.359375 866.266507428 177.984997576 c 128,-1,32
 848.221662878 182.610620152 848.221662878 182.610620152 831.839106181 191.76545263 c 0,33,34
 825.343330825 195.586796139 825.343330825 195.586796139 819.268788296 200.016964436 c 0,35,36
 816.244368834 202.222360383 816.244368834 202.222360383 813.375413168 204.547271206 c 128,-1,37
 810.506457503 206.872182029 810.506457503 206.872182029 807.788354781 209.319163042 c 0,38,39
 802.365511974 214.201009654 802.365511974 214.201009654 797.527316216 219.579642173 c 0,40,41
 795.110362855 222.266574366 795.110362855 222.266574366 792.839160603 225.077980962 c 128,-1,42
 790.56795835 227.889387557 790.56795835 227.889387557 788.441889253 230.82618395 c 0,43,44
 784.179501412 236.714794374 784.179501412 236.714794374 780.55861548 243.003077568 c 0,45,46
 762.099609375 276.035527121 762.099609375 276.035527121 762.099609375 315.208984375 c 0,0,1
182.80566601 1196.40246328 m 0,47,48
 182.794752118 1226.17818178 182.794752118 1226.17818178 192.869463571 1250.90426643 c 128,-1,49
 202.944175025 1275.63035108 202.944175025 1275.63035108 223.494196858 1296.4410048 c 0,50,51
 244.964924389 1317.65099284 244.964924389 1317.65099284 270.101022241 1328.04298491 c 128,-1,52
 295.149093421 1338.3985842 295.149093421 1338.3985842 324.684830505 1338.25454129 c 0,53,54
 363.225487007 1338.53864163 363.225487007 1338.53864163 395.181113145 1318.98954867 c 0,55,56
 399.443252679 1316.43382332 399.443252679 1316.43382332 403.408128686 1313.73302493 c 128,-1,57
 407.373004692 1311.03222653 407.373004692 1311.03222653 411.068257207 1308.1667451 c 128,-1,58
 414.763509723 1305.30126367 414.763509723 1305.30126367 418.19581957 1302.27702656 c 128,-1,59
 421.628129416 1299.25278946 421.628129416 1299.25278946 424.866728968 1296.01418991 c 0,60,61
 437.724188699 1283.15673017 437.724188699 1283.15673017 447.199402447 1266.99820794 c 0,62,63
 452.310710557 1258.66452457 452.310710557 1258.66452457 455.91736389 1250.40673984 c 128,-1,64
 459.524017222 1242.14895511 459.524017222 1242.14895511 461.93714244 1233.34038169 c 0,65,66
 466.716363098 1215.89801403 466.716363098 1215.89801403 466.505122676 1196.44744622 c 0,67,68
 466.924427227 1137.72582818 466.924427227 1137.72582818 424.780748981 1095.33008106 c 0,69,70
 382.681407966 1054.39868391 382.681407966 1054.39868391 324.628682181 1054.55478831 c 0,71,72
 304.730981018 1054.47626886 304.730981018 1054.47626886 286.712568595 1059.1015329 c 128,-1,73
 268.80038629 1063.69974838 268.80038629 1063.69974838 252.688756113 1072.87697921 c 0,74,75
 241.597890205 1079.49623961 241.597890205 1079.49623961 232.111185701 1087.49387691 c 128,-1,76
 222.624481196 1095.4915142 222.624481196 1095.4915142 214.92522181 1104.66187511 c 128,-1,77
 207.225962424 1113.83223601 207.225962424 1113.83223601 201.295716682 1124.1430166 c 0,78,79
 182.783990617 1157.66506609 182.783990617 1157.66506609 182.80566601 1196.40246328 c 0,47,48
918.005650241 1487.66091111 m 1,80,-1
 1030.9321532 1429.48093381 l 1,81,-1
 314.789768456 54.7362586841 l 1,82,-1
 201.924465726 116.76041802 l 1,83,-1
 918.005650241 1487.66091111 l 1,80,-1
EndSplineSet
EndChar

StartChar: uni066B
Encoding: 1643 1643 70
Width: 745
VWidth: 2673
GlyphClass: 2
Flags: W
LayerCount: 2
Fore
SplineSet
488.923197445 724.984632266 m 1,0,-1
 581.107435342 685.850308676 l 1,1,-1
 173.065907291 -255.727711739 l 1,2,-1
 78.9257090094 -214.757134766 l 1,3,-1
 488.923197445 724.984632266 l 1,0,-1
EndSplineSet
EndChar

StartChar: uni066C
Encoding: 1644 1644 71
Width: 533
VWidth: 2574
GlyphClass: 2
Flags: W
LayerCount: 2
Fore
SplineSet
129.182029976 140.601011777 m 0,0,1
 129.789477392 201.093630073 129.789477392 201.093630073 161.464579999 229.375459374 c 128,-1,2
 193.139682606 257.657288674 193.139682606 257.657288674 262.653249292 257.859560302 c 0,3,4
 287.806909556 257.970652333 287.806909556 257.970652333 308.195730212 253.946632054 c 128,-1,5
 328.584550868 249.922611775 328.584550868 249.922611775 344.607489057 241.75499027 c 128,-1,6
 360.630427247 233.587368766 360.630427247 233.587368766 372.528869409 220.978474236 c 128,-1,7
 384.427311572 208.369579706 384.427311572 208.369579706 392.412097964 191.613829408 c 128,-1,8
 400.396884357 174.85807911 400.396884357 174.85807911 404.897518304 153.354895072 c 0,9,10
 417.411115807 92.3676590141 417.411115807 92.3676590141 394.302813449 -0.164475347144 c 0,11,12
 343.800601544 -193.180708944 343.800601544 -193.180708944 169.365916507 -340.02133 c 1,13,-1
 146.868761306 -325.640611515 l 1,14,15
 294.776951284 -169.987027042 294.776951284 -169.987027042 306.706825244 -5.69405109067 c 2,16,-1
 308.54296338 19.5626747537 l 1,17,-1
 283.226122387 18.9673807695 l 2,18,19
 269.087070583 18.6219668313 269.087070583 18.6219668313 257.830194663 18.9021849674 c 128,-1,20
 246.573318743 19.1824031036 246.573318743 19.1824031036 238.733543829 19.9022925916 c 128,-1,21
 230.893768915 20.6221820796 230.893768915 20.6221820796 226.106481778 21.7468030913 c 0,22,23
 175.308978187 31.9975172311 175.308978187 31.9975172311 152.08686822 60.5292631323 c 128,-1,24
 128.864758252 89.0610090335 128.864758252 89.0610090335 129.182029976 140.601011777 c 0,0,1
EndSplineSet
EndChar

StartChar: afii63167
Encoding: 1645 1645 72
Width: 1433
VWidth: 2673
GlyphClass: 2
Flags: W
LayerCount: 2
Fore
SplineSet
254.26247436 928.796875 m 1,0,-1
 611.277684862 928.796875 l 1,1,-1
 722.922015572 1268.71687676 l 1,2,-1
 834.568085128 928.796875 l 1,3,-1
 1191.5822522 928.796875 l 1,4,-1
 903.103641045 717.908577486 l 1,5,-1
 1013.39105988 379.098577616 l 1,6,-1
 722.921841723 588.992165713 l 1,7,-1
 432.454544484 379.098710368 l 1,8,-1
 542.741058418 717.908597297 l 1,9,-1
 254.26247436 928.796875 l 1,0,-1
EndSplineSet
EndChar

StartChar: uni066E
Encoding: 1646 1646 73
Width: 1841
VWidth: 2673
GlyphClass: 2
Flags: W
AnchorPoint: "Anchor-10" 919.349 1283.6 basechar 0
AnchorPoint: "Anchor-7" 919.349 -227.87 basechar 0
LayerCount: 2
Fore
SplineSet
875.953776683 168.19824587 m 0,0,1
 1574.8223814 169.022177454 1574.8223814 169.022177454 1578.22374071 530.733356194 c 0,2,3
 1578.95428049 607.128127846 1578.95428049 607.128127846 1558.99065572 713.314512709 c 1,4,-1
 1674.18017844 743.563855852 l 1,5,6
 1705.06022762 644.042615947 1705.06022762 644.042615947 1705.59577078 529.147535926 c 0,7,8
 1706.27139708 275.986414635 1706.27139708 275.986414635 1502.47546113 148.294433934 c 128,-1,9
 1298.67952518 20.6024532329 1298.67952518 20.6024532329 880.347656488 19.3768715864 c 2,10,-1
 879.366534321 19.3739878267 l 1,11,-1
 878.360953869 19.372040643 l 2,12,13
 494.941372671 18.69444877 494.941372671 18.69444877 308.361925131 146.052902988 c 128,-1,14
 121.782477592 273.411357206 121.782477592 273.411357206 122.511580077 529.126627049 c 0,15,16
 122.950635409 644.043213459 122.950635409 644.043213459 153.914520211 743.56673337 c 1,17,-1
 269.033112092 713.336017021 l 1,18,19
 265.687060248 695.983861273 265.687060248 695.983861273 263.072230113 680.450982078 c 128,-1,20
 260.457399978 664.918102883 260.457399978 664.918102883 258.470705678 650.63962494 c 128,-1,21
 256.484011377 636.361146998 256.484011377 636.361146998 254.976520423 622.358644214 c 0,22,23
 248.975281969 572.946044712 248.975281969 572.946044712 249.885256041 530.603058741 c 0,24,25
 252.069044598 348.184715486 252.069044598 348.184715486 411.161077551 258.14122458 c 128,-1,26
 570.253110505 168.097733674 570.253110505 168.097733674 875.953776683 168.19824587 c 0,0,1
EndSplineSet
Substitution2: "'init' Initial Forms in Arabic lookup 13 subtable" uni066E.init
Substitution2: "'medi' Medial Forms in Arabic lookup 11 subtable" uni066E.medi
Substitution2: "'fina' Terminal Forms in Arabic lookup 9 subtable" uni066E.fina
EndChar

StartChar: uni066F
Encoding: 1647 1647 74
Width: 1454
VWidth: 2673
GlyphClass: 2
Flags: W
AnchorPoint: "Anchor-10" 140.156 1196.23 basechar 0
AnchorPoint: "Anchor-7" 333.006 -722.749 basechar 0
LayerCount: 2
Fore
SplineSet
713.296044921 -324.11687423 m 0,0,1
 861.362714727 -325.780548417 861.362714727 -325.780548417 965.434891228 -285.144057514 c 128,-1,2
 1069.50706773 -244.507566611 1069.50706773 -244.507566611 1128.10028679 -161.183211151 c 128,-1,3
 1186.69350585 -77.858855691 1186.69350585 -77.858855691 1197.21566478 46.6015561896 c 2,4,-1
 1199.21602624 70.2626520539 l 1,5,-1
 1112.84244633 58.3735353776 l 2,6,7
 1044.68061216 48.9974243999 1044.68061216 48.9974243999 994.353946344 48.8983392808 c 0,8,9
 859.572692567 48.4649605582 859.572692567 48.4649605582 785.792858406 97.9528222953 c 128,-1,10
 712.013024246 147.440684032 712.013024246 147.440684032 693.045583192 248.085012026 c 0,11,12
 686.440579591 283.076655933 686.440579591 283.076655933 688.158123468 322.308901254 c 128,-1,13
 689.875667345 361.541146574 689.875667345 361.541146574 700.496125478 406.073754959 c 128,-1,14
 711.116583612 450.606363344 711.116583612 450.606363344 730.575118029 499.480576704 c 0,15,16
 774.461325727 610.062565176 774.461325727 610.062565176 842.275439872 663.547894235 c 128,-1,17
 910.089554018 717.033223293 910.089554018 717.033223293 1004.01544444 717.062581011 c 0,18,19
 1154.63915906 717.502431856 1154.63915906 717.502431856 1235.31804571 593.21986098 c 128,-1,20
 1315.99693237 468.937290104 1315.99693237 468.937290104 1325.65392876 210.331848577 c 0,21,22
 1335.81504526 -51.6006444497 1335.81504526 -51.6006444497 1253.25243113 -206.53360146 c 0,23,24
 1112.66548332 -468.92389074 1112.66548332 -468.92389074 705.144854429 -466.202628681 c 0,25,26
 415.554196344 -464.14360529 415.554196344 -464.14360529 273.728952907 -338.858140265 c 128,-1,27
 131.903709469 -213.57267524 131.903709469 -213.57267524 130.86897986 38.8008166995 c 0,28,29
 130.049234752 238.070720765 130.049234752 238.070720765 228.467040969 452.137761569 c 1,30,-1
 349.600316434 403.438185486 l 1,31,32
 268.020456584 194.195395421 268.020456584 194.195395421 269.128207831 45.8727786393 c 0,33,34
 269.781104739 -74.7884961233 269.781104739 -74.7884961233 320.779935012 -156.870014391 c 128,-1,35
 371.778765285 -238.951532658 371.778765285 -238.951532658 470.332259348 -280.661612078 c 128,-1,36
 568.885753411 -322.371691498 568.885753411 -322.371691498 713.296044921 -324.11687423 c 0,0,1
1107.86835563 193.398234498 m 2,37,-1
 1196.48211631 206.145118054 l 1,38,-1
 1195.69400049 223.365712974 l 2,39,40
 1191.97695971 304.584299759 1191.97695971 304.584299759 1178.76685519 366.538476872 c 128,-1,41
 1165.55675067 428.492653985 1165.55675067 428.492653985 1142.15657707 472.402621445 c 128,-1,42
 1118.75640347 516.312588904 1118.75640347 516.312588904 1083.55674167 538.565997537 c 128,-1,43
 1048.35707987 560.81940617 1048.35707987 560.81940617 1002.18870907 559.93209666 c 0,44,45
 887.809914106 557.752049235 887.809914106 557.752049235 836.531899411 423.095680402 c 0,46,47
 777.465782561 268.653542802 777.465782561 268.653542802 870.968894736 214.634658221 c 0,48,49
 896.631009894 199.930303069 896.631009894 199.930303069 932.051758844 192.801955725 c 128,-1,50
 967.472507795 185.673608382 967.472507795 185.673608382 1013.33762251 185.313279838 c 0,51,52
 1019.46550071 185.257757979 1019.46550071 185.257757979 1026.17576228 185.448709383 c 128,-1,53
 1032.88602384 185.639660787 1032.88602384 185.639660787 1040.16804294 186.076915961 c 128,-1,54
 1047.45006205 186.514171135 1047.45006205 186.514171135 1055.29863699 187.18923697 c 128,-1,55
 1063.14721194 187.864302805 1063.14721194 187.864302805 1071.62691464 188.785025739 c 128,-1,56
 1080.10661733 189.705748674 1080.10661733 189.705748674 1089.13203517 190.855085271 c 128,-1,57
 1098.15745301 192.004421867 1098.15745301 192.004421867 1107.86835563 193.398234498 c 2,37,-1
EndSplineSet
Substitution2: "'init' Initial Forms in Arabic lookup 13 subtable" uni066F.init
Substitution2: "'medi' Medial Forms in Arabic lookup 11 subtable" uni066F.medi
Substitution2: "'fina' Terminal Forms in Arabic lookup 9 subtable" uni066F.fina
EndChar

StartChar: uni0670
Encoding: 1648 1648 75
Width: -29
VWidth: 2574
GlyphClass: 4
Flags: W
AnchorPoint: "Anchor-10" 636.984 1500.61 mark 0
AnchorPoint: "Anchor-9" 636.984 1500.61 mark 0
AnchorPoint: "Anchor-1" 636.984 2087.18 basemark 0
AnchorPoint: "Anchor-1" 636.984 1500.61 mark 0
LayerCount: 2
Fore
SplineSet
593.435546875 1568.26757812 m 1,0,-1
 593.435546875 2019.51660156 l 1,1,-1
 680.533203125 2019.51660156 l 1,2,-1
 680.533203125 1568.26757812 l 1,3,-1
 593.435546875 1568.26757812 l 1,0,-1
EndSplineSet
EndChar

StartChar: uni0674
Encoding: 1652 1652 76
Width: 750
VWidth: 2673
GlyphClass: 2
Flags: W
LayerCount: 2
Fore
SplineSet
253.162148497 1897.84853027 m 2,0,1
 245.338771335 1903.49253809 245.338771335 1903.49253809 238.185869371 1909.37398121 c 0,2,3
 231.05194908 1915.23809766 231.05194908 1915.23809766 224.594712293 1921.33068384 c 0,4,5
 218.152842983 1927.40694369 218.152842983 1927.40694369 212.375183177 1933.71112513 c 0,6,7
 209.492405144 1936.85708075 209.492405144 1936.85708075 206.775153974 1940.0595247 c 0,8,9
 204.057902804 1943.26196865 204.057902804 1943.26196865 201.508757388 1946.51716057 c 0,10,11
 196.416078893 1953.02250218 196.416078893 1953.02250218 191.97907188 1959.74837481 c 0,12,13
 190.502024688 1961.98767887 190.502024688 1961.98767887 189.096404545 1964.25323672 c 0,14,15
 187.690784403 1966.51879456 187.690784403 1966.51879456 186.358166356 1968.80780965 c 0,16,17
 185.02554831 1971.09682473 185.02554831 1971.09682473 183.764440633 1973.4115905 c 0,18,19
 161.0625 2015.08756633 161.0625 2015.08756633 161.0625 2066.09863281 c 0,20,21
 161.0625 2073.92846688 161.0625 2073.92846688 161.427150526 2081.50064114 c 0,22,23
 161.791801053 2089.07281541 161.791801053 2089.07281541 162.519718079 2096.38743618 c 0,24,25
 163.971488144 2110.97678262 163.971488144 2110.97678262 166.86776297 2124.57083149 c 0,26,27
 167.830497386 2129.09102132 167.830497386 2129.09102132 168.953301129 2133.50265608 c 0,28,29
 170.076104872 2137.91429085 170.076104872 2137.91429085 171.356105253 2142.20870561 c 0,30,31
 172.636105634 2146.50312038 172.636105634 2146.50312038 174.075742481 2150.69081483 c 0,32,33
 178.387486315 2163.23305127 178.387486315 2163.23305127 184.12227551 2174.81357747 c 0,34,35
 189.849796386 2186.37661539 189.849796386 2186.37661539 197.011936598 2197.0123238 c 0,36,37
 200.59398578 2202.33209742 200.59398578 2202.33209742 204.532193686 2207.41915635 c 0,38,39
 208.470401593 2212.50621529 208.470401593 2212.50621529 212.767211779 2217.36307382 c 0,40,41
 221.376288349 2227.09320655 221.376288349 2227.09320655 231.440739464 2235.92483718 c 0,42,43
 267.051247548 2267.17338143 267.051247548 2267.17338143 308.278259915 2282.77381341 c 0,44,45
 349.505272281 2298.37424539 349.505272281 2298.37424539 396.904263949 2298.53619072 c 0,46,47
 398.614203125 2298.54216118 398.614203125 2298.54216118 400.317319291 2298.53428961 c 0,48,49
 402.020435457 2298.52641804 402.020435457 2298.52641804 403.717405421 2298.50469846 c 0,50,51
 405.414375385 2298.48297888 405.414375385 2298.48297888 407.105201844 2298.44741812 c 0,52,53
 408.796028303 2298.41185735 408.796028303 2298.41185735 410.481711512 2298.36243993 c 0,54,55
 417.219023992 2298.16585545 417.219023992 2298.16585545 423.852764136 2297.74914997 c 0,56,57
 430.485394001 2297.33258497 430.485394001 2297.33258497 437.020944293 2296.696946 c 0,58,59
 443.552736146 2296.06176519 443.552736146 2296.06176519 449.986159213 2295.20664176 c 0,60,61
 456.415864635 2294.35309052 456.415864635 2294.35309052 462.749058311 2293.27995811 c 0,62,63
 469.080412556 2292.20729851 469.080412556 2292.20729851 475.313040985 2290.91628121 c 0,64,65
 481.543755027 2289.62546356 481.543755027 2289.62546356 487.679530928 2288.11764747 c 0,66,67
 500.860390296 2284.87611297 500.860390296 2284.87611297 514.156353988 2280.37182308 c 0,68,69
 527.452317681 2275.86753318 527.452317681 2275.86753318 539.90725325 2270.49332848 c 0,70,71
 552.36218882 2265.11912378 552.36218882 2265.11912378 563.856550123 2258.98663743 c 1,72,73
 563.893452 2237.26863695 563.893452 2237.26863695 564.19169346 2198.80405879 c 0,74,75
 564.427494799 2168.48027683 564.427494799 2168.48027683 564.502894684 2148.00656157 c 1,76,77
 413.07331941 2213.09072987 413.07331941 2213.09072987 322.893109538 2160.81673095 c 0,78,79
 310.472490531 2153.61722437 310.472490531 2153.61722437 300.779771518 2144.83432181 c 0,80,81
 290.944625543 2135.92128786 290.944625543 2135.92128786 284.002266653 2125.40792546 c 0,82,83
 277.049512049 2114.87943763 277.049512049 2114.87943763 272.973545493 2102.72707576 c 0,84,85
 268.897578936 2090.57471389 268.897578936 2090.57471389 267.713760113 2077.01600691 c 0,86,87
 263.114356428 2024.35320538 263.114356428 2024.35320538 296.577965665 1987.01584796 c 0,88,89
 300.688026013 1982.43014109 300.688026013 1982.43014109 305.375280903 1978.10375281 c 0,90,91
 310.062535793 1973.77736453 310.062535793 1973.77736453 315.295819482 1969.73421072 c 0,92,93
 320.529103171 1965.69105692 320.529103171 1965.69105692 326.288234668 1961.92304244 c 0,94,95
 332.047366165 1958.15502797 332.047366165 1958.15502797 338.371060139 1954.63241615 c 0,96,97
 363.373286823 1940.70493332 363.373286823 1940.70493332 397.16219679 1930.46967254 c 0,98,99
 408.157019333 1926.99244818 408.157019333 1926.99244818 426.230367879 1927.15762323 c 0,100,101
 443.32767901 1927.31386892 443.32767901 1927.31386892 469.630112751 1930.52306284 c 0,102,103
 517.220367108 1936.32984591 517.220367108 1936.32984591 592.133789062 1952.75655016 c 1,104,-1
 592.133789062 1836.43668611 l 1,105,-1
 158.434570312 1739.06945075 l 1,106,-1
 158.434570312 1853.00989791 l 1,107,-1
 277.29116181 1880.43648583 l 1,108,-1
 253.162148497 1897.84853027 l 2,0,1
EndSplineSet
EndChar

StartChar: uni06A1
Encoding: 1697 1697 80
Width: 1859
VWidth: 2673
GlyphClass: 2
Flags: W
AnchorPoint: "Anchor-10" 615.257 1497.07 basechar 0
AnchorPoint: "Anchor-7" 599.289 -313.705 basechar 0
LayerCount: 2
Fore
SplineSet
1739.9581919 520.435800828 m 0,0,1
 1746.78411046 318.079734441 1746.78411046 318.079734441 1672.33506762 219.446607614 c 0,2,3
 1597.7067096 120.575916739 1597.7067096 120.575916739 1417.39705431 70.3019109744 c 0,4,5
 1233.41017925 19.0026214135 1233.41017925 19.0026214135 867.117135709 19.3720639303 c 0,6,7
 488.867479564 19.682093566 488.867479564 19.682093566 305.083634691 146.988289522 c 128,-1,8
 121.299789818 274.294485478 121.299789818 274.294485478 122.511580077 529.126627049 c 0,9,10
 122.950635409 644.043213459 122.950635409 644.043213459 153.914520211 743.56673337 c 1,11,-1
 269.022060027 713.338919348 l 1,12,13
 258.576231975 659.556570501 258.576231975 659.556570501 253.781642437 613.936840575 c 128,-1,14
 248.987052899 568.317110648 248.987052899 568.317110648 249.885527485 530.580712024 c 0,15,16
 252.0685488 348.756680302 252.0685488 348.756680302 409.54347868 258.680755503 c 128,-1,17
 567.01840856 168.604830704 567.01840856 168.604830704 869.537942341 168.198252375 c 0,18,19
 1061.59274025 167.999376019 1061.59274025 167.999376019 1156.70392499 174.0381814 c 0,20,21
 1252.51567007 180.121466802 1252.51567007 180.121466802 1360.69062062 202.22348026 c 0,22,23
 1414.96687773 213.779310609 1414.96687773 213.779310609 1457.21483236 228.204160714 c 128,-1,24
 1499.462787 242.629010819 1499.462787 242.629010819 1531.9571981 261.098558338 c 128,-1,25
 1564.4516092 279.568105857 1564.4516092 279.568105857 1584.68019697 302.701808533 c 128,-1,26
 1604.90878475 325.835511209 1604.90878475 325.835511209 1612.39361981 353.442203819 c 2,27,-1
 1619.90621234 381.151275641 l 1,28,-1
 1527.21214902 368.392823106 l 2,29,30
 1177.96366379 322.72607238 1177.96366379 322.72607238 1114.49175109 530.041744747 c 0,31,32
 1079.12653221 646.131879502 1079.12653221 646.131879502 1144.5508913 809.025296915 c 0,33,34
 1231.85916289 1027.00478474 1231.85916289 1027.00478474 1418.32311499 1027.07332053 c 0,35,36
 1569.80368261 1027.50831315 1569.80368261 1027.50831315 1650.46933672 903.24793994 c 128,-1,37
 1731.13499083 778.987566726 1731.13499083 778.987566726 1739.9581919 520.435800828 c 0,0,1
1573.67725821 510.817879327 m 2,38,-1
 1610.7783711 516.155294598 l 1,39,-1
 1609.43555106 545.965457612 l 2,40,41
 1594.10994358 875.584560635 1594.10994358 875.584560635 1416.26701014 869.937367784 c 0,42,43
 1301.76912355 866.625209469 1301.76912355 866.625209469 1250.83251631 733.088090324 c 0,44,45
 1203.10292659 607.900579982 1203.10292659 607.900579982 1254.9319788 550.495901522 c 0,46,47
 1302.41273224 498.191780058 1302.41273224 498.191780058 1427.50530594 495.32542818 c 0,48,49
 1461.23601237 494.986626703 1461.23601237 494.986626703 1573.67725821 510.817879327 c 2,38,-1
EndSplineSet
Substitution2: "'init' Initial Forms in Arabic lookup 13 subtable" uni06A1.init
Substitution2: "'medi' Medial Forms in Arabic lookup 11 subtable" uni06A1.medi
Substitution2: "'fina' Terminal Forms in Arabic lookup 9 subtable" uni06A1.fina
EndChar

StartChar: uni06A9
Encoding: 1705 1705 81
Width: 1918
VWidth: 2673
GlyphClass: 2
Flags: W
AnchorPoint: "Anchor-10" 454.898 1468.88 basechar 0
AnchorPoint: "Anchor-7" 581.416 -322.06 basechar 0
LayerCount: 2
Fore
SplineSet
1085.4044041 1052.56941879 m 2,0,1
 1367.23908817 845.909467898 1367.23908817 845.909467898 1505.37316892 712.346701415 c 0,2,3
 1682.97516735 539.98681611 1682.97516735 539.98681611 1682.46306792 374.229542582 c 0,4,5
 1682.02306053 272.378968889 1682.02306053 272.378968889 1636.99533675 198.620371862 c 0,6,7
 1524.30500945 18.7178379589 1524.30500945 18.7178379589 1240.87047656 18.9999905857 c 2,8,-1
 867.10639374 19.3720639301 l 2,9,10
 488.862161604 19.6820934673 488.862161604 19.6820934673 305.080975466 146.988238024 c 128,-1,11
 121.299789329 274.29438258 121.299789329 274.29438258 122.511580077 529.126627049 c 0,12,13
 122.950635409 644.043213459 122.950635409 644.043213459 153.914520211 743.56673337 c 1,14,-1
 269.104017689 713.317396857 l 1,15,16
 249.05203182 607.121683618 249.05203182 607.121683618 249.885629931 530.625009997 c 0,17,18
 253.130836733 348.156094098 253.130836733 348.156094098 410.554675912 258.110547721 c 128,-1,19
 567.97851509 168.065001344 567.97851509 168.065001344 869.573823754 168.198244042 c 2,20,-1
 1190.0620589 168.339853246 l 2,21,22
 1548.67573334 167.981318902 1548.67573334 167.981318902 1551.90490917 355.763805688 c 0,23,24
 1552.00071301 361.897267729 1552.00071301 361.897267729 1551.97285408 367.694909106 c 0,25,26
 1551.99020235 371.698021249 1551.99020235 371.698021249 1551.7269385 375.267154335 c 128,-1,27
 1551.46367466 378.836287421 1551.46367466 378.836287421 1550.80658923 382.884711742 c 0,28,29
 1549.80178692 387.877765472 1549.80178692 387.877765472 1549.22021289 393.387148427 c 2,30,-1
 1549.16152752 393.943088305 l 1,31,32
 1532.71579693 493.321705019 1532.71579693 493.321705019 1397.74769836 623.165967863 c 0,33,34
 1265.86437912 749.950069668 1265.86437912 749.950069668 1019.88135456 909.694402163 c 0,35,36
 958.986269258 949.314530073 958.986269258 949.314530073 958.843365712 1058.4606858 c 0,37,38
 958.457853535 1119.07355169 958.457853535 1119.07355169 987.539224678 1160.20367507 c 128,-1,39
 1016.62059582 1201.33379846 1016.62059582 1201.33379846 1077.94660527 1226.00040486 c 2,40,-1
 1827.31640625 1527.41264567 l 1,41,-1
 1827.31640625 1382.57486786 l 1,42,-1
 1051.76398434 1077.23681386 l 1,43,-1
 1085.4044041 1052.56941879 l 2,0,1
EndSplineSet
Substitution2: "'init' Initial Forms in Arabic lookup 13 subtable" uniFB90
Substitution2: "'medi' Medial Forms in Arabic lookup 11 subtable" uniFB91
Substitution2: "'fina' Terminal Forms in Arabic lookup 9 subtable" uniFB8F
EndChar

StartChar: afii57514
Encoding: 1722 1722 83
Width: 1456
VWidth: 2673
GlyphClass: 2
Flags: W
AnchorPoint: "Anchor-10" 713.563 1077.92 basechar 0
AnchorPoint: "Anchor-7" 741.166 -657.812 basechar 0
LayerCount: 2
Fore
SplineSet
713.212727315 -271.574170781 m 0,0,1
 946.773791271 -272.306469202 946.773791271 -272.306469202 1066.54078617 -162.725070794 c 128,-1,2
 1186.30778106 -53.143672387 1186.30778106 -53.143672387 1185.56532183 162.255426232 c 0,3,4
 1185.01121177 326.704572802 1185.01121177 326.704572802 1107.97296832 549.638536777 c 1,5,-1
 1237.50872246 594.895803002 l 1,6,7
 1321.90944723 358.596853162 1321.90944723 358.596853162 1321.51970632 130.547384719 c 0,8,9
 1320.89152943 -15.7817740693 1320.89152943 -15.7817740693 1260.55560901 -142.001963476 c 0,10,11
 1196.6462256 -276.918966889 1196.6462256 -276.918966889 1059.57790453 -345.0962189 c 0,12,13
 990.408587227 -379.377297231 990.408587227 -379.377297231 901.706669981 -396.601754814 c 128,-1,14
 813.004752735 -413.826212396 813.004752735 -413.826212396 704.742461913 -413.65820462 c 0,15,16
 239.922428159 -413.842617985 239.922428159 -413.842617985 151.966804779 -71.5663053485 c 0,17,18
 131.163751039 10.4742994693 131.163751039 10.4742994693 130.609295644 111.32151539 c 0,19,20
 130.034498098 310.198702693 130.034498098 310.198702693 228.234413932 524.670796273 c 1,21,-1
 349.369396596 475.97053384 l 1,22,23
 268.015749104 266.320883678 268.015749104 266.320883678 268.868478728 118.410182201 c 0,24,25
 269.977789371 -74.3354639019 269.977789371 -74.3354639019 382.832366395 -172.779658837 c 128,-1,26
 495.686943418 -271.223853771 495.686943418 -271.223853771 713.212727315 -271.574170781 c 0,0,1
EndSplineSet
Substitution2: "'init' Initial Forms in Arabic lookup 13 subtable" uni06BA.init
Substitution2: "'medi' Medial Forms in Arabic lookup 11 subtable" uni06BA.medi
Substitution2: "'fina' Terminal Forms in Arabic lookup 9 subtable" uniFB9F
EndChar

StartChar: uni06F4
Encoding: 1780 1780 90
Width: 1227
VWidth: 2673
GlyphClass: 2
Flags: W
LayerCount: 2
Fore
SplineSet
463.526726469 856.605443127 m 2,0,1
 504.367142837 667.926778974 504.367142837 667.926778974 527.050143772 461.14687729 c 0,2,3
 549.733144707 254.366975606 549.733144707 254.366975606 554.281857265 29.4404296875 c 1,4,-1
 426.134037068 29.4404296875 l 1,5,6
 409.675078098 742.946642773 409.675078098 742.946642773 154.132591088 1395.24606715 c 1,7,-1
 280.113713397 1438.3448921 l 1,8,9
 290.119090483 1411.8879587 290.119090483 1411.8879587 299.522845276 1386.38793936 c 0,10,11
 308.926600069 1360.88792002 308.926600069 1360.88792002 317.735172693 1336.32858139 c 0,12,13
 326.543745318 1311.76924277 326.543745318 1311.76924277 334.764312692 1288.12814408 c 0,14,15
 342.984880066 1264.4870454 342.984880066 1264.4870454 350.619646385 1241.76314849 c 0,16,17
 358.254412703 1219.03925159 358.254412703 1219.03925159 365.315073209 1197.1939075 c 0,18,19
 372.375733715 1175.3485634 372.375733715 1175.3485634 378.859974278 1154.39694216 c 0,20,21
 385.344214842 1133.44532091 385.344214842 1133.44532091 391.26824903 1113.33256533 c 0,22,23
 397.192283218 1093.21980976 397.192283218 1093.21980976 402.549278578 1073.9772981 c 0,24,25
 407.906273937 1054.73478644 407.906273937 1054.73478644 412.716679963 1036.29246633 c 2,26,-1
 437.346057955 941.867407305 l 1,27,-1
 454.225220432 1071.53479056 l 2,28,29
 479.287932197 1264.30926964 479.287932197 1264.30926964 579.008137998 1358.74905005 c 0,30,31
 678.728343798 1453.18883046 678.728343798 1453.18883046 857.127582688 1454.29535024 c 0,32,33
 902.826339654 1454.60221875 902.826339654 1454.60221875 943.483994665 1449.20262572 c 0,34,35
 984.141649675 1443.80303268 984.141649675 1443.80303268 1017.37471662 1433.32126882 c 1,36,-1
 1000.79625245 1295.58525448 l 1,37,38
 966.618799086 1303.48468648 966.618799086 1303.48468648 933.952843933 1307.1943969 c 0,39,40
 901.286888781 1310.90410732 901.286888781 1310.90410732 867.341040027 1310.82614741 c 0,41,42
 839.541825271 1310.8707625 839.541825271 1310.8707625 813.071877003 1307.14218693 c 0,43,44
 786.601928735 1303.41361136 786.601928735 1303.41361136 761.557810292 1295.93201392 c 0,45,46
 736.513691848 1288.45041649 736.513691848 1288.45041649 712.907721613 1277.18584545 c 0,47,48
 689.301751377 1265.92127442 689.301751377 1265.92127442 667.301989097 1250.93249516 c 0,49,50
 576.782241001 1189.25998682 576.782241001 1189.25998682 556.740134375 1082.5218741 c 0,51,52
 547.325866982 1032.61341601 547.325866982 1032.61341601 570.527752107 993.297185149 c 0,53,54
 593.729637233 953.980954293 593.729637233 953.980954293 645.720385214 928.694787977 c 0,55,56
 725.635078585 890.003565069 725.635078585 890.003565069 871.020675211 889.885753437 c 0,57,58
 919.004819583 889.937968326 919.004819583 889.937968326 966.472173135 898.491460185 c 0,59,60
 1013.93952669 907.044952044 1013.93952669 907.044952044 1059.03887109 923.586163785 c 1,61,-1
 1076.13898162 795.564984272 l 1,62,63
 1040.24270136 783.542585937 1040.24270136 783.542585937 1004.86623508 775.702632986 c 0,64,65
 969.489768807 767.862680035 969.489768807 767.862680035 934.252692855 764.082357084 c 0,66,67
 899.015616902 760.302034133 899.015616902 760.302034133 863.03809625 760.434532119 c 0,68,69
 725.30603083 760.710694526 725.30603083 760.710694526 633.846082131 789.34727521 c 0,70,71
 542.386133431 817.983855894 542.386133431 817.983855894 496.689909692 872.792071877 c 2,72,-1
 447.165750024 932.191528054 l 1,73,-1
 463.526726469 856.605443127 l 2,0,1
EndSplineSet
EndChar

StartChar: uni06F5
Encoding: 1781 1781 91
Width: 1380
VWidth: 2673
GlyphClass: 2
Flags: W
LayerCount: 2
Fore
SplineSet
276.447408104 374.645426272 m 0,0,1
 276.738164166 276.423816073 276.738164166 276.423816073 314.529859463 222.711277746 c 128,-1,2
 352.321554759 168.99873942 352.321554759 168.99873942 426.89490457 168.997070316 c 0,3,4
 587.001041065 169.000216149 587.001041065 169.000216149 650.589969306 453.401067589 c 1,5,-1
 739.283156341 453.325977297 l 1,6,7
 756.481577129 360.626501034 756.481577129 360.626501034 785.960117637 297.39244725 c 128,-1,8
 815.438658144 234.158393466 815.438658144 234.158393466 859.945164995 199.962600867 c 128,-1,9
 904.451671846 165.766808268 904.451671846 165.766808268 962.512162388 165.631910357 c 0,10,11
 1037.37964837 165.841453499 1037.37964837 165.841453499 1075.04380969 219.598071897 c 128,-1,12
 1112.70797101 273.354690295 1112.70797101 273.354690295 1112.38364683 371.446564251 c 0,13,14
 1110.9686813 737.130776308 1110.9686813 737.130776308 669.928386371 1160.33438803 c 2,15,-1
 655.548157252 1174.13304763 l 1,16,-1
 642.451699729 1159.11050468 l 2,17,18
 395.931950877 876.33529554 395.931950877 876.33529554 302.500099888 556.220448416 c 0,19,20
 275.986190276 465.677539871 275.986190276 465.677539871 276.447408104 374.645426272 c 0,0,1
673.901392011 206.752159934 m 2,21,22
 651.018483406 143.665868587 651.018483406 143.665868587 612.343938533 103.392711487 c 128,-1,23
 573.66939366 63.119554387 573.66939366 63.119554387 517.744290247 44.7341674227 c 128,-1,24
 461.819186835 26.3487804585 461.819186835 26.3487804585 387.627579943 29.807771864 c 0,25,26
 257.458180904 35.9809008961 257.458180904 35.9809008961 197.080405912 125.420065646 c 128,-1,27
 136.70263092 214.859230396 136.70263092 214.859230396 144.957477944 396.306341786 c 0,28,29
 164.544894239 785.575466296 164.544894239 785.575466296 544.326123425 1259.55924241 c 2,30,-1
 555.337531107 1273.2896063 l 1,31,-1
 504.55631098 1320.82412473 l 1,32,-1
 598.505302452 1435.62763363 l 1,33,-1
 700.506833683 1338.86775299 l 1,34,35
 1242.99352 829.780273168 1242.99352 829.780273168 1242.63770451 380.102393964 c 0,36,37
 1242.81358913 201.394141652 1242.81358913 201.394141652 1175.98966539 115.881734851 c 128,-1,38
 1109.16574165 30.3693280497 1109.16574165 30.3693280497 973.04237852 29.8074699137 c 0,39,40
 781.051577258 29.0515358409 781.051577258 29.0515358409 717.166062211 206.692551102 c 2,41,-1
 695.61553633 266.616264548 l 1,42,-1
 673.901392011 206.752159934 l 2,21,22
EndSplineSet
EndChar

StartChar: uni06F6
Encoding: 1782 1782 92
Width: 1108
VWidth: 2673
GlyphClass: 2
Flags: W
LayerCount: 2
Fore
SplineSet
514.634021812 709.848401111 m 2,0,1
 329.510125948 741.205284763 329.510125948 741.205284763 240.610441348 831.073196561 c 128,-1,2
 151.710756747 920.941108359 151.710756747 920.941108359 153.278411262 1072.1749522 c 0,3,4
 153.958403803 1142.60025023 153.958403803 1142.60025023 186.799646269 1211.21302526 c 0,5,6
 301.797590171 1444.94038774 301.797590171 1444.94038774 625.714790627 1443.30993203 c 0,7,8
 668.575758119 1443.04545087 668.575758119 1443.04545087 738.95719091 1432.46521838 c 1,9,-1
 719.598760762 1299.77086407 l 1,10,11
 697.149242563 1301.53088559 697.149242563 1301.53088559 675.245843216 1302.46653215 c 128,-1,12
 653.342443869 1303.40217871 653.342443869 1303.40217871 628.192103018 1303.70169679 c 0,13,14
 576.08690731 1303.45994215 576.08690731 1303.45994215 531.125469492 1295.59089682 c 128,-1,15
 486.164031673 1287.7218515 486.164031673 1287.7218515 447.674077968 1271.83257798 c 128,-1,16
 409.184124263 1255.94330446 409.184124263 1255.94330446 378.057082182 1232.07599393 c 0,17,18
 286.034332628 1162.47819742 286.034332628 1162.47819742 285.647355089 1056.03471893 c 0,19,20
 286.037179572 928.839633135 286.037179572 928.839633135 430.356832634 862.054592082 c 0,21,22
 529.155674951 816.865227351 529.155674951 816.865227351 635.107255922 819.0920858 c 2,23,-1
 640.191444833 819.198943753 l 1,24,-1
 643.963706853 821.050807799 l 2,25,26
 689.082045461 843.200125278 689.082045461 843.200125278 729.79731291 862.613314308 c 128,-1,27
 770.51258036 882.026503339 770.51258036 882.026503339 806.155487297 898.396068351 c 128,-1,28
 841.798394233 914.765633363 841.798394233 914.765633363 872.761027525 928.291569331 c 128,-1,29
 903.723660818 941.817505298 903.723660818 941.817505298 929.609298602 952.329250037 c 128,-1,30
 955.494936387 962.840994775 955.494936387 962.840994775 976.423098041 970.401609872 c 1,31,-1
 982.139466086 831.774915378 l 1,32,33
 507.232838444 634.211781433 507.232838444 634.211781433 301.751153917 35.5333394245 c 1,34,-1
 176.55383966 77.4640169946 l 1,35,36
 310.127655935 443.660422466 310.127655935 443.660422466 532.691210572 676.724770542 c 2,37,-1
 557.404285589 702.603835636 l 1,38,-1
 514.634021812 709.848401111 l 2,0,1
EndSplineSet
EndChar

StartChar: uniFB8F
Encoding: 64399 64399 107
Width: 1979
VWidth: 2673
GlyphClass: 2
Flags: W
AnchorPoint: "Anchor-10" 511.401 1434.68 basechar 0
AnchorPoint: "Anchor-7" 605.982 -265.947 basechar 0
LayerCount: 2
Fore
SplineSet
1085.83693383 1052.25998718 m 2,0,1
 1183.78891623 983.86099848 1183.78891623 983.86099848 1276.25182681 910.153669135 c 128,-1,2
 1368.7147374 836.446339789 1368.7147374 836.446339789 1455.60765692 757.498997257 c 0,3,4
 1645.14597702 584.655569141 1645.14597702 584.655569141 1698.27863653 392.305777527 c 0,5,6
 1728.39797599 284.55874645 1728.39797599 284.55874645 1794.44111988 227.834008827 c 128,-1,7
 1860.48426378 171.109271203 1860.48426378 171.109271203 1959.60863329 169.418778078 c 2,8,-1
 1980.58331367 169.06107035 l 1,9,10
 1988.28417969 153.346203359 1988.28417969 153.346203359 1988.28417969 101.455078125 c 2,11,-1
 1988.28428735 84.4809530486 l 2,12,13
 1988.11675978 34.716054554 1988.11675978 34.716054554 1980.62765184 19 c 1,14,-1
 1968.95410156 19 l 2,15,16
 1750.19035774 19 1750.19035774 19 1666.73935304 176.928478734 c 2,17,-1
 1650.18269231 208.261453696 l 1,18,-1
 1628.29748696 180.364123472 l 2,19,20
 1502.57770609 19.7863053294 1502.57770609 19.7863053294 1240.1253105 19.6152303386 c 2,21,-1
 867.081592509 19.3720680716 l 2,22,23
 488.846043135 19.1883689392 488.846043135 19.1883689392 305.072862901 146.488912013 c 128,-1,24
 121.299682667 273.789455087 121.299682667 273.789455087 122.511580077 529.126627049 c 0,25,26
 122.950635409 644.043213459 122.950635409 644.043213459 153.914520211 743.56673337 c 1,27,-1
 269.104017689 713.317396857 l 1,28,29
 249.05203182 607.121683618 249.05203182 607.121683618 249.885624595 530.625499696 c 0,30,31
 253.131380155 347.595047886 253.131380155 347.595047886 410.572427033 257.540740703 c 128,-1,32
 568.013473911 167.48643352 568.013473911 167.48643352 869.618086769 168.19829511 c 2,33,-1
 1189.41421593 168.953127104 l 2,34,35
 1236.95107809 168.975500683 1236.95107809 168.975500683 1278.28046237 172.291184892 c 128,-1,36
 1319.60984664 175.606869102 1319.60984664 175.606869102 1354.91532637 182.27975362 c 0,37,38
 1463.21340195 202.748546494 1463.21340195 202.748546494 1513.65008342 256.836000704 c 128,-1,39
 1564.08676489 310.923454913 1564.08676489 310.923454913 1548.26159897 395.685585344 c 0,40,41
 1529.12515431 496.681154251 1529.12515431 496.681154251 1402.52903824 618.466102604 c 128,-1,42
 1275.93292218 740.251050958 1275.93292218 740.251050958 1040.30296901 889.12393803 c 0,43,44
 959.030224351 940.453212224 959.030224351 940.453212224 959.375078446 1060.03496177 c 0,45,46
 959.036807998 1178.17239203 959.036807998 1178.17239203 1077.94660527 1226.00040486 c 2,47,-1
 1827.31640625 1527.41264567 l 1,48,-1
 1827.31640625 1382.57486762 l 1,49,-1
 1050.67975135 1076.80993163 l 1,50,-1
 1085.83693383 1052.25998718 l 2,0,1
EndSplineSet
EndChar

StartChar: uniFB9F
Encoding: 64415 64415 115
Width: 1530
VWidth: 2673
GlyphClass: 2
Flags: W
AnchorPoint: "Anchor-10" 584.095 834.644 basechar 0
AnchorPoint: "Anchor-7" 486.387 -737.016 basechar 0
LayerCount: 2
Fore
SplineSet
1513.50683594 19 m 2,0,1
 1425.50894788 19 1425.50894788 19 1353.54772725 86.4076089666 c 2,2,-1
 1321.71144124 116.229336555 l 1,3,-1
 1321.55871021 72.6075390588 l 2,4,5
 1321.01507832 -82.6601921446 1321.01507832 -82.6601921446 1260.55059076 -209.119987657 c 0,6,7
 1131.97112857 -480.993587153 1131.97112857 -480.993587153 704.742461913 -480.765626495 c 0,8,9
 239.922428159 -480.95003986 239.922428159 -480.95003986 151.966804779 -138.673727223 c 0,10,11
 131.163751039 -56.6331224053 131.163751039 -56.6331224053 130.609295644 44.214093516 c 0,12,13
 130.034498098 243.091280818 130.034498098 243.091280818 228.234413932 457.563374399 c 1,14,-1
 349.369396596 408.863111965 l 1,15,16
 268.015749104 199.213461803 268.015749104 199.213461803 268.868478728 51.3027603257 c 0,17,18
 269.977753426 -141.436640252 269.977753426 -141.436640252 382.840593672 -239.883963339 c 128,-1,19
 495.703433918 -338.331286427 495.703433918 -338.331286427 713.20272915 -338.681560778 c 0,20,21
 946.761227526 -339.358678592 946.761227526 -339.358678592 1066.53450184 -229.776373745 c 128,-1,22
 1186.30777616 -120.194068899 1186.30777616 -120.194068899 1185.56532068 95.1483466978 c 0,23,24
 1185.01119089 258.728608584 1185.01119089 258.728608584 1107.95252263 482.522994714 c 1,25,-1
 1236.69867238 527.504386404 l 1,26,-1
 1297.95844757 338.12462508 l 2,27,28
 1315.61682474 283.000285445 1315.61682474 283.000285445 1346.37808342 245.316617119 c 128,-1,29
 1377.13934209 207.632948794 1377.13934209 207.632948794 1420.5143683 188.315009553 c 128,-1,30
 1463.88939451 168.997070312 1463.88939451 168.997070312 1518.56835938 168.997070312 c 2,31,-1
 1532.20431643 168.997070312 l 1,32,33
 1539.59570312 153.722863153 1539.59570312 153.722863153 1539.59570312 105.715820312 c 2,34,-1
 1539.59592102 84.3259968508 l 2,35,36
 1539.65712231 71.5471976436 1539.65712231 71.5471976436 1538.98556939 60.0631433517 c 128,-1,37
 1538.31401648 48.5790890597 1538.31401648 48.5790890597 1537.1865939 40.5600738593 c 128,-1,38
 1536.05917133 32.5410586589 1536.05917133 32.5410586589 1534.79625132 27.0743568062 c 128,-1,39
 1533.53333131 21.6076549536 1533.53333131 21.6076549536 1532.25430546 19 c 2,40,-1
 1513.50683594 19 l 2,0,1
EndSplineSet
EndChar

StartChar: uniFBE8
Encoding: 64488 64488 118
Width: 702
VWidth: 2673
GlyphClass: 2
Flags: W
AnchorPoint: "Anchor-10" 351.383 1275 basechar 0
AnchorPoint: "Anchor-7" 341.979 -442.214 basechar 0
LayerCount: 2
Fore
SplineSet
-6.26953125 19 m 2,0,1
 -36.2602889049 19 -36.2602889049 19 -49.2380546087 33.6136763487 c 128,-1,2
 -62.2158203125 48.2273526974 -62.2158203125 48.2273526974 -62.2158203125 84.4111328125 c 2,3,-1
 -62.2158793901 101.407697261 l 2,4,5
 -62.1225944217 138.815391727 -62.1225944217 138.815391727 -49.0222470506 153.90623102 c 128,-1,6
 -35.9218996796 168.997070312 -35.9218996796 168.997070312 -6.26953125 168.997070312 c 2,7,-1
 120.238617058 168.997070315 l 2,8,9
 294.4559836 169.000149449 294.4559836 169.000149449 369.046521726 251.790236757 c 0,10,11
 433.019238943 322.718717672 433.019238943 322.718717672 432.591493173 484.441411421 c 0,12,13
 432.402552955 517.85764033 432.402552955 517.85764033 428.585431713 556.705328421 c 128,-1,14
 424.768310471 595.553016512 424.768310471 595.553016512 417.520797775 638.703824979 c 128,-1,15
 410.273285078 681.854633445 410.273285078 681.854633445 399.629269138 729.53648956 c 1,16,-1
 530.064030786 752.871758851 l 1,17,18
 566.980551561 598.984269876 566.980551561 598.984269876 566.72779936 482.087736058 c 0,19,20
 565.998933556 342.845995434 565.998933556 342.845995434 530.030655453 251.216396273 c 0,21,22
 509.979415442 200.616543801 509.979415442 200.616543801 484.783090968 163.11885885 c 128,-1,23
 459.586766494 125.6211739 459.586766494 125.6211739 429.772499919 101.267981182 c 0,24,25
 326.364069597 19 326.364069597 19 110.227539062 19 c 2,26,-1
 -6.26953125 19 l 2,0,1
EndSplineSet
EndChar

StartChar: uniFBE9
Encoding: 64489 64489 119
Width: 776
VWidth: 2673
GlyphClass: 2
Flags: W
AnchorPoint: "Anchor-10" 346.305 1176.73 basechar 0
AnchorPoint: "Anchor-7" 377.819 -156.012 basechar 0
LayerCount: 2
Fore
SplineSet
-7.3349609375 19 m 2,0,1
 -36.6980413117 19 -36.6980413117 19 -49.4569308121 33.5714448471 c 128,-1,2
 -62.2158203125 48.1428896941 -62.2158203125 48.1428896941 -62.2158203125 84.4111328125 c 2,3,-1
 -62.2158793901 101.407697261 l 2,4,5
 -62.1223962513 138.894858938 -62.1223962513 138.894858938 -49.243141286 153.945964625 c 128,-1,6
 -36.3638863206 168.997070312 -36.3638863206 168.997070312 -7.3349609375 168.997070312 c 2,7,-1
 85.8986369402 168.997070313 l 2,8,9
 382.535483063 169.000184066 382.535483063 169.000184066 398.650998092 333.786431559 c 2,10,-1
 421.552822596 567.96484375 l 1,11,-1
 517.937381418 567.96484375 l 1,12,-1
 542.902624609 333.530254069 l 2,13,14
 551.829701496 252.247067899 551.829701496 252.247067899 608.180066404 210.622069106 c 128,-1,15
 664.530431312 168.997070312 664.530431312 168.997070312 761.557617188 168.997070312 c 2,16,-1
 777.954786983 168.997070312 l 1,17,18
 785.608398438 152.677035713 785.608398438 152.677035713 785.608398438 101.455078125 c 2,19,-1
 785.608602868 84.3288541311 l 2,20,21
 785.839961118 34.4552850331 785.839961118 34.4552850331 778.261187467 19 c 1,22,-1
 763.141601562 19 l 2,23,24
 572.560043787 19 572.560043787 19 491.046223994 140.756578428 c 2,25,-1
 474.574900717 165.359669897 l 1,26,-1
 454.800552787 143.304523641 l 2,27,28
 343.508575267 19 343.508575267 19 90.189453125 19 c 2,29,-1
 -7.3349609375 19 l 2,0,1
EndSplineSet
EndChar

StartChar: uniFE73
Encoding: 65139 65139 127
Width: 672
VWidth: 2673
GlyphClass: 2
Flags: W
AnchorPoint: "Anchor-10" 248.454 1557.52 basechar 0
AnchorPoint: "Anchor-7" 248.454 -151.098 basechar 0
LayerCount: 2
Fore
SplineSet
320.426240197 408.325195312 m 1,0,1
 322.306454648 363.641042186 322.306454648 363.641042186 342.08792363 323.048692553 c 128,-1,2
 361.869392612 282.45634292 361.869392612 282.45634292 399.048758504 245.277472898 c 0,3,4
 435.815958065 208.507056705 435.815958065 208.507056705 492.792646963 190.473684808 c 0,5,6
 547.804951729 173.060546875 547.804951729 173.060546875 621.719726562 173.060546875 c 2,7,-1
 671.1875 173.060546875 l 1,8,-1
 671.1875 29.4404296875 l 1,9,-1
 549.430664062 29.4404296875 l 2,10,11
 383.140517017 29.4404296875 383.140517017 29.4404296875 276.605012881 135.975005741 c 0,12,13
 176.641601562 235.939342125 176.641601562 235.939342125 176.641601562 400.916992188 c 2,14,-1
 176.641601562 408.325195312 l 1,15,-1
 320.426240197 408.325195312 l 1,0,1
EndSplineSet
EndChar

StartChar: uniFE8E
Encoding: 65166 65166 153
Width: 559
VWidth: 2673
GlyphClass: 2
Flags: W
AnchorPoint: "Anchor-10" 247.848 1676.01 basechar 0
AnchorPoint: "Anchor-7" 269.956 -308.324 basechar 0
LayerCount: 2
Fore
SplineSet
561.227834326 19 m 1,0,-1
 545.927628366 18.9999999692 l 2,1,2
 368.342221648 18.9898816052 368.342221648 18.9898816052 280.666716293 131.534881253 c 128,-1,3
 192.991210938 244.0798809 192.991210938 244.0798809 192.991210938 477.540039062 c 2,4,-1
 192.991210938 1489.36914062 l 1,5,-1
 330.11328125 1489.36914062 l 1,6,-1
 330.113286736 489.088656814 l 2,7,8
 329.9955335 334.129459432 329.9955335 334.129459432 385.473354909 253.032425746 c 0,9,10
 442.981263487 168.997070312 442.981263487 168.997070312 548.688476562 168.997070312 c 2,11,-1
 560.893261904 168.997070312 l 1,12,13
 568.546875 152.677031085 568.546875 152.677031085 568.546875 101.455078125 c 2,14,-1
 568.546875 84.3659994148 l 2,15,16
 568.679065874 59.7388965422 568.679065874 59.7388965422 566.385164611 42.28563186 c 128,-1,17
 564.091263347 24.8323671777 564.091263347 24.8323671777 561.227834326 19 c 1,0,-1
EndSplineSet
EndChar

StartChar: uniFEA2
Encoding: 65186 65186 173
Width: 1458
VWidth: 2673
GlyphClass: 2
Flags: W
AnchorPoint: "Anchor-10" 623.168 1394.32 basechar 0
AnchorPoint: "Anchor-7" 471.381 -800.801 basechar 0
LayerCount: 2
Fore
SplineSet
890.093793828 -686.036132743 m 0
 529.231496114 -686.018322248 529.231496114 -686.018322248 353.647631572 -552.959099186 c 0
 178.063767031 -419.899876125 178.063767031 -419.899876125 179.063362918 -151.965128946 c 0
 180.006007053 120.577866676 180.006007053 120.577866676 359.339431339 294.654474007 c 0
 538.672855625 468.731081339 538.672855625 468.731081339 902.214897959 546.022809626 c 2
 974.354324678 561.360185554 l 1
 916.48455353 584.606306418 l 2
 878.598895472 599.824866449 878.598895472 599.824866449 739.605670695 646.992242366 c 0
 598.050688122 695.028951254 598.050688122 695.028951254 522.539851533 694.332358705 c 0
 393.924432064 691.946209861 393.924432064 691.946209861 250.497984425 540.076522781 c 1
 147.677346442 614.821215509 l 1
 156.500808503 626.685203496 l 2
 314.481168024 838.917075635 314.481168024 838.917075635 535.147183914 837.003488991 c 0
 597.669989158 836.523744505 597.669989158 836.523744505 690.925625003 811.700608748 c 0
 784.181260848 786.877472991 784.181260848 786.877472991 906.092585053 737.73684669 c 0
 1024.06139754 690.436272967 1024.06139754 690.436272967 1120.67749824 658.801631296 c 0
 1217.29359894 627.166989624 1217.29359894 627.166989624 1291.73044303 611.452049773 c 1
 1285.78129397 459.300230339 l 1
 1202.7045056 457.700152326 1202.7045056 457.700152326 1135.38573579 446.34163143 c 2
 1119.546875 443.669181655 l 1
 1119.54690909 424.173970131 l 2
 1119.78929975 296.213117262 1119.78929975 296.213117262 1202.61900638 231.771926384 c 0
 1285.44871301 167.330735505 1285.44871301 167.330735505 1442.50984036 168.800636708 c 2
 1459.78754765 168.962335043 l 1
 1462.80399288 162.728893222 1462.80399288 162.728893222 1464.98305113 146.097843489 c 0
 1467.16210938 129.466793756 1467.16210938 129.466793756 1467.16210938 105.715820312 c 2
 1467.16214441 84.4534785922 l 2
 1467.06662416 34.7121726254 1467.06662416 34.7121726254 1459.56169462 19 c 1
 1443.16503906 19 l 2
 1370.83155901 19 1370.83155901 19 1311.19787942 29.3815649705 c 0
 1251.56419983 39.763129941 1251.56419983 39.763129941 1204.17158664 60.7204750434 c 0
 1156.77897344 81.6778201458 1156.77897344 81.6778201458 1121.61004804 113.082400832 c 0
 1086.44112264 144.486981518 1086.44112264 144.486981518 1063.10622094 186.766446186 c 0
 1039.77131924 229.045910854 1039.77131924 229.045910854 1028.17938803 281.822719503 c 0
 1016.58745682 334.599528153 1016.58745682 334.599528153 1016.41790194 398.534762418 c 2
 1016.34405413 426.381069009 l 1
 993.722171564 421.911086318 l 2
 309.012826954 286.615586012 309.012826954 286.615586012 308.652371937 -152.248522513 c 0
 308.309804151 -351.126558101 308.309804151 -351.126558101 457.167863069 -450.326026439 c 0
 606.025921987 -549.525494777 606.025921987 -549.525494777 894.359514407 -549.035156002 c 0
 1102.48757187 -549.001536803 1102.48757187 -549.001536803 1274.80220393 -495.001228596 c 1
 1301.69250236 -628.366128515 l 1
 1121.52966822 -686.001987178 1121.52966822 -686.001987178 890.093793828 -686.036132743 c 0
EndSplineSet
EndChar

StartChar: uniFEA3
Encoding: 65187 65187 174
Width: 1451
VWidth: 2673
GlyphClass: 2
Flags: W
AnchorPoint: "Anchor-10" 516.584 1339.16 basechar 0
AnchorPoint: "Anchor-7" 706.593 -316.924 basechar 0
LayerCount: 2
Fore
SplineSet
-6.26953125 19 m 2,0,1
 -36.2602889049 19 -36.2602889049 19 -49.2380546087 33.6136763487 c 128,-1,2
 -62.2158203125 48.2273526974 -62.2158203125 48.2273526974 -62.2158203125 84.4111328125 c 2,3,-1
 -62.2158793901 101.407697261 l 2,4,5
 -62.1225944217 138.815391727 -62.1225944217 138.815391727 -49.0222470506 153.90623102 c 128,-1,6
 -35.9218996796 168.997070312 -35.9218996796 168.997070312 -6.26953125 168.997070312 c 2,7,-1
 167.741317115 168.997070312 l 2,8,9
 698.705214836 169.00003747 698.705214836 169.00003747 1085.47692312 480.820738431 c 2,10,-1
 1111.27028068 501.61570006 l 1,11,-1
 1080.29544555 513.375262652 l 2,12,13
 1020.36698553 536.127037564 1020.36698553 536.127037564 951.410814034 560.8894489 c 128,-1,14
 882.454642539 585.651860235 882.454642539 585.651860235 804.523135438 612.407663157 c 0,15,16
 646.063419354 667.041386893 646.063419354 667.041386893 565.75326756 665.998397909 c 0,17,18
 483.866026266 664.934927243 483.866026266 664.934927243 417.11609209 627.020964631 c 0,19,20
 356.688189858 592.697916163 356.688189858 592.697916163 280.487646947 511.360134516 c 1,21,-1
 177.689156959 586.088726925 l 1,22,-1
 186.507283542 597.945406604 l 2,23,24
 344.480318877 809.924779083 344.480318877 809.924779083 554.492522157 808.271264665 c 0,25,26
 577.404009405 808.066756762 577.404009405 808.066756762 601.678621072 805.814179123 c 128,-1,27
 625.95323274 803.561601485 625.95323274 803.561601485 651.647456295 799.253482109 c 128,-1,28
 677.34167985 794.945362734 677.34167985 794.945362734 704.435553749 788.55064005 c 128,-1,29
 731.529427648 782.155917367 731.529427648 782.155917367 759.968271682 773.696824604 c 128,-1,30
 788.407115716 765.237731842 788.407115716 765.237731842 818.289547197 754.65152185 c 128,-1,31
 848.171978679 744.065311858 848.171978679 744.065311858 879.33214972 731.403923097 c 0,32,33
 1209.22899274 597.018787608 1209.22899274 597.018787608 1328.22812737 572.153783186 c 1,34,-1
 1316.10143671 436.171858438 l 1,35,36
 1256.92551951 419.168027985 1256.92551951 419.168027985 1060.1784583 288.414369384 c 0,37,38
 654.268375644 19 654.268375644 19 175.171875 19 c 2,39,-1
 -6.26953125 19 l 2,0,1
EndSplineSet
EndChar

StartChar: uniFEA4
Encoding: 65188 65188 175
Width: 1497
VWidth: 2673
GlyphClass: 2
Flags: W
AnchorPoint: "Anchor-10" 533.938 1358.84 basechar 0
AnchorPoint: "Anchor-7" 672.312 -306.566 basechar 0
LayerCount: 2
Fore
SplineSet
1328.22812303 572.153784093 m 1,0,-1
 1316.14318898 436.640484818 l 1,1,2
 1279.01434309 427.988041985 1279.01434309 427.988041985 1204.27023038 386.586393374 c 2,3,-1
 1194.25308604 381.037778575 l 1,4,-1
 1194.52797254 367.18697911 l 2,5,6
 1195.80560453 301.182334863 1195.80560453 301.182334863 1228.88050538 256.646129545 c 128,-1,7
 1261.95540623 212.109924227 1261.95540623 212.109924227 1322.74682939 190.553497269 c 128,-1,8
 1383.53825255 168.997070312 1383.53825255 168.997070312 1470.75097656 168.997070312 c 2,9,-1
 1499.59632773 168.997070312 l 1,10,11
 1502.63569714 162.715985106 1502.63569714 162.715985106 1504.81150091 146.109727486 c 128,-1,12
 1506.98730469 129.503469867 1506.98730469 129.503469867 1506.98730469 105.715820312 c 2,13,-1
 1506.9873049 84.4141348139 l 2,14,15
 1506.99099229 59.8949828328 1506.99099229 59.8949828328 1504.63687921 42.3401201555 c 128,-1,16
 1502.28276613 24.7852574781 1502.28276613 24.7852574781 1499.46690115 19 c 1,17,-1
 1465.76855469 19 l 2,18,19
 1377.46698395 19 1377.46698395 19 1311.25064837 35.4424737068 c 128,-1,20
 1245.03431279 51.8849474136 1245.03431279 51.8849474136 1200.19002725 85.0465214624 c 128,-1,21
 1155.34574171 118.208095511 1155.34574171 118.208095511 1130.98291607 167.336635165 c 128,-1,22
 1106.62009044 216.46517482 1106.62009044 216.46517482 1101.5680118 282.697049663 c 2,23,-1
 1098.52555516 322.583128452 l 1,24,-1
 1071.21750132 303.459842899 l 2,25,26
 665.008814777 19 665.008814777 19 175.171875 19 c 2,27,-1
 -6.26953125 19 l 2,28,29
 -36.2602889049 19 -36.2602889049 19 -49.2380546087 33.6136763487 c 128,-1,30
 -62.2158203125 48.2273526974 -62.2158203125 48.2273526974 -62.2158203125 84.4111328125 c 2,31,-1
 -62.2158856667 105.665986044 l 2,32,33
 -62.1537544182 129.354297662 -62.1537544182 129.354297662 -56.2745731149 143.20242528 c 128,-1,34
 -50.3953918117 157.050552897 -50.3953918117 157.050552897 -38.4121563804 163.023811605 c 128,-1,35
 -26.4289209491 168.997070312 -26.4289209491 168.997070312 -6.26953125 168.997070312 c 2,36,-1
 167.741317318 168.997070312 l 2,37,38
 697.691362676 169.000037464 697.691362676 169.000037464 1085.46847144 480.802354903 c 2,39,-1
 1111.29737638 501.570760864 l 1,40,-1
 1080.32411733 513.365515658 l 2,41,42
 984.315679873 549.925955625 984.315679873 549.925955625 816.534263018 607.865056011 c 0,43,44
 646.084393816 667.041659289 646.084393816 667.041659289 565.75326756 665.998397909 c 0,45,46
 483.866026266 664.934927243 483.866026266 664.934927243 417.11609209 627.020964631 c 0,47,48
 356.688189858 592.697916163 356.688189858 592.697916163 280.487646947 511.360134516 c 1,49,-1
 177.689156959 586.088726925 l 1,50,-1
 186.507283542 597.945406604 l 2,51,52
 344.480318877 809.924779083 344.480318877 809.924779083 554.492522157 808.271264665 c 0,53,54
 577.404009405 808.066756762 577.404009405 808.066756762 601.678621072 805.814179123 c 128,-1,55
 625.95323274 803.561601485 625.95323274 803.561601485 651.647456295 799.253482109 c 128,-1,56
 677.34167985 794.945362734 677.34167985 794.945362734 704.435553749 788.55064005 c 128,-1,57
 731.529427648 782.155917367 731.529427648 782.155917367 759.968271682 773.696824604 c 128,-1,58
 788.407115716 765.237731842 788.407115716 765.237731842 818.289547197 754.65152185 c 128,-1,59
 848.171978679 744.065311858 848.171978679 744.065311858 879.33214972 731.403923097 c 0,60,61
 1209.22899274 597.018787608 1209.22899274 597.018787608 1328.22812303 572.153784093 c 1,0,-1
EndSplineSet
EndChar

StartChar: uniFEAA
Encoding: 65194 65194 181
Width: 1118
VWidth: 2673
GlyphClass: 2
Flags: W
AnchorPoint: "Anchor-10" 432.756 1454.53 basechar 0
AnchorPoint: "Anchor-7" 387.935 -301.569 basechar 0
LayerCount: 2
Fore
SplineSet
1104.89160156 19 m 2,0,1
 955.433146882 19 955.433146882 19 862.734335665 164.752181737 c 2,2,-1
 848.648607501 186.899451851 l 1,3,-1
 832.008499147 166.601271998 l 2,4,5
 710.979112882 18.9654394888 710.979112882 18.9654394888 414.316112035 17.8249274999 c 0,6,7
 268.693658339 17.0517368437 268.693658339 17.0517368437 125.369140625 43.2490505333 c 1,8,-1
 125.369140625 194.770695354 l 1,9,10
 280.088686221 163.980688083 280.088686221 163.980688083 423.837620253 163.672904029 c 0,11,12
 567.128143365 164.009649023 567.128143365 164.009649023 661.625116806 206.863010497 c 0,13,14
 715.186067219 231.779620758 715.186067219 231.779620758 732.066067647 278.234409467 c 0,15,16
 748.946068074 324.689198176 748.946068074 324.689198176 727.662015115 384.378285745 c 0,17,18
 718.307127845 411.671539716 718.307127845 411.671539716 707.176556091 440.35362214 c 0,19,20
 696.045984336 469.035704564 696.045984336 469.035704564 683.170920496 499.039986029 c 0,21,22
 670.295856657 529.044267495 670.295856657 529.044267495 655.641831905 560.463247933 c 2,23,-1
 494.730184672 905.442077748 l 1,24,-1
 624.62385597 970.107915332 l 1,25,-1
 850.551516469 455.945446067 l 2,26,27
 881.310158763 385.945431733 881.310158763 385.945431733 911.448051724 333.699124678 c 0,28,29
 941.585944685 281.452817622 941.585944685 281.452817622 973.322091968 244.102271182 c 0,30,31
 1005.05823925 206.751724742 1005.05823925 206.751724742 1038.3190832 187.874829967 c 0,32,33
 1071.57992715 168.997935192 1071.57992715 168.997935192 1106.16992188 168.997070312 c 2,34,-1
 1120.0133823 168.997070312 l 1,35,36
 1123.23095079 162.136149062 1123.23095079 162.136149062 1125.44897149 144.509661002 c 0,37,38
 1127.66699219 126.883172942 1127.66699219 126.883172942 1127.66699219 101.455078125 c 2,39,-1
 1127.66714002 84.3420416468 l 2,40,41
 1127.7333437 67.5595054536 1127.7333437 67.5595054536 1126.51976516 53.1627710307 c 0,42,43
 1125.30618661 38.7660366077 1125.30618661 38.7660366077 1123.67749973 30.6754171832 c 0,44,45
 1122.04881285 22.5847977588 1122.04881285 22.5847977588 1120.29294796 19 c 2,46,-1
 1104.89160156 19 l 2,0,1
EndSplineSet
EndChar

StartChar: uniFEAE
Encoding: 65198 65198 185
Width: 925
VWidth: 2673
GlyphClass: 2
Flags: W
AnchorPoint: "Anchor-10" 523.685 990.642 basechar 0
AnchorPoint: "Anchor-7" 335.657 -789.636 basechar 0
LayerCount: 2
Fore
SplineSet
905.7421875 19 m 2,0,1
 813.974393425 19 813.974393425 19 771.650396617 70.4640591567 c 2,2,-1
 742.042270147 106.466197117 l 1,3,-1
 738.045555869 60.024606213 l 2,4,5
 735.32598279 28.4233228587 735.32598279 28.4233228587 729.845362297 -1.82968511126 c 128,-1,6
 724.364741805 -32.0826930812 724.364741805 -32.0826930812 716.132234342 -60.9742781374 c 128,-1,7
 707.89972688 -89.8658631936 707.89972688 -89.8658631936 696.902350887 -117.450522786 c 128,-1,8
 685.904974894 -145.035182378 685.904974894 -145.035182378 672.165857461 -171.285403923 c 128,-1,9
 658.426740027 -197.535625469 658.426740027 -197.535625469 641.918932946 -222.520271471 c 0,10,11
 481.494991236 -463.962973654 481.494991236 -463.962973654 43.9756832873 -508.577490107 c 1,12,-1
 19.6944476544 -373.842908754 l 1,13,14
 399.508615718 -334.451222995 399.508615718 -334.451222995 539.43140936 -128.862903456 c 0,15,16
 607.982551936 -28.915105667 607.982551936 -28.915105667 608.382773143 107.960547347 c 0,17,18
 608.00974941 291.229391531 608.00974941 291.229391531 513.245041456 462.493655279 c 1,19,-1
 640.558220953 524.600072025 l 1,20,-1
 724.056343371 322.411827977 l 2,21,22
 787.281191069 168.997070312 787.281191069 168.997070312 896.939453125 168.997070312 c 2,23,-1
 927.171112384 168.997070312 l 2,24,25
 929.099807106 165.011446902 929.099807106 165.011446902 930.714925425 156.968799426 c 128,-1,26
 932.330043744 148.926151949 932.330043744 148.926151949 933.446271872 135.399187059 c 128,-1,27
 934.5625 121.872222168 934.5625 121.872222168 934.5625 105.715820312 c 2,28,-1
 934.562755159 84.3185239982 l 2,29,30
 934.821183693 34.4539308886 934.821183693 34.4539308886 927.236305414 19 c 1,31,-1
 905.7421875 19 l 2,0,1
EndSplineSet
PairPos2: "'kern' Horizontal Kerning lookup 15-2" uniFBFE dx=53 dy=0 dh=53 dv=0 dx=0 dy=0 dh=0 dv=0
PairPos2: "'kern' Horizontal Kerning lookup 15-1" uniFEE7 dx=-160 dy=0 dh=-160 dv=0 dx=0 dy=0 dh=0 dv=0
PairPos2: "'kern' Horizontal Kerning lookup 15-2" uniFB90 dx=-202 dy=0 dh=-202 dv=0 dx=0 dy=0 dh=0 dv=0
PairPos2: "'kern' Horizontal Kerning lookup 15-2" uniFB8E dx=-202 dy=0 dh=-202 dv=0 dx=0 dy=0 dh=0 dv=0
PairPos2: "'kern' Horizontal Kerning lookup 15-2" uni06A9 dx=-202 dy=0 dh=-202 dv=0 dx=0 dy=0 dh=0 dv=0
PairPos2: "'kern' Horizontal Kerning lookup 15-2" uni064A dx=-53 dy=0 dh=-53 dv=0 dx=0 dy=0 dh=0 dv=0
PairPos2: "'kern' Horizontal Kerning lookup 15-2" afii57414 dx=-53 dy=0 dh=-53 dv=0 dx=0 dy=0 dh=0 dv=0
PairPos2: "'kern' Horizontal Kerning lookup 15-2" uni0649 dx=-53 dy=0 dh=-53 dv=0 dx=0 dy=0 dh=0 dv=0
PairPos2: "'kern' Horizontal Kerning lookup 15-2" uniFEEB dx=-160 dy=0 dh=-160 dv=0 dx=0 dy=0 dh=0 dv=0
PairPos2: "'kern' Horizontal Kerning lookup 15-2" uni0647 dx=-160 dy=0 dh=-160 dv=0 dx=0 dy=0 dh=0 dv=0
PairPos2: "'kern' Horizontal Kerning lookup 15-2" uni0646 dx=-53 dy=0 dh=-53 dv=0 dx=0 dy=0 dh=0 dv=0
PairPos2: "'kern' Horizontal Kerning lookup 15-2" uniFEE3 dx=-160 dy=0 dh=-160 dv=0 dx=0 dy=0 dh=0 dv=0
PairPos2: "'kern' Horizontal Kerning lookup 15-2" uni0645 dx=-160 dy=0 dh=-160 dv=0 dx=0 dy=0 dh=0 dv=0
PairPos2: "'kern' Horizontal Kerning lookup 15-2" uniFEFB dx=-128 dy=0 dh=-128 dv=0 dx=0 dy=0 dh=0 dv=0
PairPos2: "'kern' Horizontal Kerning lookup 15-2" uniFEDF dx=-128 dy=0 dh=-128 dv=0 dx=0 dy=0 dh=0 dv=0
PairPos2: "'kern' Horizontal Kerning lookup 15-2" uni0644 dx=-53 dy=0 dh=-53 dv=0 dx=0 dy=0 dh=0 dv=0
PairPos2: "'kern' Horizontal Kerning lookup 15-2" uniFEDB dx=-202 dy=0 dh=-202 dv=0 dx=0 dy=0 dh=0 dv=0
PairPos2: "'kern' Horizontal Kerning lookup 15-2" uni0643 dx=-128 dy=0 dh=-128 dv=0 dx=0 dy=0 dh=0 dv=0
PairPos2: "'kern' Horizontal Kerning lookup 15-2" uniFED7 dx=-160 dy=0 dh=-160 dv=0 dx=0 dy=0 dh=0 dv=0
PairPos2: "'kern' Horizontal Kerning lookup 15-2" uni0642 dx=-53 dy=0 dh=-53 dv=0 dx=0 dy=0 dh=0 dv=0
PairPos2: "'kern' Horizontal Kerning lookup 15-2" uniFED3 dx=-160 dy=0 dh=-160 dv=0 dx=0 dy=0 dh=0 dv=0
PairPos2: "'kern' Horizontal Kerning lookup 15-2" uni0641 dx=-160 dy=0 dh=-160 dv=0 dx=0 dy=0 dh=0 dv=0
PairPos2: "'kern' Horizontal Kerning lookup 15-2" uniFECF dx=-160 dy=0 dh=-160 dv=0 dx=0 dy=0 dh=0 dv=0
PairPos2: "'kern' Horizontal Kerning lookup 15-2" uniFECB dx=-160 dy=0 dh=-160 dv=0 dx=0 dy=0 dh=0 dv=0
PairPos2: "'kern' Horizontal Kerning lookup 15-2" uniFEC7 dx=-160 dy=0 dh=-160 dv=0 dx=0 dy=0 dh=0 dv=0
PairPos2: "'kern' Horizontal Kerning lookup 15-2" uni0638 dx=-160 dy=0 dh=-160 dv=0 dx=0 dy=0 dh=0 dv=0
PairPos2: "'kern' Horizontal Kerning lookup 15-2" uniFEC3 dx=-160 dy=0 dh=-160 dv=0 dx=0 dy=0 dh=0 dv=0
PairPos2: "'kern' Horizontal Kerning lookup 15-2" uni0637 dx=-160 dy=0 dh=-160 dv=0 dx=0 dy=0 dh=0 dv=0
PairPos2: "'kern' Horizontal Kerning lookup 15-2" uniFEBF dx=-160 dy=0 dh=-160 dv=0 dx=0 dy=0 dh=0 dv=0
PairPos2: "'kern' Horizontal Kerning lookup 15-2" uni0636 dx=-160 dy=0 dh=-160 dv=0 dx=0 dy=0 dh=0 dv=0
PairPos2: "'kern' Horizontal Kerning lookup 15-2" uniFEBB dx=-160 dy=0 dh=-160 dv=0 dx=0 dy=0 dh=0 dv=0
PairPos2: "'kern' Horizontal Kerning lookup 15-2" uni0635 dx=-160 dy=0 dh=-160 dv=0 dx=0 dy=0 dh=0 dv=0
PairPos2: "'kern' Horizontal Kerning lookup 15-2" uniFEB7 dx=-160 dy=0 dh=-160 dv=0 dx=0 dy=0 dh=0 dv=0
PairPos2: "'kern' Horizontal Kerning lookup 15-2" uni0634 dx=-160 dy=0 dh=-160 dv=0 dx=0 dy=0 dh=0 dv=0
PairPos2: "'kern' Horizontal Kerning lookup 15-2" uniFEB3 dx=-160 dy=0 dh=-160 dv=0 dx=0 dy=0 dh=0 dv=0
PairPos2: "'kern' Horizontal Kerning lookup 15-2" uni0633 dx=-160 dy=0 dh=-160 dv=0 dx=0 dy=0 dh=0 dv=0
PairPos2: "'kern' Horizontal Kerning lookup 15-2" uni0630 dx=-160 dy=0 dh=-160 dv=0 dx=0 dy=0 dh=0 dv=0
PairPos2: "'kern' Horizontal Kerning lookup 15-2" uni062F dx=-160 dy=0 dh=-160 dv=0 dx=0 dy=0 dh=0 dv=0
PairPos2: "'kern' Horizontal Kerning lookup 15-2" uniFEA7 dx=-160 dy=0 dh=-160 dv=0 dx=0 dy=0 dh=0 dv=0
PairPos2: "'kern' Horizontal Kerning lookup 15-2" uniFEA3 dx=-160 dy=0 dh=-160 dv=0 dx=0 dy=0 dh=0 dv=0
PairPos2: "'kern' Horizontal Kerning lookup 15-2" uniFE9F dx=-160 dy=0 dh=-160 dv=0 dx=0 dy=0 dh=0 dv=0
PairPos2: "'kern' Horizontal Kerning lookup 15-2" uniFE9B dx=-160 dy=0 dh=-160 dv=0 dx=0 dy=0 dh=0 dv=0
PairPos2: "'kern' Horizontal Kerning lookup 15-2" uni062B dx=-160 dy=0 dh=-160 dv=0 dx=0 dy=0 dh=0 dv=0
PairPos2: "'kern' Horizontal Kerning lookup 15-2" uniFE97 dx=-160 dy=0 dh=-160 dv=0 dx=0 dy=0 dh=0 dv=0
PairPos2: "'kern' Horizontal Kerning lookup 15-2" uni062A dx=-160 dy=0 dh=-160 dv=0 dx=0 dy=0 dh=0 dv=0
PairPos2: "'kern' Horizontal Kerning lookup 15-2" uni0629 dx=-160 dy=0 dh=-160 dv=0 dx=0 dy=0 dh=0 dv=0
PairPos2: "'kern' Horizontal Kerning lookup 15-2" uniFE91 dx=-53 dy=0 dh=-53 dv=0 dx=0 dy=0 dh=0 dv=0
PairPos2: "'kern' Horizontal Kerning lookup 15-2" uni0628 dx=-160 dy=0 dh=-160 dv=0 dx=0 dy=0 dh=0 dv=0
PairPos2: "'kern' Horizontal Kerning lookup 15-2" uni0627 dx=-128 dy=0 dh=-128 dv=0 dx=0 dy=0 dh=0 dv=0
PairPos2: "'kern' Horizontal Kerning lookup 15-2" uni0623 dx=-128 dy=0 dh=-128 dv=0 dx=0 dy=0 dh=0 dv=0
PairPos2: "'kern' Horizontal Kerning lookup 15-2" uni0622 dx=-128 dy=0 dh=-128 dv=0 dx=0 dy=0 dh=0 dv=0
PairPos2: "'kern' Horizontal Kerning lookup 15-2" uni0621 dx=-160 dy=0 dh=-160 dv=0 dx=0 dy=0 dh=0 dv=0
PairPos2: "'kern' Horizontal Kerning lookup 15-2" uniFB94 dx=-202 dy=0 dh=-202 dv=0 dx=0 dy=0 dh=0 dv=0
PairPos2: "'kern' Horizontal Kerning lookup 15-2" uniFB92 dx=-202 dy=0 dh=-202 dv=0 dx=0 dy=0 dh=0 dv=0
PairPos2: "'kern' Horizontal Kerning lookup 15-2" uni06AF dx=-202 dy=0 dh=-202 dv=0 dx=0 dy=0 dh=0 dv=0
PairPos2: "'kern' Horizontal Kerning lookup 15-2" afii57506 dx=-160 dy=0 dh=-160 dv=0 dx=0 dy=0 dh=0 dv=0
PairPos2: "'kern' Horizontal Kerning lookup 15-2" afii57440 dx=-160 dy=0 dh=-160 dv=0 dx=0 dy=0 dh=0 dv=0
PairPos2: "'kern' Horizontal Kerning lookup 15-2" uniFE8B dx=-160 dy=0 dh=-160 dv=0 dx=0 dy=0 dh=0 dv=0
EndChar

StartChar: uniFEB2
Encoding: 65202 65202 189
Width: 2615
VWidth: 2673
GlyphClass: 2
Flags: W
AnchorPoint: "Anchor-10" 748.049 1074.78 basechar 0
AnchorPoint: "Anchor-7" 454.086 -799.659 basechar 0
LayerCount: 2
Fore
SplineSet
713.21503187 -338.681596367 m 0,0,1
 946.768283204 -339.357213256 946.768283204 -339.357213256 1066.53596301 -229.775771385 c 128,-1,2
 1186.30364282 -120.194329514 1186.30364282 -120.194329514 1185.56531802 95.1491272353 c 0,3,4
 1185.01115851 256.77802523 1185.01115851 256.77802523 1107.81654001 480.772712169 c 1,5,-1
 1236.62652619 525.776756149 l 1,6,-1
 1298.00659284 337.977512826 l 2,7,8
 1325.16828655 255.383408601 1325.16828655 255.383408601 1383.78986723 212.473773232 c 128,-1,9
 1442.4114479 169.564137862 1442.4114479 169.564137862 1528.85069281 169.06488969 c 0,10,11
 1613.20680607 168.493033634 1613.20680607 168.493033634 1662.25860958 210.30217593 c 128,-1,12
 1711.31041309 252.111318226 1711.31041309 252.111318226 1719.44997182 332.395034339 c 2,13,-1
 1742.22479725 557.032226562 l 1,14,-1
 1836.10799455 557.032226562 l 1,15,-1
 1858.75444344 331.601119826 l 2,16,17
 1866.64029282 251.041366808 1866.64029282 251.041366808 1920.42148891 209.670477588 c 128,-1,18
 1974.20268499 168.299588368 1974.20268499 168.299588368 2067.22318501 168.63873101 c 0,19,20
 2119.29179413 168.768639205 2119.29179413 168.768639205 2157.08932591 186.34422287 c 128,-1,21
 2194.88685768 203.919806534 2194.88685768 203.919806534 2216.78610659 238.393446857 c 128,-1,22
 2238.68535549 272.86708718 2238.68535549 272.86708718 2243.1789382 322.653379701 c 2,23,-1
 2266.22269428 577.96484375 l 1,24,-1
 2362.28070896 577.96484375 l 1,25,-1
 2387.39306411 322.453775801 l 2,26,27
 2395.02090953 246.547172904 2395.02090953 246.547172904 2448.61246521 207.772121608 c 128,-1,28
 2502.20402089 168.997070312 2502.20402089 168.997070312 2594.69042969 168.997070312 c 2,29,-1
 2617.14229204 168.997070312 l 1,30,31
 2624.79589844 152.677049969 2624.79589844 152.677049969 2624.79589844 101.455078125 c 2,32,-1
 2624.79595397 84.3710545367 l 2,33,34
 2624.91662587 34.4608101232 2624.91662587 34.4608101232 2617.36280589 19 c 1,35,-1
 2596.29101562 19 l 2,36,37
 2417.58921173 19 2417.58921173 19 2342.19920919 140.896403023 c 2,38,-1
 2323.48400702 171.156593366 l 1,39,-1
 2305.64097774 131.94799125 l 2,40,41
 2254.76652166 20.0039379139 2254.76652166 20.0039379139 2063.88352115 20.0654286995 c 0,42,43
 1966.50978347 20.0340267365 1966.50978347 20.0340267365 1903.30666214 51.8138504564 c 128,-1,44
 1840.1035408 83.5936741762 1840.1035408 83.5936741762 1807.65275036 147.051093408 c 2,45,-1
 1790.54996429 180.495538086 l 1,46,-1
 1773.74397363 146.900972314 l 2,47,48
 1709.27319254 18.0262192167 1709.27319254 18.0262192167 1523.70347866 18.441205837 c 0,49,50
 1410.9837204 18.9589374122 1410.9837204 18.9589374122 1355.2156321 86.4785005423 c 2,51,-1
 1321.75096024 126.994862017 l 1,52,-1
 1321.56652328 74.4455918703 l 2,53,54
 1321.01511647 -82.6597130907 1321.01511647 -82.6597130907 1260.57897376 -209.058764001 c 0,55,56
 1131.00950099 -480.993593038 1131.00950099 -480.993593038 704.742461913 -480.765626495 c 0,57,58
 239.922428159 -480.95003986 239.922428159 -480.95003986 151.966804779 -138.673727223 c 0,59,60
 131.163751039 -56.6331224053 131.163751039 -56.6331224053 130.609295644 44.214093516 c 0,61,62
 130.034498098 243.091280818 130.034498098 243.091280818 228.234413932 457.563374399 c 1,63,-1
 349.369396596 408.863111965 l 1,64,65
 268.015749104 199.213461803 268.015749104 199.213461803 268.868478728 51.3027603257 c 0,66,67
 269.977787961 -141.442640823 269.977787961 -141.442640823 382.833375363 -239.886959861 c 128,-1,68
 495.688962765 -338.331278898 495.688962765 -338.331278898 713.21503187 -338.681596367 c 0,0,1
EndSplineSet
EndChar

StartChar: uniFEB3
Encoding: 65203 65203 190
Width: 1696
VWidth: 2673
GlyphClass: 2
Flags: W
AnchorPoint: "Anchor-10" 865.863 1163.24 basechar 0
AnchorPoint: "Anchor-7" 936.049 -334.735 basechar 0
LayerCount: 2
Fore
SplineSet
409.325604666 146.311057973 m 2,0,1
 346.212482954 19 346.212482954 19 85.4072265625 19 c 2,2,-1
 -6.26953125 19 l 2,3,4
 -36.2602889049 19 -36.2602889049 19 -49.2380546087 33.6136763487 c 128,-1,5
 -62.2158203125 48.2273526974 -62.2158203125 48.2273526974 -62.2158203125 84.4111328125 c 2,6,-1
 -62.2158793901 101.407697261 l 2,7,8
 -62.1225944217 138.815391727 -62.1225944217 138.815391727 -49.0222470506 153.90623102 c 128,-1,9
 -35.9218996796 168.997070312 -35.9218996796 168.997070312 -6.26953125 168.997070312 c 2,10,-1
 85.6047276576 168.997070313 l 2,11,12
 208.243329843 168.998590193 208.243329843 168.998590193 278.292674748 210.043917058 c 128,-1,13
 348.342019652 251.089243923 348.342019652 251.089243923 357.798608791 334.371987828 c 2,14,-1
 382.979329041 556.134765625 l 1,15,-1
 475.79207499 556.134765625 l 1,16,-1
 497.537711385 337.245858257 l 2,17,18
 505.487924019 254.700570451 505.487924019 254.700570451 558.33945899 211.73359098 c 128,-1,19
 611.19099396 168.766611508 611.19099396 168.766611508 702.801259046 168.500080146 c 0,20,21
 763.528352931 168.32369511 763.528352931 168.32369511 807.577219487 187.096254912 c 128,-1,22
 851.626086044 205.868814713 851.626086044 205.868814713 877.482647458 243.523130002 c 128,-1,23
 903.339208872 281.177445291 903.339208872 281.177445291 909.001702495 336.18933298 c 2,24,-1
 931.733543356 557.032226562 l 1,25,-1
 1025.71223379 557.032226562 l 1,26,-1
 1048.3271065 335.288881375 l 2,27,28
 1056.91833285 252.913305622 1056.91833285 252.913305622 1108.10858608 210.26092156 c 128,-1,29
 1159.2988393 167.608537497 1159.2988393 167.608537497 1247.35628636 168.311509413 c 0,30,31
 1274.2731432 168.58245873 1274.2731432 168.58245873 1297.46680589 174.748765028 c 128,-1,32
 1320.66046858 180.915071327 1320.66046858 180.915071327 1339.59375353 192.615442675 c 128,-1,33
 1358.52703848 204.315814022 1358.52703848 204.315814022 1373.74667588 221.464786173 c 128,-1,34
 1388.96631329 238.613758324 1388.96631329 238.613758324 1400.13488738 260.762076553 c 128,-1,35
 1411.30346148 282.910394783 1411.30346148 282.910394783 1418.75461678 310.066421822 c 128,-1,36
 1426.20577207 337.222448861 1426.20577207 337.222448861 1429.81517848 368.843103009 c 128,-1,37
 1433.42458489 400.463757157 1433.42458489 400.463757157 1433.32611911 436.645363935 c 0,38,39
 1433.02053552 566.308873756 1433.02053552 566.308873756 1399.12071793 683.600874397 c 1,40,-1
 1529.9750169 706.866034368 l 1,41,42
 1548.65477755 642.834592695 1548.65477755 642.834592695 1557.63558025 577.737956614 c 128,-1,43
 1566.61638295 512.641320532 1566.61638295 512.641320532 1566.28523582 444.103817272 c 0,44,45
 1565.65766612 227.265132392 1565.65766612 227.265132392 1486.48565139 123.132566196 c 128,-1,46
 1407.31363667 19 1407.31363667 19 1247.76269531 19 c 0,47,48
 1069.05244543 19 1069.05244543 19 996.772943608 146.099484999 c 2,49,-1
 979.976369613 175.635326429 l 1,50,-1
 963.607110378 145.860535431 l 2,51,52
 928.144376021 81.3557531093 928.144376021 81.3557531093 865.132774094 49.6868547696 c 128,-1,53
 802.121172167 18.01795643 802.121172167 18.01795643 708.344502102 18.9540865395 c 0,54,55
 518.814728152 20.8904983522 518.814728152 20.8904983522 442.634219329 147.658779247 c 2,56,-1
 424.748389011 177.421719885 l 1,57,-1
 409.325604666 146.311057973 l 2,0,1
EndSplineSet
EndChar

StartChar: uniFEB4
Encoding: 65204 65204 191
Width: 1804
VWidth: 2667
GlyphClass: 2
Flags: W
AnchorPoint: "Anchor-10" 746.522 1157.09 basechar 0
AnchorPoint: "Anchor-7" 818.875 -302.797 basechar 0
LayerCount: 2
Fore
SplineSet
1576.12040258 322.48533225 m 2,0,1
 1579.86514292 284.383619496 1579.86514292 284.383619496 1595.58733569 255.317405048 c 128,-1,2
 1611.30952845 226.2511906 1611.30952845 226.2511906 1637.87083591 207.248755313 c 128,-1,3
 1664.43214337 188.246320025 1664.43214337 188.246320025 1700.99108542 178.621695169 c 128,-1,4
 1737.55002746 168.997070312 1737.55002746 168.997070312 1783.421875 168.997070312 c 2,5,-1
 1805.87275355 168.997070312 l 1,6,7
 1813.52636719 152.677029547 1813.52636719 152.677029547 1813.52636719 101.455078125 c 2,8,-1
 1813.52636719 84.3636915881 l 2,9,10
 1813.66456831 59.7316927808 1813.66456831 59.7316927808 1811.37345303 42.2831007303 c 128,-1,11
 1809.08233776 24.8345086799 1809.08233776 24.8345086799 1806.21671556 19 c 1,12,-1
 1785.02148438 19 l 2,13,14
 1761.38397711 19 1761.38397711 19 1739.66694461 20.8784629176 c 128,-1,15
 1717.9499121 22.7569258351 1717.9499121 22.7569258351 1698.38798974 26.4623656871 c 0,16,17
 1658.8369551 34.2173074249 1658.8369551 34.2173074249 1627.49867419 48.4581579439 c 0,18,19
 1596.43398042 63.0877507994 1596.43398042 63.0877507994 1571.57876044 84.4776359799 c 0,20,21
 1547.43403113 105.615894754 1547.43403113 105.615894754 1529.54180962 134.53167584 c 2,22,-1
 1506.8845326 171.14830625 l 1,23,-1
 1489.07819048 132.020327146 l 2,24,25
 1463.56238646 77.0263537901 1463.56238646 77.0263537901 1407.24093859 48.8894604687 c 0,26,27
 1378.32961264 34.6522494296 1378.32961264 34.6522494296 1340.13957499 27.3499604414 c 128,-1,28
 1301.94953735 20.0476714531 1301.94953735 20.0476714531 1254.70827711 20.0917949648 c 0,29,30
 1061.20265088 20.0050252808 1061.20265088 20.0050252808 999.980139587 140.00114743 c 2,31,-1
 979.341203649 180.453461871 l 1,32,-1
 958.964288014 139.918318596 l 2,33,34
 897.343758972 18.0539792763 897.343758972 18.0539792763 702.095355153 18.9548239151 c 0,35,36
 511.069866537 19.9429902852 511.069866537 19.9429902852 444.944358885 139.608408539 c 2,37,-1
 424.971550485 175.752622108 l 1,38,-1
 404.762621524 139.752653996 l 2,39,40
 336.884285144 19 336.884285144 19 84.580078125 19 c 2,41,-1
 -6.26953125 19 l 2,42,43
 -36.2602889049 19 -36.2602889049 19 -49.2380546087 33.6136763487 c 128,-1,44
 -62.2158203125 48.2273526974 -62.2158203125 48.2273526974 -62.2158203125 84.4111328125 c 2,45,-1
 -62.2158793901 101.407697261 l 2,46,47
 -62.1225944217 138.815391727 -62.1225944217 138.815391727 -49.0222470506 153.90623102 c 128,-1,48
 -35.9218996796 168.997070312 -35.9218996796 168.997070312 -6.26953125 168.997070312 c 2,49,-1
 84.7785549626 168.997070313 l 2,50,51
 338.907122647 169.000208802 338.907122647 169.000208802 356.978949177 330.582488655 c 2,52,-1
 382.205364018 556.134765625 l 1,53,-1
 474.917678845 556.134765625 l 1,54,-1
 496.702940752 333.478562688 l 2,55,56
 504.895033139 245.505725144 504.895033139 245.505725144 560.696940563 206.252694825 c 0,57,58
 613.889991482 167.990186799 613.889991482 167.990186799 707.853922457 168.141608464 c 0,59,60
 737.298309889 168.116511406 737.298309889 168.116511406 762.858145501 172.777178906 c 128,-1,61
 788.417981113 177.437846407 788.417981113 177.437846407 809.742709178 186.640719424 c 128,-1,62
 831.067437244 195.84359244 831.067437244 195.84359244 848.106855362 209.695493488 c 128,-1,63
 865.14627348 223.547394535 865.14627348 223.547394535 877.566344524 241.719879481 c 128,-1,64
 889.986415567 259.892364427 889.986415567 259.892364427 897.719317296 282.689466549 c 128,-1,65
 905.452219024 305.486568671 905.452219024 305.486568671 908.18043291 332.394958747 c 2,66,-1
 930.956173543 557.032226562 l 1,67,-1
 1024.83846329 557.032226562 l 1,68,-1
 1047.4883173 331.566658058 l 2,69,70
 1055.52031989 251.028055958 1055.52031989 251.028055958 1109.29266624 209.663801646 c 128,-1,71
 1163.06501258 168.299547334 1163.06501258 168.299547334 1255.95356571 168.63873079 c 0,72,73
 1334.39176293 168.83406606 1334.39176293 168.83406606 1379.77412462 208.329089227 c 128,-1,74
 1425.15648631 247.824112395 1425.15648631 247.824112395 1431.91038351 322.6533797 c 2,75,-1
 1454.9541396 577.96484375 l 1,76,-1
 1551.01117876 577.96484375 l 1,77,-1
 1576.12040258 322.48533225 l 2,0,1
EndSplineSet
EndChar

StartChar: uniFEBA
Encoding: 65210 65210 197
Width: 2636
VWidth: 2673
GlyphClass: 2
Flags: W
AnchorPoint: "Anchor-10" 571.394 1031.79 basechar 0
AnchorPoint: "Anchor-7" 380.591 -809.285 basechar 0
LayerCount: 2
Fore
SplineSet
1608.046875 19 m 2,0,1
 1436.66884508 19 1436.66884508 19 1352.42946159 86.4433792417 c 2,2,-1
 1321.6925008 111.051874906 l 1,3,-1
 1321.55480368 71.677773556 l 2,4,5
 1321.3743332 20.0727468891 1321.3743332 20.0727468891 1314.52291802 -28.3144384466 c 128,-1,6
 1307.67150284 -76.7016237822 1307.67150284 -76.7016237822 1294.19446891 -121.820921484 c 128,-1,7
 1280.71743498 -166.940219187 1280.71743498 -166.940219187 1260.57897376 -209.058764001 c 0,8,9
 1131.00950099 -480.993593038 1131.00950099 -480.993593038 704.742461913 -480.765626495 c 0,10,11
 239.922428159 -480.95003986 239.922428159 -480.95003986 151.966804779 -138.673727223 c 0,12,13
 131.163751039 -56.6331224053 131.163751039 -56.6331224053 130.609295644 44.214093516 c 0,14,15
 130.034498098 243.091280818 130.034498098 243.091280818 228.234413932 457.563374399 c 1,16,-1
 349.369396596 408.863111965 l 1,17,18
 268.015749104 199.213461803 268.015749104 199.213461803 268.868478728 51.3027603257 c 0,19,20
 269.977754349 -141.436800491 269.977754349 -141.436800491 382.840529484 -239.884043884 c 128,-1,21
 495.703304619 -338.331287277 495.703304619 -338.331287277 713.203564206 -338.681563181 c 0,22,23
 724.83648019 -338.714777308 724.83648019 -338.714777308 736.192603654 -338.487683509 c 0,24,25
 961.908986361 -333.971445971 961.908986361 -333.971445971 1075.86478522 -224.302823567 c 128,-1,26
 1189.82058407 -114.634201163 1189.82058407 -114.634201163 1185.56174108 95.4573784663 c 0,27,28
 1182.08631493 271.807412284 1182.08631493 271.807412284 1110.95580162 480.753087862 c 1,29,-1
 1239.51355495 525.668372834 l 1,30,-1
 1297.89654135 338.31842875 l 2,31,32
 1334.86164782 219.484022576 1334.86164782 219.484022576 1411.11648743 216.810495091 c 2,33,-1
 1422.86736141 216.398504393 l 1,34,-1
 1428.47885776 226.731165438 l 2,35,36
 1752.21204623 822.833362999 1752.21204623 822.833362999 2149.16179902 817.006124874 c 0,37,38
 2335.95722958 814.151268121 2335.95722958 814.151268121 2429.66850875 679.200465538 c 0,39,40
 2454.68633344 642.861130818 2454.68633344 642.861130818 2467.40755352 595.427577392 c 128,-1,41
 2480.1287736 547.994023965 2480.1287736 547.994023965 2480.24776946 488.793532472 c 0,42,43
 2480.48758901 449.308367633 2480.48758901 449.308367633 2473.11882559 410.856682242 c 128,-1,44
 2465.75006217 372.404996851 2465.75006217 372.404996851 2450.63730193 334.640560134 c 128,-1,45
 2435.52454169 296.876123417 2435.52454169 296.876123417 2412.62423823 259.850836429 c 2,46,-1
 2405.52059198 248.365637471 l 1,47,-1
 2414.03218725 237.881156978 l 2,48,49
 2442.90373989 202.317526319 2442.90373989 202.317526319 2495.71685271 185.657298315 c 128,-1,50
 2548.52996553 168.997070312 2548.52996553 168.997070312 2624.671875 168.997070312 c 2,51,-1
 2637.64621229 168.997070312 l 1,52,53
 2645.29980469 152.677089465 2645.29980469 152.677089465 2645.29980469 101.455078125 c 2,54,-1
 2645.29992453 84.4786150627 l 2,55,56
 2645.27679717 77.9670194953 2645.27679717 77.9670194953 2645.06852217 71.7341504589 c 128,-1,57
 2644.86024718 65.5012814226 2644.86024718 65.5012814226 2644.50535733 60.1698905144 c 128,-1,58
 2644.15046749 54.8384996063 2644.15046749 54.8384996063 2643.67750273 49.9237898673 c 128,-1,59
 2643.20453797 45.0090801284 2643.20453797 45.0090801284 2642.63878848 40.9299698443 c 128,-1,60
 2642.073039 36.8508595602 2642.073039 36.8508595602 2641.45717016 33.339973971 c 128,-1,61
 2640.84130132 29.8290883818 2640.84130132 29.8290883818 2640.18647789 27.087923574 c 128,-1,62
 2639.53165446 24.3467587663 2639.53165446 24.3467587663 2638.89466723 22.325362179 c 128,-1,63
 2638.25768001 20.3039655917 2638.25768001 20.3039655917 2637.63645116 19 c 2,64,-1
 2619.69140625 19 l 2,65,66
 2524.02994162 19 2524.02994162 19 2453.47851447 50.1138888907 c 128,-1,67
 2382.92708732 81.2277777814 2382.92708732 81.2277777814 2335.35573226 143.581260047 c 2,68,-1
 2324.39170225 157.952207654 l 1,69,-1
 2309.49232765 147.717818281 l 2,70,71
 2122.10303433 19 2122.10303433 19 1681.9765625 19 c 2,72,-1
 1608.046875 19 l 2,0,1
1541.08030196 170.379882812 m 1,73,-1
 1706.37492117 170.379893965 l 2,74,75
 2062.20557575 169.994348564 2062.20557575 169.994348564 2201.07918297 252.448850753 c 0,76,77
 2346.29233794 337.757679477 2346.29233794 337.757679477 2345.86910829 477.025498339 c 0,78,79
 2346.01520116 556.223093619 2346.01520116 556.223093619 2288.11007377 610.452086365 c 0,80,81
 2230.2992037 663.045751352 2230.2992037 663.045751352 2128.73861898 662.413296933 c 0,82,83
 1849.42159939 659.905800746 1849.42159939 659.905800746 1559.42630177 199.506186914 c 2,84,-1
 1541.08030196 170.379882812 l 1,73,-1
EndSplineSet
EndChar

StartChar: uniFEBB
Encoding: 65211 65211 198
Width: 1748
VWidth: 2673
GlyphClass: 2
Flags: W
AnchorPoint: "Anchor-10" 672.095 1260.71 basechar 0
AnchorPoint: "Anchor-7" 647.668 -280.688 basechar 0
LayerCount: 2
Fore
SplineSet
679.545145727 170.379882812 m 1,0,-1
 844.840714095 170.379893995 l 2,1,2
 1200.19014385 169.994357773 1200.19014385 169.994357773 1339.52818205 252.438980333 c 0,3,4
 1483.97176499 337.096384669 1483.97176499 337.096384669 1484.33507736 477.080747605 c 0,5,6
 1483.94960056 558.718664957 1483.94960056 558.718664957 1426.41213762 610.600813716 c 0,7,8
 1397.07815221 637.051583647 1397.07815221 637.051583647 1357.04667572 649.888307137 c 0,9,10
 1317.01519922 662.725030626 1317.01519922 662.725030626 1267.20473422 662.413299578 c 0,11,12
 987.889184097 659.910152682 987.889184097 659.910152682 701.753450203 205.638022846 c 2,13,-1
 679.545145727 170.379882812 l 1,0,-1
820.442382812 19 m 2,14,-1
 746.512695312 19 l 2,15,16
 613.392972128 19 613.392972128 19 527.378813541 53.7057130505 c 0,17,18
 441.364654954 88.411426101 441.364654954 88.411426101 399.994815218 156.216284704 c 2,19,-1
 381.932532365 185.820231511 l 1,20,-1
 361.674299426 157.644124518 l 2,21,22
 262.245043246 19 262.245043246 19 39.0224609375 19 c 2,23,-1
 -6.26953125 19 l 2,24,25
 -36.2602889049 19 -36.2602889049 19 -49.2380546087 33.6136763487 c 0,26,27
 -62.2158203125 48.2273526974 -62.2158203125 48.2273526974 -62.2158203125 84.4111328125 c 2,28,-1
 -62.2158793901 101.407697261 l 2,29,30
 -62.1225944216 138.815391727 -62.1225944216 138.815391727 -49.0222470506 153.90623102 c 0,31,32
 -35.9218996796 168.997070312 -35.9218996796 168.997070312 -6.26953125 168.997070312 c 2,33,-1
 38.2326540335 168.997070313 l 2,34,35
 162.347729732 168.998586859 162.347729732 168.998586859 232.365529497 210.550537661 c 0,36,37
 302.383329262 252.102488462 302.383329262 252.102488462 309.881313184 336.385711622 c 2,38,-1
 330.541989791 568.627929687 l 1,39,-1
 426.127529647 568.627929688 l 1,40,-1
 446.401589848 338.924880272 l 2,41,42
 450.718658932 293.008860796 450.718658932 293.008860796 475.585117685 261.612929665 c 0,43,44
 500.451576438 230.216998533 500.451576438 230.216998533 543.676102109 216.320937393 c 2,45,-1
 558.667876816 211.501298203 l 1,46,-1
 568.121039922 228.899502331 l 2,47,48
 890.232078816 820.889330088 890.232078816 820.889330088 1287.72546927 817.004881434 c 0,49,50
 1382.449881 816.045126898 1382.449881 816.045126898 1452.91279858 781.0419057 c 0,51,52
 1522.10398689 747.15930606 1522.10398689 747.15930606 1568.0902431 679.265627802 c 0,53,54
 1619.99754454 603.142202711 1619.99754454 603.142202711 1619.95215137 495.17499778 c 0,55,56
 1619.99822934 412.183870549 1619.99822934 412.183870549 1596.02891671 342.790976283 c 0,57,58
 1584.50372314 307.917968206 1584.50372314 307.917968206 1567.17321414 276.907702584 c 0,59,60
 1549.84270515 245.897436961 1549.84270515 245.897436961 1526.3493009 218.079067029 c 0,61,62
 1444.40057062 119.94031235 1444.40057062 119.94031235 1267.87510928 69.4701561749 c 0,63,64
 1091.34964795 19 1091.34964795 19 820.442382812 19 c 2,14,-1
EndSplineSet
EndChar

